<svg width="179" height="98" viewBox="0 0 179 98" fill="none" xmlns="http://www.w3.org/2000/svg">
<path d="M169.769 4.89876C160.188 -1.92542 146.892 0.303682 140.067 9.86536L129.684 24.4327C130.447 17.0611 127.338 9.51339 120.885 4.89876C111.304 -1.92542 98.0077 0.303682 91.1835 9.86536L80.8006 24.4327C81.5632 17.0611 78.4542 9.51339 72.0015 4.89876C62.4203 -1.92542 49.1239 0.303682 42.2997 9.86536L4.09212 63.4616C-2.73206 73.0428 -0.502957 86.3392 9.05872 93.1634C18.6204 99.9876 31.9363 97.7584 38.7605 88.1968L49.1434 73.6294C47.0317 95.1578 74.7194 105.932 87.6443 88.1968L98.0273 73.6294C95.9155 95.1578 123.603 105.932 136.528 88.1968L174.736 34.6201C181.56 25.0389 179.331 11.7425 169.769 4.91832V4.89876Z" fill="#D9D9D9"/>
</svg>
