<svg width="171" height="171" viewBox="0 0 171 171" fill="none" xmlns="http://www.w3.org/2000/svg">
<path d="M165.618 74.6367C162.595 71.6133 158.622 69.9609 154.368 69.9609C138.267 69.9609 122.376 72.5625 107.118 77.7305L100.017 80.1211C99.5947 80.2617 99.3486 79.6641 99.7353 79.4883L106.485 76.1484C120.935 69.0117 134.013 59.625 145.403 48.2344C148.392 45.2461 150.044 41.3438 150.079 37.1953C150.185 28.4766 143.083 21.1992 134.364 21.0586C130.04 20.9883 125.962 22.6758 122.903 25.7344C111.513 37.125 102.126 50.2031 94.9893 64.6523L91.6494 71.4023C91.4385 71.7891 90.876 71.543 91.0166 71.1211L93.4072 64.0195C98.5752 48.7617 101.177 32.8711 101.177 16.7695C101.177 12.5156 99.5244 8.50781 96.501 5.51953C93.4775 2.49609 89.5049 0.84375 85.251 0.84375C80.9971 0.84375 76.9893 2.49609 74.001 5.51953C70.9775 8.54297 69.3252 12.5156 69.3252 16.7695C69.3252 32.8711 71.9268 48.7617 77.0947 64.0195L79.4853 71.1211C79.626 71.543 79.0283 71.7891 78.8525 71.4023L75.5127 64.6523C68.376 50.2031 58.9893 37.125 47.5986 25.7344C44.6103 22.7461 40.708 21.0938 36.5596 21.0586C27.8057 20.9531 20.5283 28.0547 20.4229 36.7734C20.3525 41.0977 22.04 45.1758 25.0986 48.2344C36.4893 59.625 49.5674 69.0117 64.0166 76.1484L70.7666 79.4883C71.1533 79.6992 70.9072 80.2617 70.4854 80.1211L63.3838 77.7305C48.126 72.5625 32.2354 69.9609 16.1338 69.9609C11.8799 69.9609 7.87207 71.6133 4.88379 74.6367C-1.33887 80.8594 -1.33887 90.9492 4.88379 97.1719C7.90723 100.195 11.8799 101.848 16.1338 101.848C32.2354 101.848 48.126 99.2461 63.3838 94.0781L70.4854 91.6875C70.9072 91.5469 71.1533 92.1445 70.7666 92.3203L64.0166 95.6601C49.5674 102.797 36.4893 112.184 25.0986 123.574C22.1104 126.563 20.458 130.465 20.4229 134.613C20.3174 143.332 27.4189 150.609 36.1377 150.75C40.4619 150.82 44.54 149.133 47.5986 146.074C58.9893 134.684 68.376 121.605 75.5127 107.156L78.8525 100.406C79.0635 100.02 79.626 100.266 79.4853 100.688L77.0947 107.789C71.9268 123.047 69.3252 138.938 69.3252 155.039C69.3252 159.293 70.9775 163.301 74.001 166.289C77.0244 169.313 80.9971 170.965 85.251 170.965C89.5049 170.965 93.5127 169.313 96.501 166.289C99.5244 163.266 101.177 159.293 101.177 155.039C101.177 138.938 98.5752 123.047 93.4072 107.789L91.0166 100.688C90.876 100.266 91.4736 100.02 91.6494 100.406L94.9893 107.156C102.126 121.605 111.513 134.684 122.903 146.074C125.892 149.063 129.794 150.715 133.942 150.75C142.661 150.855 149.938 143.754 150.079 135.035C150.149 130.711 148.462 126.633 145.403 123.574C134.013 112.184 120.935 102.797 106.485 95.6601L99.7353 92.3203C99.3486 92.1094 99.5947 91.5469 100.017 91.6875L107.118 94.0781C122.376 99.2461 138.267 101.848 154.368 101.848C158.622 101.848 162.63 100.195 165.618 97.1719C171.841 90.9492 171.841 80.8242 165.618 74.6367Z" fill="#D9D9D9"/>
</svg>
