<svg width="152" height="31" viewBox="0 0 152 31" fill="none" xmlns="http://www.w3.org/2000/svg">
<g clip-path="url(#clip0_236_4396)">
<path fill-rule="evenodd" clip-rule="evenodd" d="M19.1668 9.63507C17.9334 8.81097 16.4834 8.37109 15 8.37109V0.871094C17.9667 0.871094 20.8668 1.75083 23.3335 3.39905C25.8003 5.04727 27.7229 7.38995 28.8582 10.1308C29.9935 12.8717 30.2906 15.8877 29.7118 18.7974C29.133 21.7071 27.7044 24.3799 25.6066 26.4777C23.5088 28.5755 20.8361 30.0041 17.9263 30.5829C15.0167 31.1616 12.0006 30.8646 9.25973 29.7293C6.51885 28.5939 4.17617 26.6714 2.52796 24.2046C0.879735 21.7379 0 18.8378 0 15.8711H7.5C7.5 17.3544 7.93988 18.8045 8.76398 20.0379C9.58807 21.2712 10.7594 22.2325 12.1299 22.8002C13.5003 23.3679 15.0083 23.5164 16.4632 23.2269C17.918 22.9376 19.2544 22.2233 20.3033 21.1744C21.3522 20.1255 22.0665 18.7891 22.3559 17.3343C22.6453 15.8794 22.4968 14.3714 21.9291 13.001C21.3614 11.6305 20.4002 10.4592 19.1668 9.63507Z" fill="#F7F3ED"/>
<path fill-rule="evenodd" clip-rule="evenodd" d="M7.5 0.871098C7.5 1.85601 7.30601 2.83128 6.9291 3.74123C6.55218 4.65116 5.99974 5.47796 5.3033 6.1744C4.60686 6.87084 3.78007 7.42328 2.87013 7.8002C1.96018 8.1771 0.984911 8.3711 3.27832e-07 8.3711L0 15.8711C1.96983 15.8711 3.92037 15.4831 5.74026 14.7293C7.56015 13.9755 9.21375 12.8706 10.6066 11.4777C11.9995 10.0848 13.1044 8.43125 13.8582 6.61135C14.612 4.79146 15 2.84092 15 0.871094L7.5 0.871098Z" fill="#F7F3ED"/>
<path d="M94.2132 11.7109H90.5742V23.2702H94.2132V11.7109Z" fill="#F7F3ED"/>
<path d="M90.9811 9.54604C91.3613 9.92659 91.8368 10.1169 92.4076 10.1169C92.9783 10.1169 93.4463 9.92659 93.8108 9.54604C94.1761 9.14967 94.3583 8.67394 94.3583 8.11898C94.3583 7.54817 94.1761 7.07246 93.8108 6.69193C93.4463 6.31136 92.9783 6.12109 92.4076 6.12109C91.8368 6.12109 91.3613 6.31136 90.9811 6.69193C90.6158 7.07246 90.4336 7.54817 90.4336 8.11898C90.4336 8.67394 90.6158 9.14967 90.9811 9.54604Z" fill="#F7F3ED"/>
<path d="M38.3672 23.2684V6.47656H42.1014V19.9862H49.5459V23.2684H38.3672Z" fill="#F7F3ED"/>
<path fill-rule="evenodd" clip-rule="evenodd" d="M56.27 23.5317C55.0808 23.5317 54.0026 23.2701 53.0353 22.7468C52.0839 22.2077 51.3308 21.4784 50.7758 20.5586C50.2209 19.639 49.9434 18.6083 49.9434 17.4667C49.9434 16.325 50.2209 15.3023 50.7758 14.3985C51.3308 13.4947 52.0839 12.7811 53.0353 12.2579C53.9867 11.7188 55.065 11.4492 56.27 11.4492C57.4751 11.4492 58.5533 11.7109 59.5047 12.2341C60.456 12.7574 61.2093 13.4789 61.7642 14.3985C62.3192 15.3023 62.5967 16.325 62.5967 17.4667C62.5967 18.6083 62.3192 19.639 61.7642 20.5586C61.2093 21.4784 60.456 22.2077 59.5047 22.7468C58.5533 23.2701 57.4751 23.5317 56.27 23.5317ZM56.27 20.2257C56.7933 20.2257 57.2531 20.1147 57.6495 19.8927C58.0459 19.6549 58.3472 19.3298 58.5533 18.9176C58.7753 18.4895 58.8863 18.0058 58.8863 17.4667C58.8863 16.9276 58.7753 16.4598 58.5533 16.0634C58.3313 15.6512 58.0221 15.3341 57.6257 15.1121C57.2451 14.8742 56.7933 14.7553 56.27 14.7553C55.7626 14.7553 55.3107 14.8742 54.9143 15.1121C54.5179 15.3341 54.2087 15.6512 53.9867 16.0634C53.7647 16.4757 53.6538 16.9514 53.6538 17.4905C53.6538 18.0137 53.7647 18.4895 53.9867 18.9176C54.2087 19.3298 54.5179 19.6549 54.9143 19.8927C55.3107 20.1147 55.7626 20.2257 56.27 20.2257Z" fill="#F7F3ED"/>
<path fill-rule="evenodd" clip-rule="evenodd" d="M65.479 27.7888C66.4462 28.2328 67.564 28.4548 68.8326 28.4548C70.0693 28.4548 71.1714 28.209 72.1386 27.7174C73.1059 27.2259 73.8669 26.5441 74.4219 25.672C74.9768 24.7999 75.2547 23.7693 75.2547 22.58V11.7106H71.6866V12.4872C71.4213 12.2638 71.1199 12.0763 70.7829 11.9246C70.1644 11.6233 69.4588 11.4727 68.6661 11.4727C67.6037 11.4727 66.6602 11.7264 65.8357 12.2338C65.0111 12.7253 64.3611 13.4071 63.8854 14.2792C63.4096 15.1355 63.1719 16.1027 63.1719 17.181C63.1719 18.2434 63.4096 19.2106 63.8854 20.0827C64.3611 20.9548 65.0111 21.6445 65.8357 22.1519C66.6602 22.6593 67.6037 22.913 68.6661 22.913C69.443 22.913 70.1486 22.7624 70.7829 22.4611C71.0901 22.3152 71.3676 22.1432 71.6153 21.9451V22.6752C71.6153 23.4838 71.3537 24.1102 70.8304 24.5542C70.3231 24.9982 69.6174 25.2201 68.7136 25.2201C67.9843 25.2201 67.3579 25.0933 66.8346 24.8395C66.3273 24.5859 65.8674 24.2132 65.4551 23.7217L63.2194 25.9574C63.7744 26.7502 64.5276 27.3607 65.479 27.7888ZM70.6639 19.3453C70.2992 19.5673 69.8632 19.6783 69.3558 19.6783C68.8484 19.6783 68.4044 19.5673 68.0238 19.3453C67.6591 19.1233 67.3737 18.8221 67.1676 18.4415C66.9615 18.0451 66.8584 17.6249 66.8584 17.181C66.8584 16.7053 66.9615 16.2772 67.1676 15.8966C67.3737 15.5161 67.6671 15.2148 68.0476 14.9928C68.4282 14.7708 68.8642 14.6598 69.3558 14.6598C69.8632 14.6598 70.2992 14.7708 70.6639 14.9928C71.0445 15.2148 71.3299 15.5161 71.5202 15.8966C71.7263 16.2772 71.8294 16.7053 71.8294 17.181C71.8294 17.6566 71.7263 18.0847 71.5202 18.4653C71.3299 18.83 71.0445 19.1233 70.6639 19.3453Z" fill="#F7F3ED"/>
<path fill-rule="evenodd" clip-rule="evenodd" d="M82.9129 23.5317C81.7234 23.5317 80.6449 23.2701 79.6782 22.7468C78.7264 22.2077 77.9734 21.4784 77.4184 20.5586C76.8634 19.639 76.5859 18.6083 76.5859 17.4667C76.5859 16.325 76.8634 15.3023 77.4184 14.3985C77.9734 13.4947 78.7264 12.7811 79.6782 12.2579C80.6292 11.7188 81.7077 11.4492 82.9129 11.4492C84.1174 11.4492 85.1959 11.7109 86.1469 12.2341C87.0987 12.7574 87.8517 13.4789 88.4067 14.3985C88.9617 15.3023 89.2392 16.325 89.2392 17.4667C89.2392 18.6083 88.9617 19.639 88.4067 20.5586C87.8517 21.4784 87.0987 22.2077 86.1469 22.7468C85.1959 23.2701 84.1174 23.5317 82.9129 23.5317ZM82.9129 20.2257C83.4357 20.2257 83.8954 20.1147 84.2922 19.8927C84.6882 19.6549 84.9897 19.3298 85.1959 18.9176C85.4179 18.4895 85.5289 18.0058 85.5289 17.4667C85.5289 16.9276 85.4179 16.4598 85.1959 16.0634C84.9739 15.6512 84.6649 15.3341 84.2682 15.1121C83.8879 14.8742 83.4357 14.7553 82.9129 14.7553C82.4052 14.7553 81.9529 14.8742 81.5569 15.1121C81.1602 15.3341 80.8512 15.6512 80.6292 16.0634C80.4072 16.4757 80.2962 16.9514 80.2962 17.4905C80.2962 18.0137 80.4072 18.4895 80.6292 18.9176C80.8512 19.3298 81.1602 19.6549 81.5569 19.8927C81.9529 20.1147 82.4052 20.2257 82.9129 20.2257Z" fill="#F7F3ED"/>
<path fill-rule="evenodd" clip-rule="evenodd" d="M102.962 23.5076C102.186 23.5076 101.472 23.357 100.821 23.0557C100.479 22.8972 100.17 22.7079 99.8945 22.4878V28.1456H96.3027V11.7106H99.9417V12.5083C100.206 12.2924 100.499 12.1057 100.821 11.9484C101.472 11.6312 102.186 11.4727 102.962 11.4727C104.056 11.4727 105.024 11.7343 105.864 12.2576C106.72 12.7808 107.386 13.4944 107.862 14.3982C108.354 15.302 108.599 16.3327 108.599 17.4901C108.599 18.6477 108.354 19.6783 107.862 20.5822C107.386 21.486 106.72 22.1995 105.864 22.7227C105.024 23.246 104.056 23.5076 102.962 23.5076ZM102.297 20.2254C102.819 20.2254 103.272 20.1064 103.652 19.8686C104.049 19.6308 104.358 19.3057 104.58 18.8935C104.802 18.4812 104.913 18.0134 104.913 17.4901C104.913 16.951 104.802 16.4754 104.58 16.0631C104.358 15.6508 104.049 15.3337 103.652 15.1117C103.272 14.8738 102.828 14.755 102.32 14.755C101.813 14.755 101.361 14.8738 100.965 15.1117C100.584 15.3337 100.283 15.6508 100.061 16.0631C99.839 16.4754 99.728 16.951 99.728 17.4901C99.728 18.0134 99.8307 18.4812 100.037 18.8935C100.259 19.3057 100.568 19.6308 100.965 19.8686C101.361 20.1064 101.805 20.2254 102.297 20.2254Z" fill="#F7F3ED"/>
<path d="M112.159 23.2949C112.825 23.4694 113.499 23.5565 114.18 23.5565C115.623 23.5565 116.765 23.2236 117.606 22.5576C118.461 21.8917 118.89 20.9958 118.89 19.87C118.89 19.1406 118.755 18.5539 118.485 18.1099C118.216 17.6501 117.867 17.2854 117.439 17.0158C117.011 16.7463 116.559 16.5322 116.083 16.3736C115.608 16.2151 115.155 16.0803 114.728 15.9693C114.3 15.8583 113.951 15.7315 113.681 15.5887C113.412 15.446 113.277 15.2557 113.277 15.0179C113.277 14.7959 113.38 14.6294 113.586 14.5184C113.792 14.3916 114.101 14.3282 114.513 14.3282C114.942 14.3282 115.377 14.4154 115.821 14.5898C116.281 14.7642 116.694 15.0655 117.058 15.4936L119.127 13.4006C118.605 12.7346 117.923 12.2351 117.082 11.9022C116.258 11.5534 115.354 11.3789 114.371 11.3789C113.436 11.3789 112.619 11.5375 111.921 11.8546C111.223 12.1717 110.684 12.6078 110.304 13.1627C109.923 13.7018 109.733 14.344 109.733 15.0893C109.733 15.787 109.868 16.3657 110.137 16.8256C110.406 17.2695 110.756 17.6184 111.183 17.872C111.612 18.1258 112.064 18.324 112.539 18.4666C113.015 18.6094 113.467 18.7441 113.895 18.871C114.323 18.982 114.672 19.1168 114.942 19.2754C115.227 19.4181 115.37 19.6321 115.37 19.9175C115.37 20.1395 115.251 20.3139 115.013 20.4408C114.791 20.5676 114.466 20.6311 114.038 20.6311C113.419 20.6311 112.848 20.5201 112.326 20.2981C111.802 20.0602 111.35 19.7352 110.97 19.3229L108.9 21.4159C109.297 21.844 109.773 22.2247 110.328 22.5576C110.898 22.8747 111.509 23.1205 112.159 23.2949Z" fill="#F7F3ED"/>
<path d="M125.526 23.5318C124.464 23.5318 123.521 23.3177 122.696 22.8896C121.887 22.4456 121.253 21.8431 120.794 21.082C120.333 20.305 120.104 19.4171 120.104 18.4181V11.7109H123.743V18.3706C123.743 18.7669 123.806 19.1079 123.933 19.3933C124.076 19.6787 124.282 19.9007 124.551 20.0593C124.821 20.2178 125.146 20.2971 125.526 20.2971C126.065 20.2971 126.494 20.1306 126.811 19.7976C127.128 19.4488 127.286 18.9731 127.286 18.3706V11.7109H130.925V18.3943C130.925 19.4092 130.696 20.305 130.235 21.082C129.776 21.8431 129.142 22.4456 128.333 22.8896C127.524 23.3177 126.589 23.5318 125.526 23.5318Z" fill="#F7F3ED"/>
<path d="M136.373 11.7106H132.734V23.2698H136.373V16.515C136.373 16.1186 136.453 15.7856 136.611 15.5161C136.786 15.2465 137.016 15.0403 137.301 14.8977C137.587 14.7391 137.912 14.6598 138.276 14.6598C138.8 14.6598 139.235 14.8263 139.584 15.1593C139.949 15.4764 140.132 15.9283 140.132 16.515V23.2698H143.771V16.515C143.771 16.1186 143.85 15.7856 144.008 15.5161C144.183 15.2465 144.413 15.0403 144.698 14.8977C144.983 14.7391 145.309 14.6598 145.673 14.6598C146.197 14.6598 146.633 14.8263 146.981 15.1593C147.346 15.4764 147.528 15.9283 147.528 16.515V23.2698H151.168V16.1107C151.168 15.1435 150.962 14.3189 150.549 13.6371C150.152 12.9394 149.606 12.4082 148.908 12.0436C148.226 11.6629 147.441 11.4727 146.553 11.4727C145.649 11.4727 144.833 11.6709 144.104 12.0673C143.63 12.3199 143.216 12.6458 142.861 13.0451C142.53 12.6274 142.128 12.2857 141.653 12.0197C141.02 11.6551 140.298 11.4727 139.49 11.4727C138.633 11.4727 137.864 11.6551 137.183 12.0197C136.886 12.1714 136.616 12.3532 136.373 12.5649V11.7106Z" fill="#F7F3ED"/>
</g>
<defs>
<clipPath id="clip0_236_4396">
<rect width="151.5" height="30" fill="white" transform="translate(0 0.871094)"/>
</clipPath>
</defs>
</svg>
