<svg width="152" height="30" viewBox="0 0 152 30" fill="none" xmlns="http://www.w3.org/2000/svg">
<g clip-path="url(#clip0_229_29822)">
<path fill-rule="evenodd" clip-rule="evenodd" d="M19.1668 8.76398C17.9334 7.93988 16.4834 7.5 15 7.5V0C17.9667 0 20.8668 0.879735 23.3335 2.52796C25.8003 4.17617 27.7229 6.51886 28.8582 9.25973C29.9935 12.0006 30.2906 15.0167 29.7118 17.9263C29.133 20.8361 27.7044 23.5088 25.6066 25.6066C23.5088 27.7044 20.8361 29.133 17.9263 29.7118C15.0167 30.2906 12.0006 29.9935 9.25973 28.8582C6.51885 27.7229 4.17617 25.8003 2.52796 23.3335C0.879735 20.8668 0 17.9667 0 15H7.5C7.5 16.4834 7.93988 17.9334 8.76398 19.1668C9.58807 20.4002 10.7594 21.3614 12.1299 21.9291C13.5003 22.4968 15.0083 22.6453 16.4632 22.3559C17.918 22.0665 19.2544 21.3522 20.3033 20.3033C21.3522 19.2544 22.0665 17.918 22.3559 16.4632C22.6453 15.0083 22.4968 13.5003 21.9291 12.1299C21.3614 10.7594 20.4002 9.58807 19.1668 8.76398Z" fill="#5A5044"/>
<path fill-rule="evenodd" clip-rule="evenodd" d="M7.5 3.9637e-06C7.5 0.984918 7.30601 1.96019 6.9291 2.87013C6.55218 3.78007 5.99974 4.60686 5.3033 5.30331C4.60686 5.99975 3.78007 6.55219 2.87013 6.9291C1.96018 7.30601 0.984911 7.5 3.27832e-07 7.5L0 15C1.96983 15 3.92037 14.612 5.74026 13.8582C7.56015 13.1044 9.21375 11.9995 10.6066 10.6066C11.9995 9.21375 13.1044 7.56015 13.8582 5.74026C14.612 3.92037 15 1.96983 15 0L7.5 3.9637e-06Z" fill="#5A5044"/>
<path d="M94.2132 10.8398H90.5742V22.3991H94.2132V10.8398Z" fill="#5A5044"/>
<path d="M90.9772 8.67495C91.3574 9.0555 91.8329 9.24577 92.4037 9.24577C92.9744 9.24577 93.4424 9.0555 93.8069 8.67495C94.1722 8.27857 94.3544 7.80285 94.3544 7.24789C94.3544 6.67708 94.1722 6.20137 93.8069 5.82083C93.4424 5.44027 92.9744 5.25 92.4037 5.25C91.8329 5.25 91.3574 5.44027 90.9772 5.82083C90.6119 6.20137 90.4297 6.67708 90.4297 7.24789C90.4297 7.80285 90.6119 8.27857 90.9772 8.67495Z" fill="#5A5044"/>
<path d="M38.3672 22.3973V5.60547H42.1014V19.1151H49.5459V22.3973H38.3672Z" fill="#5A5044"/>
<path fill-rule="evenodd" clip-rule="evenodd" d="M56.2719 22.6606C55.0827 22.6606 54.0045 22.399 53.0373 21.8758C52.0859 21.3367 51.3327 20.6073 50.7777 19.6876C50.2228 18.7679 49.9453 17.7373 49.9453 16.5956C49.9453 15.4539 50.2228 14.4312 50.7777 13.5274C51.3327 12.6236 52.0859 11.9101 53.0373 11.3869C53.9886 10.8477 55.0669 10.5781 56.2719 10.5781C57.477 10.5781 58.5552 10.8398 59.5066 11.363C60.458 11.8863 61.2112 12.6078 61.7661 13.5274C62.3211 14.4312 62.5986 15.4539 62.5986 16.5956C62.5986 17.7373 62.3211 18.7679 61.7661 19.6876C61.2112 20.6073 60.458 21.3367 59.5066 21.8758C58.5552 22.399 57.477 22.6606 56.2719 22.6606ZM56.2719 19.3546C56.7952 19.3546 57.255 19.2436 57.6515 19.0216C58.0479 18.7838 58.3491 18.4587 58.5552 18.0465C58.7772 17.6184 58.8882 17.1347 58.8882 16.5956C58.8882 16.0565 58.7772 15.5887 58.5552 15.1923C58.3332 14.7801 58.0241 14.463 57.6276 14.241C57.2471 14.0031 56.7952 13.8842 56.2719 13.8842C55.7646 13.8842 55.3127 14.0031 54.9162 14.241C54.5199 14.463 54.2106 14.7801 53.9886 15.1923C53.7666 15.6046 53.6557 16.0803 53.6557 16.6194C53.6557 17.1427 53.7666 17.6184 53.9886 18.0465C54.2106 18.4587 54.5199 18.7838 54.9162 19.0216C55.3127 19.2436 55.7646 19.3546 56.2719 19.3546Z" fill="#5A5044"/>
<path fill-rule="evenodd" clip-rule="evenodd" d="M65.479 26.9177C66.4462 27.3617 67.564 27.5837 68.8326 27.5837C70.0693 27.5837 71.1714 27.3379 72.1386 26.8463C73.1059 26.3548 73.8669 25.673 74.4219 24.8009C74.9768 23.9288 75.2547 22.8982 75.2547 21.7089V10.8395H71.6866V11.6161C71.4213 11.3927 71.1199 11.2052 70.7829 11.0535C70.1644 10.7522 69.4588 10.6016 68.6661 10.6016C67.6037 10.6016 66.6602 10.8553 65.8357 11.3627C65.0111 11.8542 64.3611 12.536 63.8854 13.4081C63.4096 14.2644 63.1719 15.2316 63.1719 16.3099C63.1719 17.3723 63.4096 18.3395 63.8854 19.2116C64.3611 20.0837 65.0111 20.7734 65.8357 21.2808C66.6602 21.7882 67.6037 22.0419 68.6661 22.0419C69.443 22.0419 70.1486 21.8913 70.7829 21.59C71.0901 21.4441 71.3676 21.2721 71.6153 21.074V21.8041C71.6153 22.6127 71.3537 23.2391 70.8304 23.6831C70.3231 24.1271 69.6174 24.349 68.7136 24.349C67.9843 24.349 67.3579 24.2222 66.8346 23.9684C66.3273 23.7148 65.8674 23.3421 65.4551 22.8506L63.2194 25.0863C63.7744 25.8791 64.5276 26.4896 65.479 26.9177ZM70.6639 18.4742C70.2992 18.6962 69.8632 18.8072 69.3558 18.8072C68.8484 18.8072 68.4044 18.6962 68.0238 18.4742C67.6591 18.2522 67.3737 17.951 67.1676 17.5704C66.9615 17.174 66.8584 16.7538 66.8584 16.3099C66.8584 15.8342 66.9615 15.4061 67.1676 15.0255C67.3737 14.645 67.6671 14.3437 68.0476 14.1217C68.4282 13.8997 68.8642 13.7887 69.3558 13.7887C69.8632 13.7887 70.2992 13.8997 70.6639 14.1217C71.0445 14.3437 71.3299 14.645 71.5202 15.0255C71.7263 15.4061 71.8294 15.8342 71.8294 16.3099C71.8294 16.7855 71.7263 17.2136 71.5202 17.5942C71.3299 17.9589 71.0445 18.2522 70.6639 18.4742Z" fill="#5A5044"/>
<path fill-rule="evenodd" clip-rule="evenodd" d="M82.9168 22.6606C81.7273 22.6606 80.6488 22.399 79.6821 21.8758C78.7303 21.3367 77.9773 20.6073 77.4223 19.6876C76.8673 18.7679 76.5898 17.7373 76.5898 16.5956C76.5898 15.4539 76.8673 14.4312 77.4223 13.5274C77.9773 12.6236 78.7303 11.9101 79.6821 11.3869C80.6331 10.8477 81.7116 10.5781 82.9168 10.5781C84.1213 10.5781 85.1998 10.8398 86.1508 11.363C87.1026 11.8863 87.8556 12.6078 88.4106 13.5274C88.9656 14.4312 89.2431 15.4539 89.2431 16.5956C89.2431 17.7373 88.9656 18.7679 88.4106 19.6876C87.8556 20.6073 87.1026 21.3367 86.1508 21.8758C85.1998 22.399 84.1213 22.6606 82.9168 22.6606ZM82.9168 19.3546C83.4396 19.3546 83.8993 19.2436 84.2961 19.0216C84.6921 18.7838 84.9936 18.4587 85.1998 18.0465C85.4218 17.6184 85.5328 17.1347 85.5328 16.5956C85.5328 16.0565 85.4218 15.5887 85.1998 15.1923C84.9778 14.7801 84.6688 14.463 84.2721 14.241C83.8918 14.0031 83.4396 13.8842 82.9168 13.8842C82.4091 13.8842 81.9568 14.0031 81.5608 14.241C81.1641 14.463 80.8551 14.7801 80.6331 15.1923C80.4111 15.6046 80.3001 16.0803 80.3001 16.6194C80.3001 17.1427 80.4111 17.6184 80.6331 18.0465C80.8551 18.4587 81.1641 18.7838 81.5608 19.0216C81.9568 19.2436 82.4091 19.3546 82.9168 19.3546Z" fill="#5A5044"/>
<path fill-rule="evenodd" clip-rule="evenodd" d="M102.96 22.6365C102.184 22.6365 101.47 22.4859 100.82 22.1846C100.478 22.0261 100.169 21.8368 99.8925 21.6167V27.2745H96.3008V10.8395H99.9398V11.6372C100.204 11.4213 100.497 11.2346 100.82 11.0773C101.47 10.7601 102.184 10.6016 102.96 10.6016C104.054 10.6016 105.022 10.8632 105.862 11.3865C106.718 11.9097 107.384 12.6233 107.86 13.5271C108.352 14.4309 108.597 15.4616 108.597 16.619C108.597 17.7766 108.352 18.8072 107.86 19.7111C107.384 20.6149 106.718 21.3284 105.862 21.8516C105.022 22.3749 104.054 22.6365 102.96 22.6365ZM102.295 19.3543C102.818 19.3543 103.27 19.2353 103.65 18.9975C104.047 18.7597 104.356 18.4346 104.578 18.0224C104.8 17.6101 104.911 17.1423 104.911 16.619C104.911 16.0799 104.8 15.6043 104.578 15.192C104.356 14.7797 104.047 14.4626 103.65 14.2406C103.27 14.0027 102.826 13.8839 102.318 13.8839C101.811 13.8839 101.359 14.0027 100.963 14.2406C100.582 14.4626 100.281 14.7797 100.059 15.192C99.837 15.6043 99.726 16.0799 99.726 16.619C99.726 17.1423 99.8288 17.6101 100.035 18.0224C100.257 18.4346 100.566 18.7597 100.963 18.9975C101.359 19.2353 101.803 19.3543 102.295 19.3543Z" fill="#5A5044"/>
<path d="M112.157 22.4238C112.823 22.5983 113.497 22.6854 114.178 22.6854C115.621 22.6854 116.763 22.3525 117.604 21.6865C118.459 21.0206 118.888 20.1247 118.888 18.9989C118.888 18.2695 118.753 17.6828 118.483 17.2388C118.214 16.779 117.865 16.4143 117.437 16.1447C117.009 15.8752 116.557 15.6611 116.081 15.5025C115.606 15.344 115.153 15.2092 114.726 15.0982C114.298 14.9872 113.949 14.8604 113.679 14.7176C113.41 14.5749 113.275 14.3846 113.275 14.1468C113.275 13.9248 113.378 13.7583 113.584 13.6473C113.79 13.5205 114.099 13.4571 114.511 13.4571C114.94 13.4571 115.375 13.5443 115.819 13.7187C116.279 13.8931 116.692 14.1944 117.056 14.6225L119.125 12.5295C118.603 11.8635 117.921 11.364 117.08 11.0311C116.256 10.6823 115.352 10.5078 114.369 10.5078C113.434 10.5078 112.617 10.6664 111.919 10.9835C111.221 11.3006 110.682 11.7367 110.302 12.2916C109.921 12.8307 109.731 13.4729 109.731 14.2182C109.731 14.9159 109.866 15.4946 110.135 15.9545C110.404 16.3984 110.754 16.7473 111.181 17.0009C111.61 17.2547 112.062 17.4529 112.537 17.5955C113.013 17.7383 113.465 17.873 113.893 17.9999C114.321 18.1109 114.67 18.2457 114.94 18.4043C115.225 18.547 115.368 18.761 115.368 19.0464C115.368 19.2684 115.249 19.4428 115.011 19.5697C114.789 19.6965 114.464 19.76 114.036 19.76C113.417 19.76 112.846 19.649 112.324 19.427C111.8 19.1891 111.348 18.8641 110.968 18.4518L108.898 20.5448C109.295 20.9729 109.771 21.3536 110.326 21.6865C110.896 22.0036 111.507 22.2494 112.157 22.4238Z" fill="#5A5044"/>
<path d="M125.524 22.6607C124.462 22.6607 123.519 22.4466 122.694 22.0185C121.885 21.5745 121.251 20.972 120.792 20.2109C120.331 19.4339 120.102 18.546 120.102 17.547V10.8398H123.741V17.4995C123.741 17.8958 123.804 18.2368 123.931 18.5222C124.074 18.8076 124.28 19.0296 124.549 19.1882C124.819 19.3467 125.144 19.426 125.524 19.426C126.063 19.426 126.492 19.2595 126.809 18.9265C127.126 18.5777 127.284 18.102 127.284 17.4995V10.8398H130.923V17.5232C130.923 18.5381 130.694 19.4339 130.233 20.2109C129.774 20.972 129.14 21.5745 128.331 22.0185C127.522 22.4466 126.587 22.6607 125.524 22.6607Z" fill="#5A5044"/>
<path d="M136.373 10.8395H132.734V22.3987H136.373V15.6439C136.373 15.2475 136.453 14.9145 136.611 14.645C136.786 14.3754 137.016 14.1692 137.301 14.0266C137.587 13.868 137.912 13.7887 138.276 13.7887C138.8 13.7887 139.235 13.9552 139.584 14.2882C139.949 14.6053 140.132 15.0572 140.132 15.6439V22.3987H143.771V15.6439C143.771 15.2475 143.85 14.9145 144.008 14.645C144.183 14.3754 144.413 14.1692 144.698 14.0266C144.983 13.868 145.309 13.7887 145.673 13.7887C146.197 13.7887 146.633 13.9552 146.981 14.2882C147.346 14.6053 147.528 15.0572 147.528 15.6439V22.3987H151.168V15.2396C151.168 14.2724 150.962 13.4478 150.549 12.766C150.152 12.0683 149.606 11.5371 148.908 11.1725C148.226 10.7918 147.441 10.6016 146.553 10.6016C145.649 10.6016 144.833 10.7998 144.104 11.1962C143.63 11.4488 143.216 11.7747 142.861 12.174C142.53 11.7563 142.128 11.4146 141.653 11.1486C141.02 10.784 140.298 10.6016 139.49 10.6016C138.633 10.6016 137.864 10.784 137.183 11.1486C136.886 11.3003 136.616 11.4821 136.373 11.6938V10.8395Z" fill="#5A5044"/>
</g>
<defs>
<clipPath id="clip0_229_29822">
<rect width="151.5" height="30" fill="white"/>
</clipPath>
</defs>
</svg>
