<svg width="181" height="181" viewBox="0 0 181 181" fill="none" xmlns="http://www.w3.org/2000/svg">
<circle cx="90.5" cy="90.3711" r="90" fill="#8E714F"/>
<path d="M96.7535 26.1586C95.5243 26.0166 94.4913 25.6278 93.6545 24.9922C92.819 24.3447 92.2143 23.5143 91.8403 22.501C91.4795 21.4772 91.3721 20.333 91.5182 19.0683C91.6657 17.7919 92.0311 16.7023 92.6145 15.7995C93.211 14.8863 93.9899 14.2098 94.9509 13.7699C95.912 13.33 97.0071 13.181 98.2363 13.323C99.7255 13.4951 100.895 14.0014 101.744 14.8421C102.594 15.6709 103.067 16.7615 103.162 18.114L100.822 17.8436C100.737 17.1272 100.458 16.538 99.9843 16.076C99.5225 15.6155 98.8602 15.3354 97.9974 15.2357C97.2173 15.1456 96.5225 15.2509 95.9128 15.5518C95.3045 15.8408 94.8071 16.3103 94.4206 16.9604C94.0355 17.5986 93.789 18.3845 93.6812 19.3182C93.5733 20.2519 93.6341 21.0734 93.8636 21.7826C94.0944 22.48 94.4723 23.0446 94.9973 23.4765C95.5237 23.8967 96.1769 24.1518 96.9569 24.2419C97.8197 24.3416 98.5264 24.2376 99.077 23.9299C99.6407 23.6117 100.038 23.1306 100.268 22.4865L102.626 22.7589C102.233 23.9831 101.528 24.9017 100.511 25.5148C99.4951 26.1161 98.2427 26.3307 96.7535 26.1586Z" fill="#F7F3ED"/>
<path d="M110.07 29.0204C109.271 28.7476 108.608 28.314 108.082 27.7196C107.567 27.129 107.237 26.4381 107.092 25.647C106.947 24.8558 107.022 24.0267 107.318 23.1597C107.618 22.2814 108.067 21.5734 108.665 21.0359C109.275 20.5021 109.964 20.159 110.732 20.0064C111.512 19.8576 112.302 19.9196 113.101 20.1924C113.912 20.469 114.575 20.9027 115.09 21.4932C115.616 22.0877 115.952 22.7805 116.097 23.5716C116.246 24.3515 116.168 25.1862 115.865 26.0758C115.569 26.9428 115.116 27.6432 114.507 28.177C113.909 28.7145 113.219 29.0577 112.44 29.2065C111.671 29.3591 110.881 29.297 110.07 29.0204ZM110.664 27.2807C111.069 27.419 111.47 27.4425 111.866 27.3513C112.273 27.2638 112.645 27.0576 112.982 26.7327C113.33 26.4116 113.606 25.9526 113.81 25.3558C114.01 24.7703 114.076 24.2459 114.007 23.7826C113.939 23.3193 113.771 22.9287 113.502 22.6108C113.245 22.2967 112.913 22.0705 112.508 21.9321C112.125 21.8015 111.73 21.7799 111.323 21.8673C110.916 21.9548 110.544 22.161 110.207 22.4859C109.87 22.8109 109.599 23.2718 109.396 23.8686C109.2 24.4428 109.134 24.9672 109.198 25.4418C109.267 25.905 109.429 26.2937 109.687 26.6078C109.955 26.9258 110.281 27.1501 110.664 27.2807Z" fill="#F7F3ED"/>
<path d="M118.285 31.9147L122.729 24.1973L124.384 25.1502L123.76 26.5206C124.268 26.2094 124.821 26.0475 125.419 26.0347C126.027 26.0278 126.63 26.1966 127.228 26.541C127.867 26.9091 128.332 27.3548 128.621 27.8782C128.915 28.3912 129.033 28.9738 128.973 29.6259C128.914 30.278 128.667 30.9803 128.234 31.733L125.678 36.1717L123.822 35.103L126.271 30.8499C126.657 30.1797 126.809 29.5811 126.728 29.054C126.658 28.5328 126.334 28.106 125.757 27.7735C125.385 27.5597 124.997 27.4596 124.591 27.473C124.185 27.4864 123.797 27.6128 123.425 27.8521C123.07 28.087 122.75 28.452 122.465 28.9469L120.141 32.9834L118.285 31.9147Z" fill="#F7F3ED"/>
<path d="M131.925 40.9216C131.455 40.537 131.106 40.1278 130.877 39.694C130.657 39.2677 130.59 38.8052 130.676 38.3063C130.771 37.815 131.056 37.2794 131.531 36.6997L134.133 33.5248L132.946 32.552L134.077 31.1716L135.264 32.1444L136.925 30.4831L138.388 31.6822L136.907 33.4905L138.798 35.0402L137.666 36.4206L135.789 34.8822L133.187 38.0571C132.901 38.4068 132.775 38.711 132.809 38.9697C132.85 39.2192 133.051 39.491 133.41 39.7851L134.252 40.4751L133.098 41.8831L131.925 40.9216Z" fill="#F7F3ED"/>
<path d="M137.821 46.7965C137.332 46.2445 137.015 45.707 136.869 45.1841C136.733 44.6533 136.737 44.1647 136.882 43.7183C137.036 43.264 137.3 42.8712 137.674 42.5398C138.092 42.1689 138.552 41.9522 139.053 41.8897C139.562 41.8362 140.09 41.9481 140.638 42.2256C141.195 42.4952 141.75 42.9417 142.302 43.565L143.805 45.2613C144.153 44.9535 144.395 44.6436 144.531 44.3316C144.676 44.0285 144.716 43.7233 144.65 43.4159C144.584 43.1085 144.409 42.7945 144.125 42.474C143.802 42.1089 143.432 41.8717 143.018 41.7624C142.62 41.6541 142.228 41.7147 141.844 41.9444L140.447 40.3683C140.975 39.9956 141.531 39.7889 142.115 39.7483C142.707 39.7166 143.294 39.8405 143.875 40.12C144.457 40.3995 144.98 40.802 145.446 41.3273C145.998 41.9507 146.36 42.5836 146.532 43.2261C146.721 43.8696 146.718 44.4846 146.522 45.0712C146.335 45.6667 145.956 46.217 145.386 46.722L141.272 50.3677L140.065 49.0053L140.991 47.8981C140.743 47.959 140.48 47.9852 140.203 47.9769C139.933 47.9775 139.661 47.94 139.388 47.8645C139.123 47.7811 138.857 47.6513 138.589 47.475C138.33 47.3076 138.074 47.0815 137.821 46.7965ZM139.41 46.0327C139.639 46.2909 139.888 46.483 140.159 46.6089C140.438 46.7269 140.726 46.7822 141.021 46.7747C141.317 46.7672 141.607 46.7089 141.891 46.5997C142.184 46.4993 142.458 46.3515 142.715 46.1563L142.728 46.1444L141.414 44.6618C141.13 44.3413 140.857 44.1141 140.596 43.9803C140.342 43.8554 140.1 43.8072 139.871 43.8355C139.659 43.8648 139.463 43.9584 139.285 44.1162C139.098 44.2819 138.977 44.4684 138.923 44.6759C138.868 44.8833 138.88 45.1031 138.959 45.3354C139.054 45.5688 139.205 45.8012 139.41 46.0327Z" fill="#F7F3ED"/>
<path d="M145.782 57.3233C145.321 56.559 145.081 55.78 145.061 54.9863C145.052 54.1864 145.241 53.4403 145.63 52.7479C146.029 52.0493 146.62 51.4637 147.405 50.991C148.2 50.5121 148.994 50.2627 149.788 50.243C150.592 50.217 151.34 50.3983 152.032 50.7868C152.735 51.1692 153.316 51.7425 153.777 52.5069C154.36 53.4751 154.599 54.4357 154.492 55.3888C154.386 56.3419 153.952 57.166 153.19 57.8611L152.029 55.9349C152.361 55.6099 152.536 55.2198 152.554 54.7648C152.577 54.3199 152.457 53.8784 152.193 53.4402C151.966 53.0631 151.664 52.78 151.286 52.5909C150.918 52.3957 150.496 52.3168 150.018 52.3544C149.551 52.3859 149.063 52.5551 148.553 52.862C148.166 53.0953 147.85 53.355 147.606 53.6411C147.371 53.9211 147.203 54.2173 147.099 54.5296C147.002 54.8522 146.971 55.1696 147.006 55.4817C147.057 55.7979 147.166 56.0935 147.332 56.3687C147.51 56.6642 147.715 56.9016 147.948 57.0807C148.198 57.2639 148.463 57.3818 148.745 57.4344C149.043 57.491 149.338 57.4731 149.629 57.3808L150.79 59.3069C149.839 59.6432 148.91 59.6337 148.001 59.2782C147.099 58.9329 146.359 58.2813 145.782 57.3233Z" fill="#F7F3ED"/>
<path d="M151.189 67.7794C150.964 67.2157 150.856 66.6887 150.866 66.1982C150.88 65.7188 151.045 65.2815 151.361 64.8864C151.682 64.5024 152.19 64.1716 152.887 63.894L156.7 62.3741L156.131 60.9484L157.789 60.2876L158.358 61.7133L160.615 61.0631L161.316 62.8204L159.144 63.6861L160.049 65.9573L158.391 66.6181L157.493 64.3635L153.68 65.8834C153.26 66.0508 153.002 66.256 152.907 66.4989C152.823 66.7374 152.866 67.0722 153.038 67.5032L153.441 68.5145L151.75 69.1885L151.189 67.7794Z" fill="#F7F3ED"/>
<path d="M154.993 84.2494C154.903 83.3497 155 82.5151 155.282 81.7457C155.565 80.9881 156.052 80.3538 156.742 79.8426C157.434 79.3433 158.336 79.0383 159.449 78.9275L167.156 78.1602L167.368 80.2912L159.643 81.0603C158.968 81.1275 158.423 81.2954 158.008 81.564C157.592 81.8325 157.292 82.1793 157.107 82.6042C156.935 83.0398 156.877 83.5358 156.932 84.0922C156.989 84.6605 157.144 85.1353 157.397 85.5166C157.663 85.9086 158.026 86.1893 158.485 86.3588C158.945 86.5402 159.513 86.5972 160.188 86.5301L167.913 85.7609L168.125 87.892L160.418 88.6594C159.305 88.7702 158.36 88.6431 157.582 88.2781C156.804 87.9131 156.201 87.3754 155.771 86.6649C155.342 85.9544 155.082 85.1492 154.993 84.2494Z" fill="#F7F3ED"/>
<path d="M155.166 97.1187C155.237 96.3486 155.425 95.6789 155.728 95.1095C156.043 94.5411 156.442 94.1059 156.924 93.8039C157.417 93.5029 157.958 93.3436 158.545 93.3261L158.347 95.4764C158.104 95.5138 157.869 95.5997 157.642 95.734C157.425 95.8813 157.245 96.0798 157.103 96.3295C156.959 96.5911 156.871 96.8996 156.838 97.255C156.807 97.5986 156.828 97.8873 156.902 98.1211C156.988 98.3561 157.103 98.534 157.247 98.6548C157.403 98.7767 157.576 98.8464 157.765 98.8639C158.05 98.8901 158.27 98.8328 158.426 98.6919C158.583 98.551 158.716 98.3362 158.826 98.0477C158.947 97.7721 159.074 97.4373 159.206 97.0432C159.325 96.6599 159.462 96.2723 159.618 95.8804C159.772 95.5003 159.959 95.1591 160.178 94.8567C160.396 94.5662 160.656 94.3333 160.959 94.1581C161.273 93.9959 161.637 93.9339 162.052 93.9721C162.573 94.0202 163.029 94.1996 163.418 94.5103C163.818 94.834 164.113 95.2674 164.302 95.8105C164.49 96.3655 164.55 97.0044 164.484 97.7271C164.389 98.7578 164.07 99.5588 163.527 100.13C162.995 100.714 162.298 101.02 161.435 101.048L161.622 99.0224C161.959 98.9938 162.229 98.8514 162.432 98.5953C162.646 98.3521 162.773 98.0114 162.813 97.573C162.856 97.111 162.799 96.7533 162.643 96.4999C162.487 96.2466 162.273 96.1074 162.001 96.0822C161.823 96.0658 161.656 96.1281 161.5 96.269C161.343 96.4099 161.199 96.6176 161.066 96.8921C160.945 97.1677 160.825 97.4972 160.706 97.8805C160.516 98.5082 160.31 99.0627 160.086 99.5439C159.862 100.037 159.563 100.422 159.191 100.698C158.831 100.975 158.331 101.085 157.691 101.026C157.134 100.986 156.65 100.792 156.24 100.444C155.84 100.108 155.542 99.6565 155.343 99.0886C155.156 98.5217 155.097 97.8651 155.166 97.1187Z" fill="#F7F3ED"/>
<path d="M157.844 115.966L160.122 117.155L159.393 114.702L161.019 114.441L161.084 116.985L162.765 115.123L163.794 116.334L161.601 117.735L164.124 118.33L163.56 119.815L161.284 118.57L161.995 121.073L160.451 121.269L160.379 118.741L158.659 120.608L157.636 119.38L159.8 118.006L157.293 117.417L157.844 115.966Z" fill="#F7F3ED"/>
<path d="M141.745 131.731C142.507 130.756 143.377 130.077 144.356 129.694C145.344 129.319 146.368 129.236 147.428 129.445C148.489 129.671 149.522 130.176 150.525 130.96C151.537 131.751 152.276 132.631 152.743 133.599C153.211 134.584 153.382 135.602 153.257 136.651C153.131 137.701 152.687 138.713 151.925 139.688C151.002 140.869 149.96 141.603 148.8 141.889C147.65 142.182 146.472 142.017 145.269 141.394L146.719 139.537C147.375 139.839 148.023 139.907 148.664 139.744C149.298 139.59 149.883 139.171 150.417 138.487C150.901 137.868 151.173 137.22 151.235 136.543C151.305 135.873 151.164 135.204 150.81 134.535C150.467 133.874 149.924 133.254 149.184 132.675C148.443 132.096 147.711 131.72 146.986 131.546C146.27 131.379 145.592 131.407 144.949 131.63C144.316 131.86 143.758 132.285 143.275 132.903C142.74 133.588 142.46 134.245 142.436 134.875C142.413 135.522 142.617 136.112 143.046 136.644L141.585 138.514C140.745 137.54 140.329 136.46 140.336 135.272C140.352 134.092 140.822 132.912 141.745 131.731Z" fill="#F7F3ED"/>
<path d="M132.359 141.616C133.007 141.074 133.722 140.733 134.503 140.592C135.276 140.459 136.037 140.536 136.789 140.823C137.54 141.111 138.209 141.606 138.796 142.309C139.391 143.021 139.763 143.773 139.911 144.563C140.051 145.362 139.986 146.129 139.717 146.865C139.439 147.608 138.975 148.251 138.327 148.792C137.669 149.341 136.954 149.682 136.182 149.816C135.401 149.956 134.635 149.883 133.883 149.596C133.14 149.318 132.467 148.818 131.864 148.097C131.277 147.393 130.914 146.643 130.775 145.845C130.626 145.054 130.691 144.287 130.969 143.543C131.238 142.807 131.701 142.165 132.359 141.616ZM133.537 143.027C133.208 143.301 132.98 143.631 132.852 144.017C132.715 144.41 132.698 144.835 132.801 145.292C132.894 145.756 133.143 146.231 133.547 146.715C133.944 147.19 134.357 147.518 134.789 147.701C135.22 147.883 135.641 147.942 136.052 147.878C136.455 147.821 136.82 147.656 137.149 147.381C137.459 147.122 137.683 146.796 137.82 146.402C137.957 146.009 137.974 145.584 137.871 145.127C137.769 144.67 137.515 144.2 137.111 143.716C136.722 143.25 136.308 142.921 135.87 142.73C135.438 142.548 135.022 142.485 134.619 142.541C134.208 142.606 133.847 142.768 133.537 143.027Z" fill="#F7F3ED"/>
<path d="M125.621 147.14L129.916 154.941L128.243 155.862L127.395 154.618C127.398 155.214 127.249 155.771 126.95 156.289C126.641 156.813 126.184 157.241 125.58 157.574C124.933 157.929 124.312 158.095 123.714 158.071C123.123 158.057 122.564 157.856 122.037 157.467C121.51 157.077 121.037 156.502 120.619 155.742L118.148 151.255L120.024 150.222L122.391 154.521C122.764 155.198 123.197 155.639 123.69 155.843C124.172 156.053 124.705 155.997 125.289 155.676C125.664 155.469 125.951 155.189 126.15 154.835C126.349 154.481 126.442 154.083 126.43 153.642C126.413 153.217 126.267 152.754 125.992 152.253L123.745 148.173L125.621 147.14Z" fill="#F7F3ED"/>
<path d="M110.844 154.125C111.416 153.924 111.947 153.838 112.437 153.867C112.915 153.901 113.345 154.084 113.727 154.416C114.097 154.753 114.407 155.275 114.655 155.982L116.017 159.854L117.465 159.345L118.057 161.029L116.609 161.538L117.165 163.82L115.381 164.448L114.605 162.242L112.299 163.053L111.707 161.369L113.996 160.564L112.635 156.692C112.485 156.265 112.291 156 112.052 155.894C111.817 155.8 111.481 155.83 111.043 155.984L110.016 156.345L109.412 154.628L110.844 154.125Z" fill="#F7F3ED"/>
<path d="M102.741 156.111C103.467 155.981 104.091 155.991 104.613 156.139C105.137 156.3 105.552 156.558 105.857 156.914C106.165 157.283 106.362 157.713 106.45 158.205C106.548 158.755 106.494 159.26 106.286 159.72C106.066 160.183 105.695 160.575 105.172 160.898C104.652 161.233 103.982 161.473 103.162 161.619L100.931 162.017C101.012 162.474 101.15 162.842 101.345 163.122C101.528 163.403 101.768 163.596 102.065 163.7C102.361 163.805 102.721 163.819 103.142 163.744C103.622 163.658 104.017 163.467 104.327 163.17C104.627 162.887 104.779 162.521 104.784 162.073L106.857 161.703C106.9 162.348 106.786 162.931 106.516 163.45C106.234 163.972 105.823 164.408 105.281 164.758C104.739 165.109 104.123 165.345 103.432 165.469C102.612 165.615 101.883 165.594 101.245 165.406C100.598 165.231 100.075 164.908 99.676 164.435C99.2657 163.964 98.9937 163.354 98.8599 162.604L97.8944 157.193L99.6864 156.873L100.148 158.241C100.225 157.998 100.34 157.76 100.492 157.527C100.632 157.297 100.806 157.085 101.013 156.891C101.222 156.708 101.472 156.549 101.761 156.413C102.04 156.278 102.366 156.178 102.741 156.111ZM102.564 157.865C102.225 157.925 101.931 158.038 101.682 158.203C101.436 158.38 101.239 158.597 101.091 158.853C100.943 159.109 100.842 159.387 100.787 159.686C100.72 159.988 100.703 160.3 100.736 160.62L100.739 160.638L102.689 160.29C103.111 160.214 103.447 160.1 103.697 159.947C103.936 159.795 104.103 159.614 104.199 159.404C104.285 159.207 104.307 158.992 104.265 158.758C104.221 158.512 104.125 158.311 103.976 158.156C103.828 158.002 103.634 157.897 103.395 157.843C103.146 157.803 102.869 157.81 102.564 157.865Z" fill="#F7F3ED"/>
<path d="M89.5624 157.411C90.4547 157.416 91.2447 157.618 91.9323 158.015C92.6198 158.424 93.1576 158.974 93.5459 159.667C93.9341 160.371 94.1252 161.182 94.1194 162.098C94.1136 163.026 93.9121 163.834 93.5152 164.521C93.1181 165.221 92.5733 165.764 91.8807 166.153C91.1881 166.553 90.3957 166.75 89.5033 166.744C88.3731 166.737 87.4291 166.44 86.6713 165.852C85.9136 165.264 85.4368 164.464 85.2409 163.451L87.4895 163.466C87.5938 163.918 87.8354 164.271 88.2146 164.523C88.5818 164.775 89.0212 164.903 89.5328 164.906C89.973 164.909 90.3723 164.799 90.7307 164.575C91.089 164.363 91.3765 164.044 91.5934 163.617C91.8102 163.202 91.9205 162.697 91.9242 162.102C91.9271 161.65 91.8702 161.245 91.7535 160.887C91.6367 160.541 91.472 160.243 91.2594 159.992C91.0349 159.74 90.7803 159.548 90.4956 159.416C90.1989 159.295 89.89 159.233 89.5688 159.231C89.2237 159.229 88.9141 159.281 88.6397 159.386C88.3534 159.503 88.1144 159.668 87.9227 159.881C87.719 160.106 87.5805 160.367 87.5073 160.664L85.2586 160.65C85.4672 159.663 85.96 158.875 86.7371 158.285C87.5023 157.695 88.4441 157.404 89.5624 157.411Z" fill="#F7F3ED"/>
<path d="M77.7947 156.582C78.393 156.683 78.8991 156.866 79.313 157.129C79.7152 157.39 80.0027 157.759 80.1755 158.235C80.3365 158.708 80.3544 159.315 80.2291 160.054L79.543 164.101L81.0562 164.357L80.7579 166.117L79.2447 165.86L78.6252 168.127L76.7601 167.81L77.1508 165.505L74.7402 165.097L75.0385 163.337L77.4315 163.743L78.1176 159.696C78.1932 159.25 78.152 158.923 77.9942 158.716C77.8343 158.519 77.5257 158.383 77.0682 158.305L75.9948 158.123L76.2991 156.328L77.7947 156.582Z" fill="#F7F3ED"/>
<path d="M63.1108 151.889C63.7684 152.197 64.2713 152.596 64.6196 153.087C64.9572 153.573 65.124 154.143 65.1201 154.798C65.1162 155.453 64.9278 156.179 64.5551 156.977L62.3867 161.617L60.4465 160.711L62.5242 156.264C62.8567 155.553 62.9655 154.94 62.8508 154.427C62.7202 153.92 62.3531 153.525 61.7495 153.243C61.3615 153.061 60.9683 152.989 60.5701 153.027C60.1669 153.075 59.7959 153.236 59.4572 153.511C59.1078 153.781 58.8121 154.175 58.5704 154.692L56.5984 158.912L54.6582 158.006L58.4283 149.938L60.1422 150.739L59.653 152.165C60.1226 151.806 60.66 151.598 61.2652 151.539C61.8704 151.48 62.4857 151.597 63.1108 151.889Z" fill="#F7F3ED"/>
<path d="M52.0136 145.648C52.6443 146.095 53.1299 146.593 53.4705 147.141C53.8042 147.699 53.9809 148.262 54.0007 148.83C54.0136 149.408 53.8804 149.956 53.6013 150.473L51.8401 149.223C51.9293 148.994 51.9728 148.748 51.9706 148.484C51.9518 148.223 51.8701 147.968 51.7255 147.719C51.5711 147.464 51.3484 147.233 51.0573 147.026C50.7759 146.827 50.5155 146.7 50.2761 146.647C50.0298 146.604 49.8182 146.614 49.6413 146.678C49.4576 146.752 49.3107 146.866 49.2005 147.022C49.0353 147.255 48.9744 147.474 49.0179 147.68C49.0615 147.886 49.1804 148.109 49.3748 148.349C49.5526 148.592 49.7789 148.869 50.0537 149.181C50.3258 149.476 50.5923 149.789 50.8534 150.12C51.1047 150.444 51.3063 150.777 51.4581 151.118C51.6002 151.453 51.6712 151.795 51.6709 152.145C51.654 152.497 51.5251 152.843 51.2841 153.183C50.9812 153.61 50.5976 153.914 50.1335 154.095C49.6527 154.279 49.13 154.317 48.5654 154.208C47.991 154.092 47.4079 153.825 46.816 153.405C45.9718 152.806 45.4386 152.128 45.2163 151.372C44.9775 150.619 45.0622 149.862 45.4706 149.102L47.1299 150.279C46.9856 150.585 46.9734 150.89 47.0933 151.194C47.1966 151.501 47.4278 151.782 47.7868 152.036C48.1652 152.305 48.5031 152.435 48.8005 152.427C49.0978 152.42 49.3257 152.304 49.484 152.081C49.5873 151.935 49.6172 151.76 49.5736 151.554C49.5301 151.348 49.4229 151.118 49.252 150.866C49.0742 150.623 48.8493 150.354 48.5773 150.059C48.129 149.58 47.7528 149.124 47.4485 148.689C47.1346 148.247 46.9513 147.796 46.8987 147.336C46.8392 146.885 46.9953 146.398 47.3671 145.874C47.681 145.411 48.0914 145.09 48.5985 144.91C49.0889 144.732 49.6296 144.7 50.2205 144.813C50.8046 144.936 51.4023 145.214 52.0136 145.648Z" fill="#F7F3ED"/>
<path d="M34.3507 138.52L32.1825 139.9L34.6722 140.493L34.0861 142.032L31.8492 140.818L32.6238 143.204L31.0603 143.49L30.9413 140.891L29.1659 142.78L28.1608 141.55L30.3767 140.2L27.8531 139.566L28.4542 138.13L30.6798 139.33L29.9215 136.907L31.4963 136.635L31.6066 139.195L33.3682 137.318L34.3507 138.52Z" fill="#F7F3ED"/>
<path d="M28.7134 116.695C29.1775 117.842 29.3311 118.935 29.174 119.974C29.0059 121.018 28.5666 121.946 27.8563 122.76C27.1305 123.567 26.1775 124.209 24.9974 124.687C23.8063 125.169 22.6748 125.37 21.6029 125.291C20.5156 125.204 19.5486 124.845 18.7021 124.212C17.8555 123.579 17.2002 122.689 16.736 121.542C16.1736 120.152 16.058 118.884 16.3892 117.736C16.7094 116.592 17.4402 115.655 18.5817 114.923L19.4655 117.107C18.8772 117.525 18.4938 118.052 18.3152 118.689C18.1322 119.315 18.2036 120.03 18.5294 120.836C18.824 121.563 19.2493 122.123 19.8054 122.514C20.3505 122.909 21.001 123.121 21.7567 123.149C22.5014 123.181 23.3094 123.021 24.1806 122.669C25.0519 122.316 25.7439 121.869 26.2565 121.328C26.758 120.791 27.0726 120.189 27.2003 119.521C27.3169 118.858 27.228 118.162 26.9334 117.435C26.6076 116.629 26.1777 116.059 25.6439 115.723C25.0946 115.381 24.4822 115.263 23.8065 115.369L22.9161 113.169C24.1789 112.928 25.323 113.106 26.3483 113.705C27.3626 114.309 28.151 115.305 28.7134 116.695Z" fill="#F7F3ED"/>
<path d="M24.8507 103.623C24.9939 104.455 24.9304 105.245 24.6604 105.991C24.3884 106.726 23.9398 107.347 23.3145 107.853C22.6892 108.358 21.9251 108.689 21.0223 108.844C20.1077 109.002 19.2712 108.946 18.5128 108.678C17.7525 108.399 17.1213 107.958 16.6195 107.356C16.1156 106.742 15.792 106.019 15.6489 105.187C15.5037 104.343 15.5671 103.553 15.8392 102.818C16.1092 102.071 16.5568 101.445 17.1821 100.939C17.7956 100.435 18.5656 100.104 19.4919 99.9445C20.3948 99.7893 21.2264 99.8515 21.9868 100.131C22.7451 100.399 23.3762 100.84 23.8801 101.454C24.382 102.055 24.7055 102.778 24.8507 103.623ZM23.0391 103.934C22.9665 103.512 22.7954 103.149 22.5259 102.845C22.2544 102.53 21.8952 102.302 21.4485 102.161C20.9998 102.009 20.4648 101.986 19.8433 102.093C19.2336 102.198 18.7416 102.391 18.3675 102.673C17.9934 102.955 17.7311 103.29 17.5805 103.678C17.4279 104.054 17.3879 104.453 17.4605 104.875C17.5291 105.274 17.6991 105.631 17.9707 105.947C18.2422 106.262 18.6013 106.49 19.048 106.63C19.4947 106.771 20.0288 106.788 20.6503 106.681C21.2483 106.578 21.7402 106.385 22.126 106.101C22.5001 105.82 22.7635 105.491 22.9161 105.114C23.0666 104.726 23.1076 104.333 23.0391 103.934Z" fill="#F7F3ED"/>
<path d="M23.4534 94.9577L14.55 94.7625L14.5919 92.8534L16.0938 92.7435C15.5767 92.4465 15.1691 92.0389 14.871 91.5207C14.5732 90.9905 14.4319 90.3805 14.447 89.6906C14.4632 88.9531 14.6315 88.332 14.952 87.8273C15.2606 87.3223 15.7153 86.9396 16.316 86.679C16.9168 86.4185 17.6513 86.2978 18.5196 86.3168L23.6404 86.4291L23.5934 88.5702L18.6868 88.4626C17.9136 88.4456 17.3152 88.5991 16.8916 88.923C16.4682 89.2351 16.2493 89.7241 16.2346 90.3903C16.2253 90.8185 16.3238 91.2074 16.5304 91.5571C16.7369 91.9067 17.0342 92.1869 17.4223 92.3978C17.7988 92.5964 18.2725 92.702 18.8435 92.7145L23.5003 92.8166L23.4534 94.9577Z" fill="#F7F3ED"/>
<path d="M24.8056 78.6654C24.6936 79.2618 24.5023 79.7645 24.2317 80.1737C23.9633 80.5713 23.5898 80.8522 23.111 81.0164C22.6344 81.169 22.0278 81.1761 21.2911 81.0378L17.2569 80.28L16.9736 81.7884L15.2196 81.459L15.5029 79.9505L13.2481 79.2909L13.5973 77.4317L15.895 77.8633L16.3464 75.4603L18.1004 75.7898L17.6523 78.1752L21.6865 78.933C22.1308 79.0165 22.4583 78.9811 22.6688 78.827C22.8677 78.6706 23.0099 78.3644 23.0956 77.9084L23.2966 76.8385L25.0856 77.1745L24.8056 78.6654Z" fill="#F7F3ED"/>
<path d="M27.1403 70.6513C26.8892 71.3449 26.5688 71.8806 26.1791 72.2583C25.7781 72.6319 25.347 72.8618 24.8856 72.9479C24.4131 73.0299 23.9418 72.9859 23.472 72.8158C22.9462 72.6255 22.5361 72.3253 22.2417 71.915C21.9513 71.4936 21.7971 70.976 21.7789 70.362C21.7495 69.744 21.8765 69.0435 22.1599 68.2604L22.9313 66.1291C22.495 65.9712 22.1071 65.9067 21.7676 65.9357C21.4322 65.9535 21.1452 66.0647 20.9066 66.2694C20.6681 66.4741 20.4759 66.7778 20.3301 67.1805C20.1641 67.6392 20.1322 68.0769 20.2345 68.4935C20.3297 68.8949 20.57 69.2096 20.9556 69.4378L20.2389 71.4179C19.6591 71.1322 19.2118 70.7425 18.8969 70.249C18.5861 69.7442 18.4145 69.1697 18.382 68.5253C18.3495 67.8808 18.4527 67.2286 18.6916 66.5685C18.9751 65.7854 19.3579 65.1648 19.84 64.7066C20.315 64.2332 20.8569 63.9422 21.4656 63.8335C22.0784 63.7137 22.7428 63.7833 23.4588 64.0425L28.6274 65.9132L28.0079 67.6249L26.5925 67.3404C26.7646 67.5292 26.9133 67.7475 27.0387 67.9953C27.1682 68.232 27.2651 68.4885 27.3296 68.7649C27.3828 69.0372 27.396 69.333 27.369 69.6522C27.3461 69.9603 27.2699 70.2933 27.1403 70.6513ZM25.7101 69.6212C25.8275 69.2967 25.8768 68.9856 25.8581 68.6878C25.8281 68.386 25.7393 68.1071 25.5915 67.8511C25.4437 67.5952 25.2538 67.3683 25.0218 67.1704C24.7937 66.9614 24.5328 66.791 24.2388 66.6593L24.222 66.6532L23.5478 68.516C23.4021 68.9187 23.333 69.267 23.3405 69.5607C23.3521 69.8433 23.4252 70.0785 23.5596 70.2663C23.6869 70.439 23.8625 70.5658 24.0862 70.6467C24.3212 70.7318 24.5428 70.7487 24.7511 70.6976C24.9594 70.6464 25.1468 70.5308 25.3132 70.3506C25.4725 70.1552 25.6048 69.9121 25.7101 69.6212Z" fill="#F7F3ED"/>
<path d="M32.5934 58.6292C32.1411 59.3984 31.5708 59.9809 30.8825 60.3768C30.184 60.7666 29.4378 60.9558 28.644 60.9444C27.8398 60.927 27.0429 60.6861 26.2532 60.2218C25.4533 59.7513 24.8554 59.172 24.4596 58.4838C24.0535 57.7895 23.8561 57.0454 23.8675 56.2515C23.8686 55.4516 24.0953 54.6671 24.5476 53.8979C25.1206 52.9236 25.8513 52.256 26.7398 51.8952C27.6283 51.5343 28.5598 51.523 29.534 51.8613L28.3942 53.7997C27.9502 53.6628 27.524 53.6951 27.1156 53.8967C26.7133 54.0879 26.3824 54.4041 26.1231 54.8451C25.9 55.2246 25.7954 55.6254 25.8093 56.0477C25.813 56.4639 25.9451 56.8729 26.2058 57.2746C26.4562 57.6703 26.8378 58.0189 27.3506 58.3205C27.7403 58.5497 28.1191 58.7034 28.4871 58.7818C28.8449 58.8542 29.1857 58.8614 29.5096 58.8034C29.8396 58.7352 30.1334 58.6112 30.3909 58.4314C30.6443 58.2353 30.8523 57.9988 31.0152 57.7219C31.1901 57.4245 31.3007 57.1307 31.3471 56.8405C31.3893 56.5341 31.3664 56.2445 31.2783 55.9718C31.1859 55.6829 31.0296 55.4323 30.8094 55.22L31.9493 53.2816C32.698 53.9565 33.1328 54.7781 33.2535 55.7463C33.3803 56.7042 33.1603 57.6652 32.5934 58.6292Z" fill="#F7F3ED"/>
<path d="M39.1975 48.8999C38.8097 49.3666 38.3981 49.713 37.9628 49.9391C37.535 50.156 37.072 50.2199 36.5738 50.1308C36.0831 50.0324 35.5495 49.7438 34.973 49.2648L31.8158 46.6416L30.835 47.8221L29.4623 46.6816L30.4431 45.5011L28.7932 43.8285L30.0021 42.3735L31.8003 43.8676L33.3628 41.987L34.7355 43.1275L33.1844 44.9944L36.3416 47.6176C36.6893 47.9065 36.9927 48.0348 37.2516 48.0024C37.5014 47.9624 37.7745 47.764 38.071 47.4071L38.7668 46.5698L40.1669 47.7331L39.1975 48.8999Z" fill="#F7F3ED"/>
<path d="M50.6046 38.5237C50.0103 38.9403 49.4135 39.177 48.8141 39.2339C48.2244 39.2839 47.6468 39.1439 47.0813 38.8139C46.5157 38.4838 45.9803 37.9583 45.475 37.2373L42.5352 33.043L44.2889 31.8138L47.1058 35.8327C47.5565 36.4757 48.0329 36.8756 48.5349 37.0322C49.0399 37.1722 49.5652 37.0511 50.1108 36.6686C50.4615 36.4228 50.7201 36.1181 50.8866 35.7544C51.0462 35.381 51.0913 34.9789 51.0218 34.5481C50.9621 34.1105 50.7684 33.6579 50.4406 33.1902L47.7671 29.3759L49.5208 28.1467L54.6322 35.4392L53.0831 36.525L52.0911 35.3896C52.1675 35.9754 52.0801 36.5451 51.829 37.0989C51.5778 37.6527 51.1697 38.1276 50.6046 38.5237Z" fill="#F7F3ED"/>
<path d="M61.5521 32.0166C60.8496 32.3399 60.1759 32.5124 59.531 32.5341C58.8812 32.5451 58.3051 32.4173 57.8026 32.1508C57.2952 31.8735 56.8872 31.485 56.5786 30.9853L58.5403 30.0825C58.6938 30.2738 58.8856 30.4344 59.1157 30.5643C59.3515 30.6784 59.6132 30.7348 59.9007 30.7334C60.1991 30.7271 60.5104 30.6493 60.8346 30.5001C61.148 30.3559 61.3875 30.1933 61.5531 30.0123C61.7137 29.8205 61.8103 29.632 61.8429 29.4467C61.8706 29.2506 61.8446 29.0661 61.765 28.8932C61.6456 28.6338 61.4858 28.4716 61.2856 28.4066C61.0855 28.3415 60.8328 28.3333 60.5278 28.382C60.2286 28.4149 59.8754 28.4727 59.4681 28.5554C59.0766 28.6438 58.6723 28.7186 58.2551 28.7796C57.8487 28.8357 57.4598 28.8444 57.0884 28.8058C56.7278 28.7621 56.3959 28.6529 56.0928 28.4781C55.7955 28.2875 55.5598 28.003 55.3857 27.6247C55.1669 27.1491 55.0947 26.665 55.1692 26.1723C55.2496 25.6639 55.4778 25.1921 55.8539 24.7571C56.2408 24.3171 56.7638 23.9454 57.4231 23.642C58.3635 23.2093 59.2166 23.0852 59.9826 23.2697C60.7543 23.4384 61.3679 23.8895 61.8233 24.6229L59.9751 25.4734C59.7818 25.1957 59.5236 25.0329 59.2004 24.9852C58.883 24.9217 58.5244 24.9819 58.1245 25.166C57.7029 25.36 57.4214 25.5877 57.2799 25.8494C57.1383 26.111 57.1247 26.366 57.2391 26.6146C57.3137 26.7768 57.4511 26.8903 57.6513 26.9554C57.8515 27.0204 58.1037 27.0419 58.4079 27.0198C58.707 26.9869 59.0524 26.9262 59.4439 26.8377C60.0822 26.688 60.6657 26.5898 61.1942 26.543C61.7336 26.4912 62.2159 26.5574 62.6412 26.7415C63.0614 26.9148 63.4059 27.2933 63.6745 27.877C63.919 28.38 63.9928 28.8961 63.8959 29.4253C63.8047 29.9388 63.5628 30.4234 63.1701 30.8791C62.7724 31.3241 62.233 31.7033 61.5521 32.0166Z" fill="#F7F3ED"/>
<path d="M76.5562 20.289L76.4496 17.7212L74.688 19.5778L73.6504 18.2989L75.8227 16.9726L73.3698 16.4461L73.9059 14.9496L76.2144 16.1502L75.4707 13.667L77.0388 13.4143L77.0954 16.0082L78.9097 14.1431L79.8508 15.3833L77.6961 16.7068L80.1723 17.2657L79.6186 18.765L77.3481 17.5763L78.089 20.0419L76.5562 20.289Z" fill="#F7F3ED"/>
<path d="M101.278 79.5918C101.906 80.2194 101.906 81.237 101.278 81.8647L83.0639 100.079C82.4362 100.707 81.4187 100.707 80.791 100.079C80.1634 99.4512 80.1634 98.4338 80.791 97.8062L99.0054 79.5918C99.633 78.9642 100.65 78.9642 101.278 79.5918Z" fill="#F7F3ED"/>
<path d="M79.25 80.7282C79.25 79.8406 79.9695 79.1211 80.8571 79.1211H100.143C101.03 79.1211 101.75 79.8406 101.75 80.7282V100.014C101.75 100.902 101.03 101.621 100.143 101.621C99.2553 101.621 98.5357 100.902 98.5357 100.014V82.3354H80.8571C79.9695 82.3354 79.25 81.6158 79.25 80.7282Z" fill="#F7F3ED"/>
</svg>
