<svg width="176" height="51" viewBox="0 0 176 51" fill="none" xmlns="http://www.w3.org/2000/svg">
<path d="M73.464 35.7071C72.1387 35.7071 70.9067 35.4644 69.768 34.9791C68.648 34.4938 67.6773 33.8218 66.856 32.9631C66.0533 32.0858 65.4653 31.0684 65.092 29.9111L68.256 28.5391C68.76 29.7338 69.488 30.6764 70.44 31.3671C71.392 32.0391 72.4653 32.3751 73.66 32.3751C74.332 32.3751 74.9107 32.2724 75.396 32.0671C75.9 31.8431 76.2827 31.5444 76.544 31.1711C76.824 30.7978 76.964 30.3498 76.964 29.8271C76.964 29.2111 76.7773 28.7071 76.404 28.3151C76.0493 27.9044 75.508 27.5871 74.78 27.3631L70.776 26.0751C69.152 25.5711 67.9293 24.8151 67.108 23.8071C66.2867 22.7991 65.876 21.6138 65.876 20.2511C65.876 19.0564 66.1653 18.0018 66.744 17.0871C67.3413 16.1724 68.1627 15.4631 69.208 14.9591C70.272 14.4364 71.4853 14.1751 72.848 14.1751C74.0987 14.1751 75.2467 14.3991 76.292 14.8471C77.3373 15.2764 78.2333 15.8831 78.98 16.6671C79.7453 17.4324 80.3147 18.3378 80.688 19.3831L77.552 20.7831C77.1413 19.7378 76.5253 18.9351 75.704 18.3751C74.8827 17.7964 73.9307 17.5071 72.848 17.5071C72.2133 17.5071 71.6533 17.6191 71.168 17.8431C70.6827 18.0484 70.3 18.3471 70.02 18.7391C69.7587 19.1124 69.628 19.5604 69.628 20.0831C69.628 20.6618 69.8147 21.1751 70.188 21.6231C70.5613 22.0524 71.1307 22.3884 71.896 22.6311L75.732 23.8351C77.3933 24.3764 78.6347 25.1231 79.456 26.0751C80.296 27.0271 80.716 28.2031 80.716 29.6031C80.716 30.7978 80.408 31.8524 79.792 32.7671C79.176 33.6818 78.3267 34.4004 77.244 34.9231C76.1613 35.4458 74.9013 35.7071 73.464 35.7071ZM83.8369 40.9711V20.1391H87.2809V23.1631L86.9449 22.4071C87.4676 21.5858 88.1769 20.9511 89.0729 20.5031C89.9689 20.0364 91.0049 19.8031 92.1809 19.8031C93.6182 19.8031 94.9156 20.1578 96.0729 20.8671C97.2302 21.5764 98.1449 22.5284 98.8169 23.7231C99.5076 24.9178 99.8529 26.2618 99.8529 27.7551C99.8529 29.2298 99.5169 30.5738 98.8449 31.7871C98.1729 33.0004 97.2582 33.9618 96.1009 34.6711C94.9436 35.3618 93.6276 35.7071 92.1529 35.7071C91.0516 35.7071 90.0342 35.4924 89.1009 35.0631C88.1862 34.6151 87.4582 33.9804 86.9169 33.1591L87.5049 32.4311V40.9711H83.8369ZM91.7329 32.3471C92.5729 32.3471 93.3196 32.1511 93.9729 31.7591C94.6262 31.3671 95.1302 30.8258 95.4849 30.1351C95.8582 29.4444 96.0449 28.6511 96.0449 27.7551C96.0449 26.8591 95.8582 26.0751 95.4849 25.4031C95.1302 24.7124 94.6262 24.1711 93.9729 23.7791C93.3196 23.3684 92.5729 23.1631 91.7329 23.1631C90.9302 23.1631 90.2022 23.3591 89.5489 23.7511C88.9142 24.1431 88.4102 24.6938 88.0369 25.4031C87.6822 26.0938 87.5049 26.8778 87.5049 27.7551C87.5049 28.6511 87.6822 29.4444 88.0369 30.1351C88.4102 30.8258 88.9142 31.3671 89.5489 31.7591C90.2022 32.1511 90.9302 32.3471 91.7329 32.3471ZM107.269 35.7071C106.205 35.7071 105.281 35.5298 104.497 35.1751C103.713 34.8204 103.107 34.3164 102.677 33.6631C102.248 32.9911 102.033 32.2164 102.033 31.3391C102.033 30.4991 102.22 29.7524 102.593 29.0991C102.967 28.4271 103.545 27.8671 104.329 27.4191C105.113 26.9711 106.103 26.6538 107.297 26.4671L112.281 25.6551V28.4551L107.997 29.1831C107.269 29.3138 106.728 29.5471 106.373 29.8831C106.019 30.2191 105.841 30.6578 105.841 31.1991C105.841 31.7218 106.037 32.1418 106.429 32.4591C106.84 32.7578 107.344 32.9071 107.941 32.9071C108.707 32.9071 109.379 32.7484 109.957 32.4311C110.555 32.0951 111.012 31.6378 111.329 31.0591C111.665 30.4804 111.833 29.8458 111.833 29.1551V25.2351C111.833 24.5818 111.572 24.0404 111.049 23.6111C110.545 23.1631 109.873 22.9391 109.033 22.9391C108.249 22.9391 107.549 23.1538 106.933 23.5831C106.336 23.9938 105.897 24.5444 105.617 25.2351L102.621 23.7791C102.92 22.9764 103.387 22.2858 104.021 21.7071C104.675 21.1098 105.44 20.6431 106.317 20.3071C107.195 19.9711 108.147 19.8031 109.173 19.8031C110.424 19.8031 111.525 20.0364 112.477 20.5031C113.429 20.9511 114.167 21.5858 114.689 22.4071C115.231 23.2098 115.501 24.1524 115.501 25.2351V35.3711H112.029V32.7671L112.813 32.7111C112.421 33.3644 111.955 33.9151 111.413 34.3631C110.872 34.7924 110.256 35.1284 109.565 35.3711C108.875 35.5951 108.109 35.7071 107.269 35.7071ZM135.104 21.0631C135.944 21.0631 136.616 21.3338 137.12 21.8751C137.642 22.3978 138.006 23.0978 138.212 23.9751C138.436 24.8338 138.501 25.7764 138.408 26.8031C138.333 27.8111 138.118 28.7911 137.764 29.7431C137.465 30.5831 137.073 31.3671 136.588 32.0951C136.121 32.8044 135.58 33.4298 134.964 33.9711C134.348 34.5124 133.676 34.9324 132.948 35.2311C132.238 35.5298 131.492 35.6791 130.708 35.6791C130.222 35.6791 129.737 35.5671 129.252 35.3431C128.785 35.1004 128.412 34.6711 128.132 34.0551C127.87 33.4391 127.786 32.5711 127.88 31.4511C127.6 32.2351 127.189 32.9538 126.648 33.6071C126.125 34.2418 125.546 34.7458 124.912 35.1191C124.277 35.4924 123.642 35.6791 123.008 35.6791C121.925 35.6791 121.169 35.3244 120.74 34.6151C120.31 33.8871 120.096 33.0284 120.096 32.0391C120.096 31.2924 120.133 30.5271 120.208 29.7431C120.282 28.9404 120.366 28.1658 120.46 27.4191C120.553 26.6538 120.637 25.9538 120.712 25.3191C120.786 24.6844 120.824 24.1711 120.824 23.7791C120.824 23.4244 120.777 23.1164 120.684 22.8551C120.609 22.5938 120.404 22.4631 120.068 22.4631C119.769 22.4631 119.433 22.6684 119.06 23.0791C118.705 23.4898 118.388 24.1898 118.108 25.1791L117.324 25.0111C117.38 24.6751 117.492 24.2924 117.66 23.8631C117.828 23.4151 118.052 22.9764 118.332 22.5471C118.63 22.1178 118.985 21.7631 119.396 21.4831C119.825 21.2031 120.32 21.0631 120.88 21.0631C121.384 21.0631 121.804 21.1751 122.14 21.3991C122.476 21.6044 122.728 21.9124 122.896 22.3231C123.064 22.7151 123.148 23.2004 123.148 23.7791C123.148 24.3951 123.11 25.1138 123.036 25.9351C122.961 26.7564 122.868 27.5964 122.756 28.4551C122.662 29.3138 122.578 30.1071 122.504 30.8351C122.429 31.5631 122.392 32.1231 122.392 32.5151C122.392 32.7764 122.42 33.0378 122.476 33.2991C122.55 33.5604 122.672 33.7751 122.84 33.9431C123.026 34.1111 123.278 34.1951 123.596 34.1951C124.062 34.1951 124.529 34.0551 124.996 33.7751C125.481 33.4951 125.929 33.0844 126.34 32.5431C126.75 32.0018 127.114 31.3391 127.432 30.5551C127.749 29.7711 128.001 28.8751 128.188 27.8671C128.374 26.8591 128.468 25.7391 128.468 24.5071C128.468 24.0218 128.449 23.5178 128.412 22.9951C128.393 22.4724 128.346 21.9311 128.272 21.3711H130.68C130.717 21.5204 130.745 21.7351 130.764 22.0151C130.782 22.2764 130.792 22.4818 130.792 22.6311C130.792 23.5644 130.745 24.4604 130.652 25.3191C130.558 26.1778 130.446 26.9991 130.316 27.7831C130.204 28.5671 130.101 29.3138 130.008 30.0231C129.914 30.7324 129.868 31.4044 129.868 32.0391C129.868 32.5804 129.961 33.0751 130.148 33.5231C130.334 33.9711 130.745 34.2044 131.38 34.2231C131.921 34.2231 132.453 34.1018 132.976 33.8591C133.498 33.5978 133.993 33.2338 134.46 32.7671C134.945 32.3004 135.374 31.7591 135.748 31.1431C136.121 30.5084 136.429 29.8271 136.672 29.0991C136.784 28.7258 136.886 28.2404 136.98 27.6431C137.073 27.0271 137.101 26.4018 137.064 25.7671C137.045 25.1138 136.933 24.5258 136.728 24.0031C136.541 23.4804 136.214 23.1258 135.748 22.9391C135.636 23.1818 135.477 23.3591 135.272 23.4711C135.066 23.5831 134.842 23.6391 134.6 23.6391C134.357 23.6391 134.096 23.5458 133.816 23.3591C133.554 23.1538 133.424 22.8458 133.424 22.4351C133.424 22.2298 133.47 22.0244 133.564 21.8191C133.676 21.5951 133.853 21.4178 134.096 21.2871C134.357 21.1378 134.693 21.0631 135.104 21.0631ZM147.501 21.0631C148.173 21.0631 148.808 21.1658 149.405 21.3711C150.003 21.5764 150.488 21.9124 150.861 22.3791C151.235 22.8458 151.421 23.4804 151.421 24.2831C151.421 25.0484 151.16 25.7111 150.637 26.2711C150.115 26.8311 149.433 27.2978 148.593 27.6711C147.753 28.0258 146.857 28.3151 145.905 28.5391C144.953 28.7631 144.039 28.9218 143.161 29.0151C143.161 30.1724 143.273 31.1431 143.497 31.9271C143.74 32.7111 144.095 33.2991 144.561 33.6911C145.028 34.0831 145.625 34.2791 146.353 34.2791C146.895 34.2791 147.436 34.1578 147.977 33.9151C148.537 33.6724 149.069 33.3084 149.573 32.8231C150.077 32.3191 150.535 31.6751 150.945 30.8911L151.869 31.4231C151.347 32.3938 150.787 33.1964 150.189 33.8311C149.592 34.4658 148.939 34.9324 148.229 35.2311C147.52 35.5298 146.736 35.6791 145.877 35.6791C144.104 35.6791 142.797 35.1284 141.957 34.0271C141.117 32.9071 140.697 31.4418 140.697 29.6311C140.697 28.5484 140.837 27.4938 141.117 26.4671C141.397 25.4404 141.817 24.5258 142.377 23.7231C142.937 22.9018 143.647 22.2578 144.505 21.7911C145.364 21.3058 146.363 21.0631 147.501 21.0631ZM147.109 22.0151C146.251 22.0151 145.541 22.3044 144.981 22.8831C144.44 23.4618 144.02 24.2084 143.721 25.1231C143.441 26.0378 143.264 26.9991 143.189 28.0071C144.179 27.8764 145.121 27.6431 146.017 27.3071C146.913 26.9711 147.651 26.5418 148.229 26.0191C148.808 25.4778 149.097 24.8524 149.097 24.1431C149.097 23.5458 148.929 23.0418 148.593 22.6311C148.276 22.2204 147.781 22.0151 147.109 22.0151ZM158.941 14.2311C158.885 14.6978 158.801 15.2204 158.689 15.7991C158.596 16.3778 158.503 16.9471 158.409 17.5071C158.335 18.0671 158.269 18.5618 158.213 18.9911C158.101 19.7751 157.989 20.6711 157.877 21.6791C157.765 22.6684 157.653 23.7044 157.541 24.7871C157.429 25.8511 157.327 26.8964 157.233 27.9231C157.159 28.9498 157.093 29.8924 157.037 30.7511C156.981 31.5911 156.953 32.2818 156.953 32.8231C156.953 33.1778 156.991 33.5138 157.065 33.8311C157.14 34.1298 157.355 34.2791 157.709 34.2791C158.027 34.2791 158.372 34.0831 158.745 33.6911C159.137 33.2804 159.473 32.5711 159.753 31.5631L160.537 31.7591C160.481 32.0764 160.36 32.4591 160.173 32.9071C160.005 33.3551 159.772 33.7938 159.473 34.2231C159.175 34.6338 158.811 34.9791 158.381 35.2591C157.971 35.5391 157.485 35.6791 156.925 35.6791C156.16 35.6791 155.6 35.4924 155.245 35.1191C154.891 34.7271 154.704 34.1578 154.685 33.4111C154.667 32.9444 154.685 32.2538 154.741 31.3391C154.816 30.4244 154.9 29.3884 154.993 28.2311C155.105 27.0551 155.227 25.8324 155.357 24.5631C155.488 23.2751 155.628 22.0244 155.777 20.8111C155.927 19.5978 156.067 18.4964 156.197 17.5071C156.291 17.0031 156.347 16.6764 156.365 16.5271C156.403 16.3591 156.431 16.1818 156.449 15.9951C156.113 16.0138 155.777 16.0324 155.441 16.0511C155.124 16.0698 154.797 16.0884 154.461 16.1071L154.601 14.9871C155.423 14.9871 156.057 14.9498 156.505 14.8751C156.972 14.8004 157.327 14.7071 157.569 14.5951C157.812 14.4831 158.008 14.3618 158.157 14.2311H158.941ZM166.871 14.2311C166.815 14.6978 166.731 15.2204 166.619 15.7991C166.526 16.3778 166.432 16.9471 166.339 17.5071C166.264 18.0671 166.199 18.5618 166.143 18.9911C166.031 19.7751 165.919 20.6711 165.807 21.6791C165.695 22.6684 165.583 23.7044 165.471 24.7871C165.359 25.8511 165.256 26.8964 165.163 27.9231C165.088 28.9498 165.023 29.8924 164.967 30.7511C164.911 31.5911 164.883 32.2818 164.883 32.8231C164.883 33.1778 164.92 33.5138 164.995 33.8311C165.07 34.1298 165.284 34.2791 165.639 34.2791C165.956 34.2791 166.302 34.0831 166.675 33.6911C167.067 33.2804 167.403 32.5711 167.683 31.5631L168.467 31.7591C168.411 32.0764 168.29 32.4591 168.103 32.9071C167.935 33.3551 167.702 33.7938 167.403 34.2231C167.104 34.6338 166.74 34.9791 166.311 35.2591C165.9 35.5391 165.415 35.6791 164.855 35.6791C164.09 35.6791 163.53 35.4924 163.175 35.1191C162.82 34.7271 162.634 34.1578 162.615 33.4111C162.596 32.9444 162.615 32.2538 162.671 31.3391C162.746 30.4244 162.83 29.3884 162.923 28.2311C163.035 27.0551 163.156 25.8324 163.287 24.5631C163.418 23.2751 163.558 22.0244 163.707 20.8111C163.856 19.5978 163.996 18.4964 164.127 17.5071C164.22 17.0031 164.276 16.6764 164.295 16.5271C164.332 16.3591 164.36 16.1818 164.379 15.9951C164.043 16.0138 163.707 16.0324 163.371 16.0511C163.054 16.0698 162.727 16.0884 162.391 16.1071L162.531 14.9871C163.352 14.9871 163.987 14.9498 164.435 14.8751C164.902 14.8004 165.256 14.7071 165.499 14.5951C165.742 14.4831 165.938 14.3618 166.087 14.2311H166.871Z" fill="#F7F3ED"/>
<path d="M171.749 32.2911C172.197 32.2911 172.561 32.4684 172.841 32.8231C173.121 33.1591 173.242 33.5698 173.205 34.0551C173.186 34.5591 173.009 34.9791 172.673 35.3151C172.337 35.6511 171.954 35.8191 171.525 35.8191C171.095 35.8191 170.731 35.6511 170.433 35.3151C170.134 34.9791 169.994 34.5591 170.013 34.0551C170.05 33.5698 170.237 33.1591 170.573 32.8231C170.927 32.4684 171.319 32.2911 171.749 32.2911Z" fill="#8E714F"/>
<circle cx="25" cy="25.3711" r="25" fill="#F7F3ED"/>
<path d="M14.7617 35.0571C14.7617 35.0571 21.133 34.756 21.893 27.9258C15.0628 28.6858 14.7617 35.0571 14.7617 35.0571Z" fill="#8E714F"/>
<path d="M35.3149 35.0571C35.3149 35.0571 28.9436 34.756 28.1836 27.9258C35.0138 28.6858 35.3149 35.0571 35.3149 35.0571Z" fill="#8E714F"/>
<path d="M14.7617 15.4043C14.7617 15.4043 21.133 15.7053 21.893 22.5356C15.0628 21.7756 14.7617 15.4043 14.7617 15.4043Z" fill="#8E714F"/>
<path d="M35.3774 15.4043C35.3774 15.4043 29.0061 15.7053 28.2461 22.5356C35.0714 21.7756 35.3774 15.4043 35.3774 15.4043Z" fill="#8E714F"/>
<path d="M16.6205 22.293C18.7045 22.293 20.2419 23.357 21.2567 24.1081L21.4103 24.206C21.7969 24.4201 22.3672 24.5364 22.9316 24.5863C23.0457 24.5964 23.1565 24.6 23.2604 24.6049C23.4391 24.5976 23.5987 24.5956 23.7294 24.5966C23.8428 24.5976 23.9354 24.6002 24.0005 24.6028C24.033 24.6042 24.0597 24.606 24.0778 24.6069C24.0865 24.6074 24.0934 24.6077 24.0984 24.608C24.1008 24.6081 24.1031 24.6089 24.1046 24.609H24.1077L24.2087 24.6255C24.4356 24.6859 24.6006 24.8926 24.6004 25.1357C24.6001 25.3789 24.4348 25.586 24.2077 25.6459L24.1067 25.6624H24.0974C24.0923 25.6627 24.0847 25.663 24.0757 25.6634C24.0577 25.6644 24.0317 25.6663 23.9995 25.6676C23.9344 25.6701 23.8418 25.672 23.7284 25.6727C23.5964 25.6736 23.435 25.6701 23.2542 25.6624C23.152 25.6671 23.0437 25.6732 22.9316 25.683C22.2867 25.7394 21.6346 25.8824 21.2577 26.1613C20.2429 26.9124 18.7052 27.9774 16.6205 27.9774C14.5364 27.9774 12.9991 26.9134 11.9843 26.1623L11.8307 26.0644C11.444 25.8502 10.8729 25.7339 10.3083 25.6841C10.1941 25.674 10.0836 25.6694 9.97954 25.6645C9.80129 25.6717 9.64203 25.6748 9.51159 25.6737C9.39787 25.6728 9.30455 25.6702 9.23948 25.6676C9.20711 25.6662 9.18122 25.6644 9.1632 25.6634C9.15454 25.663 9.14764 25.6627 9.14259 25.6624H9.13434L9.13331 25.6614C8.85603 25.6427 8.64031 25.4126 8.64063 25.1347C8.64095 24.8568 8.85702 24.6271 9.13434 24.609H9.13537L9.13743 24.608C9.13895 24.6079 9.1412 24.6081 9.14362 24.608C9.14865 24.6077 9.15555 24.6074 9.16423 24.6069C9.18221 24.606 9.20821 24.6051 9.24051 24.6039C9.30554 24.6013 9.39896 24.5984 9.51262 24.5977C9.64481 24.5968 9.80664 24.5992 9.98778 24.6069C10.0897 24.6022 10.1978 24.5981 10.3094 24.5884C10.9543 24.532 11.6064 24.388 11.9833 24.1091C12.9981 23.358 14.5357 22.293 16.6205 22.293ZM16.6205 23.3484C14.9052 23.3484 13.6097 24.2181 12.611 24.9574C12.522 25.0232 12.4262 25.0806 12.3275 25.1347C12.3823 25.1645 12.4364 25.1951 12.4883 25.2285L12.6099 25.312L12.611 25.313L12.9996 25.5944C13.9401 26.2562 15.1195 26.922 16.6205 26.922C18.3357 26.9219 19.6313 26.0523 20.63 25.313C20.7189 25.2473 20.8139 25.1887 20.9124 25.1347C20.8143 25.0811 20.7195 25.0235 20.6311 24.9584L20.63 24.9574C19.6313 24.2181 18.3357 23.3485 16.6205 23.3484Z" fill="#636A55"/>
<path d="M33.3803 22.293C35.4643 22.293 37.0017 23.357 38.0165 24.1081L38.17 24.206C38.5566 24.4201 39.1269 24.5364 39.6914 24.5863C39.8055 24.5964 39.9163 24.6 40.0202 24.6049C40.1988 24.5976 40.3585 24.5956 40.4892 24.5966C40.6026 24.5976 40.6952 24.6002 40.7603 24.6028C40.7928 24.6042 40.8195 24.606 40.8376 24.6069C40.8462 24.6074 40.8531 24.6077 40.8582 24.608C40.8606 24.6081 40.8628 24.6089 40.8644 24.609H40.8675L40.9685 24.6255C41.1954 24.6859 41.3603 24.8926 41.3601 25.1357C41.3599 25.3789 41.1945 25.586 40.9674 25.6459L40.8664 25.6624H40.8571C40.852 25.6627 40.8445 25.663 40.8355 25.6634C40.8174 25.6644 40.7915 25.6663 40.7592 25.6676C40.6942 25.6701 40.6016 25.672 40.4881 25.6727C40.3562 25.6736 40.1948 25.6701 40.014 25.6624C39.9118 25.6671 39.8034 25.6732 39.6914 25.683C39.0465 25.7394 38.3944 25.8824 38.0175 26.1613C37.0027 26.9124 35.465 27.9774 33.3803 27.9774C31.3013 27.9774 29.7591 26.9136 28.7441 26.1623L28.5905 26.0644C28.2038 25.8502 27.6327 25.7339 27.0681 25.6841C26.9538 25.674 26.8433 25.6694 26.7393 25.6645C26.5611 25.6717 26.4018 25.6748 26.2714 25.6737C26.1576 25.6728 26.0643 25.6702 25.9992 25.6676C25.9669 25.6662 25.941 25.6644 25.923 25.6634C25.9143 25.663 25.9074 25.6627 25.9024 25.6624H25.8941L25.8931 25.6614C25.6158 25.6427 25.4001 25.4126 25.4004 25.1347C25.4007 24.8568 25.6168 24.6271 25.8941 24.609H25.8951L25.8972 24.608C25.8987 24.6079 25.901 24.6081 25.9034 24.608C25.9084 24.6077 25.9153 24.6074 25.924 24.6069C25.942 24.606 25.968 24.6051 26.0003 24.6039C26.0653 24.6013 26.1587 24.5984 26.2724 24.5977C26.4046 24.5968 26.5664 24.5992 26.7475 24.6069C26.8494 24.6022 26.9575 24.5981 27.0691 24.5884C27.7141 24.532 28.3662 24.388 28.743 24.1091C29.7578 23.358 31.2955 22.293 33.3803 22.293ZM33.3803 23.3484C31.665 23.3484 30.3695 24.2181 29.3707 24.9574C29.2818 25.0232 29.186 25.0806 29.0873 25.1347C29.1421 25.1645 29.1961 25.1951 29.2481 25.2285L29.3697 25.312L29.3707 25.313L29.7593 25.5944C30.7005 26.2561 31.8834 26.922 33.3803 26.922C35.0955 26.9219 36.3911 26.0523 37.3898 25.313C37.4786 25.2473 37.5736 25.1887 37.6722 25.1347C37.5741 25.0811 37.4793 25.0235 37.3908 24.9584L37.3898 24.9574C36.3911 24.2181 35.0955 23.3485 33.3803 23.3484Z" fill="#636A55"/>
<path d="M25.0244 10.3711C25.1677 10.3711 25.3053 10.4297 25.4047 10.5329L25.412 10.5401C25.4157 10.5441 25.4211 10.5499 25.4274 10.5566C25.4399 10.5701 25.4573 10.5891 25.479 10.6133C25.5229 10.6625 25.5848 10.7338 25.6604 10.8256C25.8114 11.0095 26.0175 11.2779 26.2458 11.6214C26.7016 12.3071 27.2506 13.3015 27.6167 14.5363C28.3327 16.9515 28.3361 20.2419 25.7057 23.8592L25.4429 24.2106C25.343 24.3402 25.188 24.4158 25.0244 24.4158C24.9019 24.4157 24.7846 24.3731 24.6915 24.2972L24.607 24.2106C21.7142 20.4555 21.694 17.0294 22.4332 14.5363C22.7992 13.3017 23.3472 12.3071 23.803 11.6214C24.0313 11.278 24.2374 11.0095 24.3884 10.8256C24.464 10.7337 24.5259 10.6625 24.5699 10.6133C24.5918 10.5888 24.6099 10.5701 24.6224 10.5566C24.6287 10.5499 24.6341 10.5441 24.6379 10.5401C24.6397 10.5382 24.6408 10.5362 24.642 10.535L24.6441 10.5339V10.5329C24.6443 10.5327 24.6444 10.5329 24.9481 10.8256L24.6451 10.5329C24.7445 10.4298 24.8812 10.3712 25.0244 10.3711ZM25.0244 11.7255C24.923 11.8587 24.806 12.0186 24.6822 12.2048C24.269 12.8264 23.7745 13.7262 23.4453 14.8362C22.8302 16.9109 22.7787 19.7634 25.0244 22.9934C27.2702 19.7633 27.2196 16.911 26.6045 14.8362C26.2754 13.7262 25.7809 12.8264 25.3676 12.2048C25.2437 12.0183 25.1259 11.8588 25.0244 11.7255Z" fill="#636A55"/>
<path d="M25.0225 26.3262C25.1658 26.3262 25.3033 26.3848 25.4028 26.488L25.41 26.4952C25.4137 26.4992 25.4192 26.505 25.4255 26.5117C25.438 26.5252 25.4553 26.5441 25.477 26.5684C25.521 26.6175 25.5829 26.6888 25.6584 26.7807C25.8095 26.9646 26.0155 27.233 26.2439 27.5764C26.6997 28.2622 27.2486 29.2566 27.6147 30.4913C28.3307 32.9066 28.3341 36.197 25.7038 39.8142L25.4409 40.1657C25.341 40.2953 25.1861 40.3708 25.0225 40.3708C24.8999 40.3708 24.7827 40.3282 24.6895 40.2523L24.605 40.1657C21.7123 36.4105 21.6921 32.9845 22.4312 30.4913C22.7973 29.2568 23.3453 28.2622 23.801 27.5764C24.0293 27.233 24.2354 26.9645 24.3865 26.7807C24.462 26.6888 24.5239 26.6176 24.5679 26.5684C24.5898 26.5439 24.6079 26.5252 24.6205 26.5117C24.6268 26.5049 24.6322 26.4992 24.6359 26.4952C24.6377 26.4933 24.6389 26.4913 24.6401 26.4901L24.6421 26.489V26.488C24.6423 26.4878 24.6425 26.488 24.9462 26.7807L24.6431 26.488C24.7425 26.3849 24.8792 26.3262 25.0225 26.3262ZM25.0225 27.6805C24.9211 27.8138 24.804 27.9736 24.6803 28.1598C24.267 28.7815 23.7725 29.6812 23.4434 30.7913C22.8283 32.866 22.7768 35.7185 25.0225 38.9484C27.2683 35.7184 27.2177 32.866 26.6026 30.7913C26.2734 29.6812 25.7789 28.7815 25.3657 28.1598C25.2418 27.9734 25.1239 27.8139 25.0225 27.6805Z" fill="#636A55"/>
</svg>
