<svg width="24" height="25" viewBox="0 0 24 25" fill="none" xmlns="http://www.w3.org/2000/svg">
<g clip-path="url(#clip0_236_495)">
<path d="M18.9677 15.2367C18.4763 14.7251 17.8837 14.4516 17.2556 14.4516C16.6326 14.4516 16.0348 14.7201 15.5232 15.2317L13.9226 16.8273C13.7909 16.7564 13.6592 16.6905 13.5326 16.6247C13.3502 16.5335 13.178 16.4474 13.0311 16.3562C11.5317 15.4039 10.1691 14.1629 8.86229 12.5572C8.22911 11.7568 7.80362 11.0831 7.49464 10.3993C7.91 10.0194 8.29496 9.62432 8.6698 9.24442C8.81163 9.10259 8.95346 8.95569 9.09529 8.81386C10.159 7.75014 10.159 6.37236 9.09529 5.30863L7.71245 3.92579C7.55542 3.76876 7.39333 3.60667 7.24137 3.44458C6.93745 3.13053 6.61833 2.80634 6.28908 2.50242C5.79774 2.01615 5.21016 1.75781 4.59218 1.75781C3.97421 1.75781 3.3765 2.01615 2.86996 2.50242C2.86489 2.50749 2.86489 2.50749 2.85983 2.51255L1.13761 4.24997C0.489239 4.89834 0.119467 5.68854 0.0384213 6.60537C-0.0831474 8.08445 0.352474 9.46223 0.686788 10.3639C1.50738 12.5774 2.7332 14.6289 4.56179 16.8273C6.78042 19.4765 9.44987 21.5685 12.4992 23.0425C13.6643 23.5946 15.2193 24.248 16.9567 24.3595C17.0631 24.3645 17.1745 24.3696 17.2759 24.3696C18.446 24.3696 19.4286 23.9492 20.1986 23.1134C20.2036 23.1033 20.2138 23.0982 20.2188 23.0881C20.4822 22.7689 20.7862 22.4802 21.1053 22.1712C21.3231 21.9636 21.546 21.7457 21.7638 21.5178C22.2652 20.9961 22.5286 20.3882 22.5286 19.7652C22.5286 19.1371 22.2602 18.5343 21.7486 18.0278L18.9677 15.2367ZM20.7811 20.5706C20.776 20.5706 20.776 20.5756 20.7811 20.5706C20.5835 20.7833 20.3809 20.9758 20.1631 21.1886C19.8339 21.5026 19.4995 21.8319 19.1855 22.2016C18.6739 22.7487 18.0711 23.007 17.2809 23.007C17.2049 23.007 17.1239 23.007 17.0479 23.002C15.5435 22.9057 14.1455 22.3181 13.0969 21.8167C10.2299 20.4287 7.71245 18.4583 5.62045 15.9611C3.89316 13.8792 2.73826 11.9544 1.97339 9.88772C1.50231 8.62645 1.33009 7.64377 1.40607 6.7168C1.45672 6.12416 1.68466 5.63282 2.10509 5.21239L3.83238 3.4851C4.08058 3.25209 4.34398 3.12546 4.60231 3.12546C4.92143 3.12546 5.17977 3.31794 5.34186 3.48004C5.34692 3.4851 5.35199 3.49017 5.35705 3.49523C5.66604 3.78396 5.95983 4.08281 6.26882 4.40193C6.42585 4.56402 6.58794 4.72612 6.75003 4.89327L8.13287 6.27612C8.6698 6.81305 8.6698 7.30945 8.13287 7.84638C7.98598 7.99328 7.84415 8.14017 7.69725 8.282C7.27176 8.71762 6.86653 9.12285 6.42585 9.51795C6.41571 9.52808 6.40558 9.53315 6.40052 9.54328C5.9649 9.9789 6.04594 10.4044 6.13712 10.6931C6.14219 10.7083 6.14725 10.7235 6.15232 10.7387C6.51196 11.6099 7.01849 12.4305 7.78843 13.4082L7.79349 13.4132C9.19153 15.1354 10.6656 16.4778 12.2915 17.506C12.4992 17.6377 12.712 17.7441 12.9146 17.8454C13.0969 17.9366 13.2692 18.0227 13.416 18.1139C13.4363 18.124 13.4566 18.1392 13.4768 18.1493C13.6491 18.2354 13.8111 18.276 13.9783 18.276C14.3987 18.276 14.6621 18.0126 14.7482 17.9265L16.4806 16.1941C16.6528 16.0219 16.9263 15.8142 17.2455 15.8142C17.5595 15.8142 17.8178 16.0117 17.9749 16.184C17.9799 16.189 17.9799 16.189 17.985 16.1941L20.776 18.9851C21.2978 19.5018 21.2978 20.0336 20.7811 20.5706Z" fill="#F7F3ED"/>
<path d="M12.9691 6.0792C14.2963 6.30207 15.5018 6.93018 16.4642 7.8926C17.4266 8.85502 18.0497 10.0606 18.2776 11.3877C18.3333 11.722 18.6221 11.955 18.9513 11.955C18.9918 11.955 19.0273 11.95 19.0678 11.9449C19.4427 11.8841 19.6909 11.5295 19.6301 11.1547C19.3565 9.54897 18.5967 8.08508 17.4368 6.92511C16.2768 5.76515 14.8129 5.00534 13.2072 4.73181C12.8324 4.67103 12.4828 4.91923 12.417 5.289C12.3512 5.65877 12.5943 6.01841 12.9691 6.0792Z" fill="#F7F3ED"/>
<path d="M23.9723 10.958C23.5215 8.31388 22.2754 5.90783 20.3607 3.99312C18.446 2.07842 16.04 0.832336 13.3958 0.381519C13.0261 0.315669 12.6766 0.568938 12.6107 0.938709C12.5499 1.31355 12.7981 1.66306 13.173 1.72891C15.5334 2.12907 17.6862 3.24852 19.3983 4.95554C21.1104 6.66764 22.2248 8.82042 22.6249 11.1809C22.6807 11.5152 22.9694 11.7482 23.2986 11.7482C23.3392 11.7482 23.3746 11.7431 23.4151 11.7381C23.7849 11.6823 24.0382 11.3278 23.9723 10.958Z" fill="#F7F3ED"/>
</g>
<defs>
<clipPath id="clip0_236_495">
<rect width="24" height="24" fill="white" transform="translate(0 0.371094)"/>
</clipPath>
</defs>
</svg>
