<svg width="60" height="60" viewBox="0 0 60 60" fill="none" xmlns="http://www.w3.org/2000/svg">
<path d="M53.56 12.8565C53.3469 12.5467 53.0554 12.3087 52.72 12.1708L28.72 2.44226C28.4929 2.33606 28.2478 2.28125 28 2.28125C27.7522 2.28125 27.5071 2.33606 27.28 2.44226L3.28 12.3423C2.96292 12.4322 2.67333 12.6095 2.44 12.8565C2.16059 13.2187 2.00532 13.6724 2 14.1423V45.5137C2.00519 45.9417 2.12988 46.3582 2.35802 46.7096C2.58616 47.0609 2.90728 47.3311 3.28 47.4851L27.28 57.3851H28H28.72L52.72 47.4851C53.0927 47.3311 53.4138 47.0609 53.642 46.7096C53.8701 46.3582 53.9948 45.9417 54 45.5137V14.3137C54.0338 13.7854 53.8762 13.2635 53.56 12.8565V12.8565Z" stroke="#5A5044" stroke-width="2" stroke-linecap="round" stroke-linejoin="round"/>
<path d="M27.998 57.6846V23.5703" stroke="#5A5044" stroke-width="2" stroke-linecap="round" stroke-linejoin="round"/>
<path d="M27.998 23.5703V57.6846" stroke="#5A5044" stroke-width="2" stroke-linecap="round" stroke-linejoin="round"/>
<path d="M2.43945 13.0273L27.9995 23.5702L53.5595 13.0273" stroke="#5A5044" stroke-width="2" stroke-linecap="round" stroke-linejoin="round"/>
</svg>
