<svg width="30" height="30" viewBox="0 0 30 30" fill="none" xmlns="http://www.w3.org/2000/svg">
<path d="M22.7973 3.30078H7.19729C6.83764 3.31066 6.48536 3.40503 6.16894 3.57627C5.85252 3.74751 5.58083 3.99081 5.37586 4.2865L1.47586 9.6865C1.18626 10.0957 1.04164 10.59 1.06493 11.0907C1.08822 11.5915 1.2781 12.0702 1.60443 12.4508L13.3044 25.9294C13.5047 26.1874 13.7614 26.3963 14.0548 26.54C14.3482 26.6837 14.6706 26.7584 14.9973 26.7584C15.324 26.7584 15.6464 26.6837 15.9398 26.54C16.2332 26.3963 16.4898 26.1874 16.6901 25.9294L28.3901 12.4508C28.7165 12.0702 28.9063 11.5915 28.9296 11.0907C28.9529 10.59 28.8083 10.0957 28.5187 9.6865L24.6187 4.2865C24.4137 3.99081 24.1421 3.74751 23.8256 3.57627C23.5092 3.40503 23.1569 3.31066 22.7973 3.30078V3.30078Z" stroke="#F7F3ED" stroke-linecap="round" stroke-linejoin="round"/>
<path d="M13.8848 3.27734L8.65625 11.3773L14.9991 26.6988" stroke="#F7F3ED" stroke-linecap="round" stroke-linejoin="round"/>
<path d="M16.1786 3.27734L21.3857 11.3773L15 26.6988" stroke="#F7F3ED" stroke-linecap="round" stroke-linejoin="round"/>
<path d="M1.10938 11.3789H28.8808" stroke="#F7F3ED" stroke-linecap="round" stroke-linejoin="round"/>
</svg>
