<svg width="22" height="22" viewBox="0 0 22 22" fill="none" xmlns="http://www.w3.org/2000/svg">
<path d="M14.3106 13.7868C14.5726 13.8742 14.8558 13.7326 14.9431 13.4706C15.0304 13.2086 14.8888 12.9255 14.6269 12.8382L14.3106 13.7868ZM11 12.1562H10.5C10.5 12.3715 10.6377 12.5625 10.8419 12.6306L11 12.1562ZM11.5 7.32145C11.5 7.04531 11.2761 6.82145 11 6.82145C10.7239 6.82145 10.5 7.04531 10.5 7.32145H11.5ZM14.4688 13.3125L14.6269 12.8382L11.1581 11.6819L11 12.1562L10.8419 12.6306L14.3106 13.7868L14.4688 13.3125ZM11 12.1562H11.5V7.32145H11H10.5V12.1562H11ZM20.25 11H19.75C19.75 15.8325 15.8325 19.75 11 19.75V20.25V20.75C16.3848 20.75 20.75 16.3848 20.75 11H20.25ZM11 20.25V19.75C6.16751 19.75 2.25 15.8325 2.25 11H1.75H1.25C1.25 16.3848 5.61522 20.75 11 20.75V20.25ZM1.75 11H2.25C2.25 6.16751 6.16751 2.25 11 2.25V1.75V1.25C5.61522 1.25 1.25 5.61522 1.25 11H1.75ZM11 1.75V2.25C15.8325 2.25 19.75 6.16751 19.75 11H20.25H20.75C20.75 5.61522 16.3848 1.25 11 1.25V1.75Z" fill="#F7F3ED"/>
</svg>
