<svg width="24" height="25" viewBox="0 0 24 25" fill="none" xmlns="http://www.w3.org/2000/svg">
<path d="M21.8906 3.93359H2.10938C0.943922 3.93359 0 4.88337 0 6.04297V18.6992C0 19.8657 0.950859 20.8086 2.10938 20.8086H21.8906C23.0463 20.8086 24 19.8697 24 18.6992V6.04297C24 4.88544 23.0598 3.93359 21.8906 3.93359ZM21.5952 5.33984C21.1642 5.76852 13.7476 13.1461 13.4916 13.4008C13.0931 13.7992 12.5634 14.0186 12 14.0186C11.4366 14.0186 10.9069 13.7992 10.5071 13.3995C10.3349 13.2282 3.00014 5.93206 2.40478 5.33984H21.5952ZM1.40625 18.413V6.33008L7.48303 12.3748L1.40625 18.413ZM2.40567 19.4023L8.48006 13.3666L9.51408 14.3952C10.1781 15.0592 11.061 15.4249 12 15.4249C12.939 15.4249 13.8219 15.0592 14.4846 14.3965L15.5199 13.3666L21.5943 19.4023H2.40567ZM22.5938 18.413L16.517 12.3748L22.5938 6.33008V18.413Z" fill="#F7F3ED"/>
</svg>
