<svg width="30" height="30" viewBox="0 0 30 30" fill="none" xmlns="http://www.w3.org/2000/svg">
<g clip-path="url(#clip0_1101_43)">
<path d="M26.7837 3.21484L19.4766 10.522" stroke="#F7F3ED" stroke-linecap="round" stroke-linejoin="round"/>
<path d="M3.21094 3.21484L10.5181 10.522" stroke="#F7F3ED" stroke-linecap="round" stroke-linejoin="round"/>
<path d="M3.21094 26.7837L10.5181 19.4766" stroke="#F7F3ED" stroke-linecap="round" stroke-linejoin="round"/>
<path d="M26.7837 26.7837L19.4766 19.4766" stroke="#F7F3ED" stroke-linecap="round" stroke-linejoin="round"/>
<path d="M14.9989 28.9275C22.6914 28.9275 28.9275 22.6914 28.9275 14.9989C28.9275 7.30635 22.6914 1.07031 14.9989 1.07031C7.30635 1.07031 1.07031 7.30635 1.07031 14.9989C1.07031 22.6914 7.30635 28.9275 14.9989 28.9275Z" stroke="#F7F3ED" stroke-linecap="round" stroke-linejoin="round"/>
<path d="M14.9972 21.3186C18.4884 21.3186 21.3186 18.4884 21.3186 14.9972C21.3186 11.506 18.4884 8.67578 14.9972 8.67578C11.506 8.67578 8.67578 11.506 8.67578 14.9972C8.67578 18.4884 11.506 21.3186 14.9972 21.3186Z" stroke="#F7F3ED" stroke-linecap="round" stroke-linejoin="round"/>
</g>
<defs>
<clipPath id="clip0_1101_43">
<rect width="30" height="30" fill="white"/>
</clipPath>
</defs>
</svg>
