<svg width="24" height="25" viewBox="0 0 24 25" fill="none" xmlns="http://www.w3.org/2000/svg">
<g clip-path="url(#clip0_236_4820)">
<path d="M12.8051 12.1998C12.5508 12.3102 12.2766 12.3672 11.9993 12.3672C11.7221 12.3672 11.4479 12.3102 11.1936 12.1998L1.4222 7.67409C1.26353 7.59406 1.13019 7.47156 1.03702 7.32022C0.94386 7.16889 0.894531 6.99466 0.894531 6.81695C0.894531 6.63924 0.94386 6.46501 1.03702 6.31368C1.13019 6.16234 1.26353 6.03984 1.4222 5.95981L11.1936 1.39981C11.4479 1.2894 11.7221 1.23242 11.9993 1.23242C12.2766 1.23242 12.5508 1.2894 12.8051 1.39981L22.5765 5.92552C22.7352 6.00555 22.8685 6.12806 22.9617 6.27939C23.0548 6.43073 23.1042 6.60495 23.1042 6.78266C23.1042 6.96038 23.0548 7.1346 22.9617 7.28594C22.8685 7.43727 22.7352 7.55978 22.5765 7.63981L12.8051 12.1998Z" stroke="#F7F3ED" stroke-linecap="round" stroke-linejoin="round"/>
<path d="M23.1431 12.9707L12.686 17.7878C12.4627 17.8897 12.22 17.9424 11.9746 17.9424C11.7291 17.9424 11.4865 17.8897 11.2631 17.7878L0.857422 12.9707" stroke="#F7F3ED" stroke-linecap="round" stroke-linejoin="round"/>
<path d="M23.1431 18.543L12.686 23.3601C12.4627 23.462 12.22 23.5147 11.9746 23.5147C11.7291 23.5147 11.4865 23.462 11.2631 23.3601L0.857422 18.543" stroke="#F7F3ED" stroke-linecap="round" stroke-linejoin="round"/>
</g>
<defs>
<clipPath id="clip0_236_4820">
<rect width="24" height="24" fill="white" transform="translate(0 0.371094)"/>
</clipPath>
</defs>
</svg>
