<svg width="60" height="60" viewBox="0 0 60 60" fill="none" xmlns="http://www.w3.org/2000/svg">
<path d="M53.5733 6.42969L38.959 21.044" stroke="#5A5044" stroke-width="2" stroke-linecap="round" stroke-linejoin="round"/>
<path d="M6.42383 6.42969L21.0381 21.044" stroke="#5A5044" stroke-width="2" stroke-linecap="round" stroke-linejoin="round"/>
<path d="M6.42383 53.5674L21.0381 38.9531" stroke="#5A5044" stroke-width="2" stroke-linecap="round" stroke-linejoin="round"/>
<path d="M53.5733 53.5733L38.959 38.959" stroke="#5A5044" stroke-width="2" stroke-linecap="round" stroke-linejoin="round"/>
<path d="M29.9997 57.8569C45.3848 57.8569 57.8569 45.3848 57.8569 29.9997C57.8569 14.6146 45.3848 2.14258 29.9997 2.14258C14.6146 2.14258 2.14258 14.6146 2.14258 29.9997C2.14258 45.3848 14.6146 57.8569 29.9997 57.8569Z" stroke="#5A5044" stroke-width="2" stroke-linecap="round" stroke-linejoin="round"/>
<path d="M29.9983 42.6412C36.9808 42.6412 42.6412 36.9808 42.6412 29.9983C42.6412 23.0159 36.9808 17.3555 29.9983 17.3555C23.0159 17.3555 17.3555 23.0159 17.3555 29.9983C17.3555 36.9808 23.0159 42.6412 29.9983 42.6412Z" stroke="#5A5044" stroke-width="2" stroke-linecap="round" stroke-linejoin="round"/>
</svg>
