<svg width="30" height="31" viewBox="0 0 30 31" fill="none" xmlns="http://www.w3.org/2000/svg">
<g clip-path="url(#clip0_236_765)">
<path d="M3.21512 13.7305H5.35798C5.64214 13.7305 5.91466 13.8434 6.11559 14.0443C6.31653 14.2452 6.42941 14.5177 6.42941 14.8019V20.159C6.42941 20.4432 6.31653 20.7157 6.11559 20.9167C5.91466 21.1176 5.64214 21.2305 5.35798 21.2305H3.21512C2.6468 21.2305 2.10176 21.0047 1.69989 20.6028C1.29803 20.201 1.07227 19.6559 1.07227 19.0876V15.8733C1.07227 15.305 1.29803 14.76 1.69989 14.3581C2.10176 13.9562 2.6468 13.7305 3.21512 13.7305V13.7305Z" stroke="#5A5044" stroke-linecap="round" stroke-linejoin="round"/>
<path d="M26.7868 21.2305H24.644C24.3598 21.2305 24.0873 21.1176 23.8864 20.9167C23.6854 20.7157 23.5725 20.4432 23.5725 20.159V14.8019C23.5725 14.5177 23.6854 14.2452 23.8864 14.0443C24.0873 13.8434 24.3598 13.7305 24.644 13.7305H26.7868C27.3552 13.7305 27.9002 13.9562 28.3021 14.3581C28.7039 14.76 28.9297 15.305 28.9297 15.8733V19.0876C28.9297 19.6559 28.7039 20.201 28.3021 20.6028C27.9002 21.0047 27.3552 21.2305 26.7868 21.2305V21.2305Z" stroke="#5A5044" stroke-linecap="round" stroke-linejoin="round"/>
<path d="M20.3594 27.1233C21.496 27.1233 22.5861 26.6718 23.3898 25.8681C24.1936 25.0643 24.6451 23.9743 24.6451 22.8376V21.2305" stroke="#5A5044" stroke-linecap="round" stroke-linejoin="round"/>
<path d="M17.678 24.4434C18.3884 24.4434 19.0697 24.7256 19.572 25.2279C20.0744 25.7302 20.3566 26.4115 20.3566 27.1219C20.3566 27.8323 20.0744 28.5136 19.572 29.016C19.0697 29.5183 18.3884 29.8005 17.678 29.8005H14.4637C13.7533 29.8005 13.072 29.5183 12.5697 29.016C12.0674 28.5136 11.7852 27.8323 11.7852 27.1219C11.7852 26.4115 12.0674 25.7302 12.5697 25.2279C13.072 24.7256 13.7533 24.4434 14.4637 24.4434H17.678Z" stroke="#5A5044" stroke-linecap="round" stroke-linejoin="round"/>
<path d="M5.35938 13.7291V11.5862C5.35938 9.02877 6.37532 6.57607 8.1837 4.76769C9.99209 2.9593 12.4448 1.94336 15.0022 1.94336C17.5597 1.94336 20.0124 2.9593 21.8208 4.76769C23.6291 6.57607 24.6451 9.02877 24.6451 11.5862V13.7291" stroke="#5A5044" stroke-linecap="round" stroke-linejoin="round"/>
<path d="M11.7852 9.44336V12.6576" stroke="#5A5044" stroke-linecap="round" stroke-linejoin="round"/>
<path d="M18.2148 9.44336V12.6576" stroke="#5A5044" stroke-linecap="round" stroke-linejoin="round"/>
<path d="M11.7852 16.9434C11.7852 19.7934 18.2137 19.7934 18.2137 16.9434" stroke="#5A5044" stroke-linecap="round" stroke-linejoin="round"/>
</g>
<defs>
<clipPath id="clip0_236_765">
<rect width="30" height="30" fill="white" transform="translate(0 0.871094)"/>
</clipPath>
</defs>
</svg>
