<svg width="50" height="51" viewBox="0 0 50 51" fill="none" xmlns="http://www.w3.org/2000/svg">
<path d="M38.75 16.5205V28.7393C38.75 29.7652 38.5479 30.7811 38.1553 31.729C37.7627 32.6768 37.1872 33.5381 36.4618 34.2635C35.7363 34.989 34.8751 35.5645 33.9272 35.9571C32.9794 36.3497 31.9635 36.5518 30.9375 36.5518H10.625V38.1143C10.6287 39.3563 11.1238 40.5464 12.002 41.4247C12.8803 42.303 14.0704 42.798 15.3125 42.8018H33.3281C33.5725 42.8049 33.813 42.8637 34.0312 42.9736L39.6094 45.7549C39.8277 45.8648 40.0681 45.9236 40.3125 45.9268C40.6049 45.9265 40.8915 45.8454 41.1406 45.6924C41.3658 45.5516 41.5514 45.3558 41.6799 45.1235C41.8084 44.8911 41.8755 44.6298 41.875 44.3643V20.9268C41.8723 19.9597 41.5705 19.0171 41.011 18.2282C40.4516 17.4394 39.6618 16.8429 38.75 16.5205Z" fill="#5A5044"/>
<path d="M40.625 28.7393V9.98926C40.625 8.74606 40.1311 7.55377 39.2521 6.67469C38.373 5.79562 37.1807 5.30176 35.9375 5.30176H7.8125C6.5693 5.30176 5.37701 5.79562 4.49794 6.67469C3.61886 7.55377 3.125 8.74606 3.125 9.98926V38.1143C3.12489 38.4087 3.20797 38.6971 3.36466 38.9464C3.52135 39.1957 3.74529 39.3956 4.01065 39.5231C4.27602 39.6507 4.57202 39.7006 4.86455 39.6673C5.15708 39.6339 5.43423 39.5186 5.66406 39.3346L12.6203 33.7689C12.8967 33.5479 13.2399 33.4273 13.5937 33.4268H35.9375C37.1807 33.4268 38.373 32.9329 39.2521 32.0538C40.1311 31.1747 40.625 29.9825 40.625 28.7393ZM23.3125 26.208C23.2423 26.4019 23.1304 26.578 22.9846 26.7238C22.8387 26.8696 22.6626 26.9816 22.4688 27.0518C22.2816 27.1341 22.0794 27.1767 21.875 27.1767C21.6706 27.1767 21.4684 27.1341 21.2812 27.0518C21.0874 26.9816 20.9113 26.8696 20.7654 26.7238C20.6196 26.578 20.5077 26.4019 20.4375 26.208C20.3574 26.0202 20.315 25.8184 20.3125 25.6143C20.3186 25.2006 20.4804 24.8045 20.7656 24.5049C20.9176 24.367 21.092 24.256 21.2812 24.1768C21.4677 24.0918 21.6701 24.0478 21.875 24.0478C22.0799 24.0478 22.2823 24.0918 22.4688 24.1768C22.658 24.256 22.8324 24.367 22.9844 24.5049C23.2722 24.8028 23.4344 25.2 23.4375 25.6143C23.435 25.8184 23.3926 26.0202 23.3125 26.208ZM23.6109 20.7393C23.5259 20.7903 23.4564 20.8635 23.4099 20.951C23.3633 21.0386 23.3416 21.1371 23.3469 21.2361C23.3469 21.6505 23.1823 22.048 22.8892 22.341C22.5962 22.634 22.1988 22.7986 21.7844 22.7986C21.37 22.7986 20.9725 22.634 20.6795 22.341C20.3865 22.048 20.2219 21.6505 20.2219 21.2361C20.2112 20.5192 20.4134 19.8152 20.8027 19.2131C21.1921 18.6109 21.7512 18.1378 22.4094 17.8533C22.738 17.717 23.0139 17.4785 23.1962 17.1731C23.3785 16.8676 23.4576 16.5116 23.4216 16.1577C23.3857 15.8038 23.2367 15.4709 22.9966 15.2083C22.7566 14.9458 22.4383 14.7676 22.0891 14.7002C21.6997 14.6292 21.2978 14.6984 20.9546 14.8954C20.6114 15.0925 20.349 15.4047 20.2141 15.7768C20.0724 16.1637 19.7837 16.479 19.4107 16.6541C19.0377 16.8292 18.6107 16.8499 18.2225 16.7117C17.8344 16.5734 17.5165 16.2874 17.3382 15.916C17.1598 15.5445 17.1355 15.1177 17.2703 14.7283C17.5361 13.9772 17.9854 13.3044 18.5774 12.7711C19.1694 12.2378 19.8853 11.861 20.6601 11.6749C21.4348 11.4889 22.2438 11.4994 23.0134 11.7056C23.7831 11.9119 24.4889 12.3072 25.0668 12.8557C25.6447 13.4043 26.0763 14.0886 26.3224 14.8464C26.5685 15.6042 26.6212 16.4116 26.4757 17.195C26.3303 17.9784 25.9913 18.713 25.4896 19.332C24.9879 19.951 24.3394 20.4347 23.6031 20.7393H23.6109Z" fill="#5A5044"/>
</svg>
