<svg width="28" height="28" viewBox="0 0 28 28" fill="none" xmlns="http://www.w3.org/2000/svg">
<g clip-path="url(#clip0_229_18898)">
<path d="M6.5 12C9.53757 12 12 9.53757 12 6.5C12 3.46243 9.53757 1 6.5 1C3.46243 1 1 3.46243 1 6.5C1 9.53757 3.46243 12 6.5 12Z" stroke="#F7F3ED" stroke-linecap="round" stroke-linejoin="round"/>
<path d="M21.5 12C24.5376 12 27 9.53757 27 6.5C27 3.46243 24.5376 1 21.5 1C18.4624 1 16 3.46243 16 6.5C16 9.53757 18.4624 12 21.5 12Z" stroke="#F7F3ED" stroke-linecap="round" stroke-linejoin="round"/>
<path d="M6.5 27C9.53757 27 12 24.5376 12 21.5C12 18.4624 9.53757 16 6.5 16C3.46243 16 1 18.4624 1 21.5C1 24.5376 3.46243 27 6.5 27Z" stroke="#F7F3ED" stroke-linecap="round" stroke-linejoin="round"/>
<path d="M21.5 27C24.5376 27 27 24.5376 27 21.5C27 18.4624 24.5376 16 21.5 16C18.4624 16 16 18.4624 16 21.5C16 24.5376 18.4624 27 21.5 27Z" stroke="#F7F3ED" stroke-linecap="round" stroke-linejoin="round"/>
</g>
<defs>
<clipPath id="clip0_229_18898">
<rect width="28" height="28" fill="white"/>
</clipPath>
</defs>
</svg>
