<svg width="24" height="24" viewBox="0 0 24 24" fill="none" xmlns="http://www.w3.org/2000/svg">
<path d="M21.4289 4.28516H2.57171C1.62493 4.28516 0.857422 5.05267 0.857422 5.99944V17.9994C0.857422 18.9462 1.62493 19.7137 2.57171 19.7137H21.4289C22.3756 19.7137 23.1431 18.9462 23.1431 17.9994V5.99944C23.1431 5.05267 22.3756 4.28516 21.4289 4.28516Z" stroke="#F7F3ED" stroke-linecap="round" stroke-linejoin="round"/>
<path d="M12.0011 14.5706C13.4213 14.5706 14.5725 13.4193 14.5725 11.9992C14.5725 10.579 13.4213 9.42773 12.0011 9.42773C10.581 9.42773 9.42969 10.579 9.42969 11.9992C9.42969 13.4193 10.581 14.5706 12.0011 14.5706Z" stroke="#F7F3ED" stroke-linecap="round" stroke-linejoin="round"/>
<path d="M5.14453 8.57031H6.00167" stroke="#F7F3ED" stroke-linecap="round" stroke-linejoin="round"/>
<path d="M18 15.4277H18.8571" stroke="#F7F3ED" stroke-linecap="round" stroke-linejoin="round"/>
</svg>
