<svg width="22" height="22" viewBox="0 0 22 22" fill="none" xmlns="http://www.w3.org/2000/svg">
<path d="M7.07087 20.4289C10.5424 20.4289 13.3566 17.6146 13.3566 14.1431C13.3566 10.6716 10.5424 7.85742 7.07087 7.85742C3.59937 7.85742 0.785156 10.6716 0.785156 14.1431C0.785156 17.6146 3.59937 20.4289 7.07087 20.4289Z" stroke="#F7F3ED" stroke-linecap="round" stroke-linejoin="round"/>
<path d="M14.9263 20.4289C18.3978 20.4289 21.2121 17.6146 21.2121 14.1431C21.2121 10.6716 18.3978 7.85742 14.9263 7.85742C11.4548 7.85742 8.64062 10.6716 8.64062 14.1431C8.64062 17.6146 11.4548 20.4289 14.9263 20.4289Z" stroke="#F7F3ED" stroke-linecap="round" stroke-linejoin="round"/>
<path d="M11.0006 14.1437C14.4721 14.1437 17.2863 11.3295 17.2863 7.85798C17.2863 4.38648 14.4721 1.57227 11.0006 1.57227C7.52905 1.57227 4.71484 4.38648 4.71484 7.85798C4.71484 11.3295 7.52905 14.1437 11.0006 14.1437Z" stroke="#F7F3ED" stroke-linecap="round" stroke-linejoin="round"/>
</svg>
