<svg width="41" height="41" viewBox="0 0 41 41" fill="none" xmlns="http://www.w3.org/2000/svg">
<g clip-path="url(#clip0_236_4921)">
<path d="M38.7607 17.2156L22.4451 17.2148C21.7246 17.2148 21.1406 17.7987 21.1406 18.5192V23.7313C21.1406 24.4516 21.7246 25.0357 22.445 25.0357H31.633C30.6269 27.6467 28.7491 29.8334 26.3533 31.2227L30.271 38.0047C36.5555 34.3701 40.271 27.9928 40.271 20.8539C40.271 19.8374 40.1961 19.1108 40.0462 18.2926C39.9323 17.6709 39.3927 17.2156 38.7607 17.2156Z" fill="#167EE6"/>
<path d="M20.2726 32.8655C15.7762 32.8655 11.8509 30.4088 9.74266 26.7734L2.96094 30.6823C6.41211 36.6638 12.8773 40.6916 20.2726 40.6916C23.9005 40.6916 27.3237 39.7148 30.2726 38.0126V38.0033L26.3548 31.2213C24.5628 32.2606 22.4891 32.8655 20.2726 32.8655Z" fill="#12B347"/>
<path d="M30.2715 38.014V38.0047L26.3537 31.2227C24.5617 32.262 22.4881 32.867 20.2715 32.867V40.693C23.8994 40.693 27.3227 39.7163 30.2715 38.014Z" fill="#0F993E"/>
<path d="M8.09758 20.6938C8.09758 18.4775 8.70242 16.404 9.74156 14.612L2.95984 10.7031C1.2482 13.6427 0.271484 17.0566 0.271484 20.6938C0.271484 24.331 1.2482 27.7449 2.95984 30.6845L9.74156 26.7756C8.70242 24.9837 8.09758 22.9102 8.09758 20.6938Z" fill="#FFD500"/>
<path d="M20.2706 8.51945C23.2027 8.51945 25.896 9.56133 27.9997 11.2944C28.5187 11.7219 29.273 11.691 29.7484 11.2156L33.4413 7.52266C33.9807 6.98328 33.9423 6.10039 33.3661 5.60055C29.8415 2.54281 25.2555 0.693359 20.2706 0.693359C12.8753 0.693359 6.41016 4.72125 2.95898 10.7027L9.7407 14.6116C11.8489 10.9762 15.7742 8.51945 20.2706 8.51945Z" fill="#FF4B26"/>
<path d="M28.0005 11.2944C28.5195 11.7219 29.2739 11.691 29.7492 11.2156L33.4422 7.52266C33.9815 6.98328 33.943 6.10039 33.367 5.60055C29.8423 2.54273 25.2564 0.693359 20.2715 0.693359V8.51945C23.2035 8.51945 25.8969 9.56133 28.0005 11.2944Z" fill="#D93F21"/>
</g>
<defs>
<clipPath id="clip0_236_4921">
<rect width="40" height="40" fill="white" transform="translate(0.271484 0.693359)"/>
</clipPath>
</defs>
</svg>
