<svg width="22" height="22" viewBox="0 0 22 22" fill="none" xmlns="http://www.w3.org/2000/svg">
<g clip-path="url(#clip0_310_2185)">
<path d="M5.10658 9.42801C7.49324 9.42801 9.42801 7.49324 9.42801 5.10658C9.42801 2.71993 7.49324 0.785156 5.10658 0.785156C2.71993 0.785156 0.785156 2.71993 0.785156 5.10658C0.785156 7.49324 2.71993 9.42801 5.10658 9.42801Z" stroke="#F7F3ED" stroke-linecap="round" stroke-linejoin="round"/>
<path d="M16.8917 9.42801C19.2784 9.42801 21.2132 7.49324 21.2132 5.10658C21.2132 2.71993 19.2784 0.785156 16.8917 0.785156C14.5051 0.785156 12.5703 2.71993 12.5703 5.10658C12.5703 7.49324 14.5051 9.42801 16.8917 9.42801Z" stroke="#F7F3ED" stroke-linecap="round" stroke-linejoin="round"/>
<path d="M5.10658 21.2132C7.49324 21.2132 9.42801 19.2784 9.42801 16.8917C9.42801 14.5051 7.49324 12.5703 5.10658 12.5703C2.71993 12.5703 0.785156 14.5051 0.785156 16.8917C0.785156 19.2784 2.71993 21.2132 5.10658 21.2132Z" stroke="#F7F3ED" stroke-linecap="round" stroke-linejoin="round"/>
<path d="M16.8917 21.2132C19.2784 21.2132 21.2132 19.2784 21.2132 16.8917C21.2132 14.5051 19.2784 12.5703 16.8917 12.5703C14.5051 12.5703 12.5703 14.5051 12.5703 16.8917C12.5703 19.2784 14.5051 21.2132 16.8917 21.2132Z" stroke="#F7F3ED" stroke-linecap="round" stroke-linejoin="round"/>
</g>
<defs>
<clipPath id="clip0_310_2185">
<rect width="22" height="22" fill="white"/>
</clipPath>
</defs>
</svg>
