<svg width="100" height="100" viewBox="0 0 100 100" fill="none" xmlns="http://www.w3.org/2000/svg">
<path d="M89.2907 10.7188L64.9336 35.0759" stroke="#5A5044" stroke-opacity="0.2" stroke-width="2" stroke-linecap="round" stroke-linejoin="round"/>
<path d="M10.7109 10.7188L35.0681 35.0759" stroke="#5A5044" stroke-opacity="0.2" stroke-width="2" stroke-linecap="round" stroke-linejoin="round"/>
<path d="M10.7109 89.2829L35.0681 64.9258" stroke="#5A5044" stroke-opacity="0.2" stroke-width="2" stroke-linecap="round" stroke-linejoin="round"/>
<path d="M89.2907 89.2907L64.9336 64.9336" stroke="#5A5044" stroke-opacity="0.2" stroke-width="2" stroke-linecap="round" stroke-linejoin="round"/>
<path d="M50.0028 96.4314C75.6446 96.4314 96.4314 75.6446 96.4314 50.0028C96.4314 24.361 75.6446 3.57422 50.0028 3.57422C24.361 3.57422 3.57422 24.361 3.57422 50.0028C3.57422 75.6446 24.361 96.4314 50.0028 96.4314Z" stroke="#5A5044" stroke-opacity="0.2" stroke-width="2" stroke-linecap="round" stroke-linejoin="round"/>
<path d="M50.0011 71.0725C61.6385 71.0725 71.0725 61.6385 71.0725 50.0011C71.0725 38.3637 61.6385 28.9297 50.0011 28.9297C38.3637 28.9297 28.9297 38.3637 28.9297 50.0011C28.9297 61.6385 38.3637 71.0725 50.0011 71.0725Z" stroke="#5A5044" stroke-opacity="0.2" stroke-width="2" stroke-linecap="round" stroke-linejoin="round"/>
</svg>
