<svg width="22" height="22" viewBox="0 0 22 22" fill="none" xmlns="http://www.w3.org/2000/svg">
<g clip-path="url(#clip0_310_2198)">
<path d="M2.35658 9.42773H3.92801C4.1364 9.42773 4.33625 9.51051 4.4836 9.65786C4.63095 9.80521 4.71373 10.0051 4.71373 10.2134V14.142C4.71373 14.3504 4.63095 14.5503 4.4836 14.6976C4.33625 14.845 4.1364 14.9277 3.92801 14.9277H2.35658C1.93982 14.9277 1.54012 14.7622 1.24542 14.4675C0.950717 14.1728 0.785156 13.7731 0.785156 13.3563V10.9992C0.785156 10.5824 0.950717 10.1827 1.24542 9.888C1.54012 9.5933 1.93982 9.42773 2.35658 9.42773V9.42773Z" stroke="#F7F3ED" stroke-linecap="round" stroke-linejoin="round"/>
<path d="M19.6434 14.9277H18.072C17.8636 14.9277 17.6638 14.845 17.5164 14.6976C17.3691 14.5503 17.2863 14.3504 17.2863 14.142V10.2134C17.2863 10.0051 17.3691 9.80521 17.5164 9.65786C17.6638 9.51051 17.8636 9.42773 18.072 9.42773H19.6434C20.0602 9.42773 20.4599 9.5933 20.7546 9.888C21.0493 10.1827 21.2148 10.5824 21.2148 10.9992V13.3563C21.2148 13.7731 21.0493 14.1728 20.7546 14.4675C20.4599 14.7622 20.0602 14.9277 19.6434 14.9277V14.9277Z" stroke="#F7F3ED" stroke-linecap="round" stroke-linejoin="round"/>
<path d="M14.9297 19.2492C15.7632 19.2492 16.5626 18.918 17.152 18.3286C17.7414 17.7392 18.0725 16.9398 18.0725 16.1063V14.9277" stroke="#F7F3ED" stroke-linecap="round" stroke-linejoin="round"/>
<path d="M12.9621 17.2852C13.483 17.2852 13.9826 17.4921 14.351 17.8605C14.7194 18.2289 14.9263 18.7285 14.9263 19.2494C14.9263 19.7704 14.7194 20.27 14.351 20.6384C13.9826 21.0068 13.483 21.2137 12.9621 21.2137H10.6049C10.0839 21.2137 9.58433 21.0068 9.21595 20.6384C8.84758 20.27 8.64062 19.7704 8.64062 19.2494C8.64062 18.7285 8.84758 18.2289 9.21595 17.8605C9.58433 17.4921 10.0839 17.2852 10.6049 17.2852H12.9621Z" stroke="#F7F3ED" stroke-linecap="round" stroke-linejoin="round"/>
<path d="M3.92969 9.42801V7.85658C3.92969 5.98112 4.67471 4.18248 6.00086 2.85633C7.32701 1.53018 9.12566 0.785156 11.0011 0.785156C12.8766 0.785156 14.6752 1.53018 16.0014 2.85633C17.3275 4.18248 18.0725 5.98112 18.0725 7.85658V9.42801" stroke="#F7F3ED" stroke-linecap="round" stroke-linejoin="round"/>
<path d="M8.64062 6.28516V8.6423" stroke="#F7F3ED" stroke-linecap="round" stroke-linejoin="round"/>
<path d="M13.3555 6.28516V8.6423" stroke="#F7F3ED" stroke-linecap="round" stroke-linejoin="round"/>
<path d="M8.64062 11.7852C8.64062 13.8752 13.3549 13.8752 13.3549 11.7852" stroke="#F7F3ED" stroke-linecap="round" stroke-linejoin="round"/>
</g>
<defs>
<clipPath id="clip0_310_2198">
<rect width="22" height="22" fill="white"/>
</clipPath>
</defs>
</svg>
