<svg width="24" height="24" viewBox="0 0 24 24" fill="none" xmlns="http://www.w3.org/2000/svg">
<g clip-path="url(#clip0_229_18282)">
<path d="M18.9677 14.8657C18.4763 14.3541 17.8837 14.0805 17.2556 14.0805C16.6326 14.0805 16.0348 14.349 15.5232 14.8606L13.9226 16.4562C13.7909 16.3853 13.6592 16.3194 13.5326 16.2536C13.3502 16.1624 13.178 16.0763 13.0311 15.9851C11.5317 15.0328 10.1691 13.7918 8.86229 12.1861C8.22911 11.3857 7.80362 10.7121 7.49464 10.0282C7.91 9.64833 8.29496 9.25323 8.6698 8.87333C8.81163 8.7315 8.95346 8.5846 9.09529 8.44277C10.159 7.37904 10.159 6.00127 9.09529 4.93754L7.71245 3.55469C7.55542 3.39767 7.39333 3.23558 7.24137 3.07349C6.93745 2.75943 6.61833 2.43525 6.28908 2.13133C5.79774 1.64505 5.21016 1.38672 4.59218 1.38672C3.97421 1.38672 3.3765 1.64505 2.86996 2.13133C2.86489 2.13639 2.86489 2.13639 2.85983 2.14146L1.13761 3.87888C0.489239 4.52724 0.119467 5.31744 0.0384213 6.23427C-0.0831474 7.71336 0.352474 9.09114 0.686788 9.99277C1.50738 12.2063 2.7332 14.2578 4.56179 16.4562C6.78042 19.1054 9.44987 21.1974 12.4992 22.6714C13.6643 23.2235 15.2193 23.8769 16.9567 23.9884C17.0631 23.9934 17.1745 23.9985 17.2759 23.9985C18.446 23.9985 19.4286 23.5781 20.1986 22.7423C20.2036 22.7322 20.2138 22.7271 20.2188 22.717C20.4822 22.3979 20.7862 22.1091 21.1053 21.8001C21.3231 21.5925 21.546 21.3746 21.7638 21.1467C22.2652 20.625 22.5286 20.0171 22.5286 19.3941C22.5286 18.766 22.2602 18.1632 21.7486 17.6567L18.9677 14.8657ZM20.7811 20.1995C20.776 20.1995 20.776 20.2045 20.7811 20.1995C20.5835 20.4122 20.3809 20.6047 20.1631 20.8175C19.8339 21.1315 19.4995 21.4608 19.1855 21.8305C18.6739 22.3776 18.0711 22.6359 17.2809 22.6359C17.2049 22.6359 17.1239 22.6359 17.0479 22.6309C15.5435 22.5346 14.1455 21.947 13.0969 21.4456C10.2299 20.0577 7.71245 18.0872 5.62045 15.59C3.89316 13.5081 2.73826 11.5833 1.97339 9.51663C1.50231 8.25535 1.33009 7.27267 1.40607 6.34571C1.45672 5.75306 1.68466 5.26172 2.10509 4.8413L3.83238 3.11401C4.08058 2.881 4.34398 2.75437 4.60231 2.75437C4.92143 2.75437 5.17977 2.94685 5.34186 3.10894C5.34692 3.11401 5.35199 3.11907 5.35705 3.12414C5.66604 3.41286 5.95983 3.71172 6.26882 4.03084C6.42585 4.19293 6.58794 4.35502 6.75003 4.52218L8.13287 5.90502C8.6698 6.44195 8.6698 6.93836 8.13287 7.47529C7.98598 7.62218 7.84415 7.76908 7.69725 7.91091C7.27176 8.34653 6.86653 8.75176 6.42585 9.14686C6.41571 9.15699 6.40558 9.16205 6.40052 9.17218C5.9649 9.60781 6.04594 10.0333 6.13712 10.322C6.14219 10.3372 6.14725 10.3524 6.15232 10.3676C6.51196 11.2389 7.01849 12.0594 7.78843 13.0371L7.79349 13.0421C9.19153 14.7643 10.6656 16.1067 12.2915 17.1349C12.4992 17.2666 12.712 17.373 12.9146 17.4743C13.0969 17.5655 13.2692 17.6516 13.416 17.7428C13.4363 17.7529 13.4566 17.7681 13.4768 17.7782C13.6491 17.8643 13.8111 17.9049 13.9783 17.9049C14.3987 17.9049 14.6621 17.6415 14.7482 17.5554L16.4806 15.823C16.6528 15.6508 16.9263 15.4431 17.2455 15.4431C17.5595 15.4431 17.8178 15.6407 17.9749 15.8129C17.9799 15.8179 17.9799 15.8179 17.985 15.823L20.776 18.614C21.2978 19.1307 21.2978 19.6626 20.7811 20.1995Z" fill="#8E714F"/>
<path d="M12.9691 5.7081C14.2963 5.93098 15.5018 6.55909 16.4642 7.5215C17.4266 8.48392 18.0497 9.68948 18.2776 11.0166C18.3333 11.3509 18.6221 11.5839 18.9513 11.5839C18.9918 11.5839 19.0273 11.5789 19.0678 11.5738C19.4427 11.513 19.6909 11.1584 19.6301 10.7836C19.3565 9.17788 18.5967 7.71399 17.4368 6.55402C16.2768 5.39405 14.8129 4.63425 13.2072 4.36072C12.8324 4.29993 12.4828 4.54814 12.417 4.91791C12.3512 5.28768 12.5943 5.64732 12.9691 5.7081Z" fill="#8E714F"/>
<path d="M23.9723 10.5869C23.5215 7.94279 22.2754 5.53674 20.3607 3.62203C18.446 1.70732 16.04 0.461243 13.3958 0.0104253C13.0261 -0.0554245 12.6766 0.197844 12.6107 0.567615C12.5499 0.942452 12.7981 1.29196 13.173 1.35781C15.5334 1.75798 17.6862 2.87742 19.3983 4.58445C21.1104 6.29654 22.2248 8.44932 22.6249 10.8098C22.6807 11.1441 22.9694 11.3771 23.2986 11.3771C23.3392 11.3771 23.3746 11.372 23.4151 11.367C23.7849 11.3113 24.0382 10.9567 23.9723 10.5869Z" fill="#8E714F"/>
</g>
<defs>
<clipPath id="clip0_229_18282">
<rect width="24" height="24" fill="white"/>
</clipPath>
</defs>
</svg>
