<svg width="24" height="24" viewBox="0 0 24 24" fill="none" xmlns="http://www.w3.org/2000/svg">
<path d="M21.4248 5.14223C21.3395 5.01828 21.2229 4.9231 21.0888 4.86794L11.4888 0.976512C11.3979 0.934035 11.2999 0.912109 11.2008 0.912109C11.1017 0.912109 11.0036 0.934035 10.9128 0.976512L1.31278 4.93651C1.18595 4.9725 1.07011 5.04342 0.976781 5.14223C0.865018 5.28709 0.802908 5.46858 0.800781 5.65651V18.2051C0.802856 18.3763 0.852735 18.5429 0.94399 18.6834C1.03524 18.824 1.16369 18.932 1.31278 18.9937L10.9128 22.9537H11.2008H11.4888L21.0888 18.9937C21.2379 18.932 21.3663 18.824 21.4576 18.6834C21.5488 18.5429 21.5987 18.3763 21.6008 18.2051V5.72508C21.6143 5.51377 21.5513 5.305 21.4248 5.14223V5.14223Z" stroke="#F7F3ED" stroke-linecap="round" stroke-linejoin="round"/>
<path d="M11.1992 23.0734V9.42773" stroke="#F7F3ED" stroke-linecap="round" stroke-linejoin="round"/>
<path d="M11.1992 9.42773V23.0734" stroke="#F7F3ED" stroke-linecap="round" stroke-linejoin="round"/>
<path d="M0.976562 5.21094L11.2006 9.42808L21.4246 5.21094" stroke="#F7F3ED" stroke-linecap="round" stroke-linejoin="round"/>
</svg>
