<svg width="28" height="28" viewBox="0 0 28 28" fill="none" xmlns="http://www.w3.org/2000/svg">
<g clip-path="url(#clip0_229_18838)">
<path d="M14.9425 13.7992C14.6459 13.928 14.3259 13.9945 14.0025 13.9945C13.6791 13.9945 13.3591 13.928 13.0625 13.7992L1.66249 8.51919C1.47738 8.42582 1.32181 8.2829 1.21312 8.10634C1.10443 7.92978 1.04687 7.72652 1.04688 7.51919C1.04687 7.31186 1.10443 7.10859 1.21312 6.93204C1.32181 6.75548 1.47738 6.61256 1.66249 6.51919L13.0625 1.19919C13.3591 1.07038 13.6791 1.00391 14.0025 1.00391C14.3259 1.00391 14.6459 1.07038 14.9425 1.19919L26.3425 6.47919C26.5276 6.57256 26.6832 6.71548 26.7919 6.89204C26.9006 7.06859 26.9581 7.27186 26.9581 7.47919C26.9581 7.68652 26.9006 7.88978 26.7919 8.06634C26.6832 8.2429 26.5276 8.38582 26.3425 8.47919L14.9425 13.7992Z" stroke="#F7F3ED" stroke-linecap="round" stroke-linejoin="round"/>
<path d="M27 14.6992L14.8 20.3192C14.5394 20.4381 14.2564 20.4996 13.97 20.4996C13.6836 20.4996 13.4006 20.4381 13.14 20.3192L1 14.6992" stroke="#F7F3ED" stroke-linecap="round" stroke-linejoin="round"/>
<path d="M27 21.1992L14.8 26.8192C14.5394 26.9381 14.2564 26.9996 13.97 26.9996C13.6836 26.9996 13.4006 26.9381 13.14 26.8192L1 21.1992" stroke="#F7F3ED" stroke-linecap="round" stroke-linejoin="round"/>
</g>
<defs>
<clipPath id="clip0_229_18838">
<rect width="28" height="28" fill="white"/>
</clipPath>
</defs>
</svg>
