<svg width="100" height="100" viewBox="0 0 100 100" fill="none" xmlns="http://www.w3.org/2000/svg">
<path d="M32.1417 92.8538C47.9213 92.8538 60.7132 80.0619 60.7132 64.2824C60.7132 48.5028 47.9213 35.7109 32.1417 35.7109C16.3622 35.7109 3.57031 48.5028 3.57031 64.2824C3.57031 80.0619 16.3622 92.8538 32.1417 92.8538Z" stroke="#5A5044" stroke-opacity="0.2" stroke-width="2" stroke-linecap="round" stroke-linejoin="round"/>
<path d="M67.8566 92.8538C83.6361 92.8538 96.428 80.0619 96.428 64.2824C96.428 48.5028 83.6361 35.7109 67.8566 35.7109C52.077 35.7109 39.2852 48.5028 39.2852 64.2824C39.2852 80.0619 52.077 92.8538 67.8566 92.8538Z" stroke="#5A5044" stroke-opacity="0.2" stroke-width="2" stroke-linecap="round" stroke-linejoin="round"/>
<path d="M50.0011 64.2835C65.7807 64.2835 78.5725 51.4916 78.5725 35.7121C78.5725 19.9325 65.7807 7.14062 50.0011 7.14062C34.2215 7.14062 21.4297 19.9325 21.4297 35.7121C21.4297 51.4916 34.2215 64.2835 50.0011 64.2835Z" stroke="#5A5044" stroke-opacity="0.2" stroke-width="2" stroke-linecap="round" stroke-linejoin="round"/>
</svg>
