<svg width="28" height="28" viewBox="0 0 28 28" fill="none" xmlns="http://www.w3.org/2000/svg">
<g clip-path="url(#clip0_229_18866)">
<path d="M6 27C8.76142 27 11 24.7614 11 22C11 19.2386 8.76142 17 6 17C3.23858 17 1 19.2386 1 22C1 24.7614 3.23858 27 6 27Z" stroke="#F7F3ED" stroke-linecap="round" stroke-linejoin="round"/>
<path d="M11.0016 6.00033V3.00033C11.0016 2.4699 10.7908 1.96119 10.4158 1.58612C10.0407 1.21104 9.532 1.00033 9.00156 1.00033H6.64156C6.17084 0.99177 5.71219 1.14954 5.34635 1.44587C4.98051 1.7422 4.73094 2.15809 4.64156 2.62033L1.10156 21.0003" stroke="#F7F3ED" stroke-linecap="round" stroke-linejoin="round"/>
<path d="M9 11H19" stroke="#F7F3ED" stroke-linecap="round" stroke-linejoin="round"/>
<path d="M11 16V22" stroke="#F7F3ED" stroke-linecap="round" stroke-linejoin="round"/>
<path d="M22 27C24.7614 27 27 24.7614 27 22C27 19.2386 24.7614 17 22 17C19.2386 17 17 19.2386 17 22C17 24.7614 19.2386 27 22 27Z" stroke="#F7F3ED" stroke-linecap="round" stroke-linejoin="round"/>
<path d="M17 6.00033V3.00033C17 2.4699 17.2107 1.96119 17.5858 1.58612C17.9609 1.21104 18.4696 1.00033 19 1.00033H21.36C21.8307 0.99177 22.2894 1.14954 22.6552 1.44587C23.0211 1.7422 23.2706 2.15809 23.36 2.62033L26.94 21.0003" stroke="#F7F3ED" stroke-linecap="round" stroke-linejoin="round"/>
<path d="M17 16V22" stroke="#F7F3ED" stroke-linecap="round" stroke-linejoin="round"/>
</g>
<defs>
<clipPath id="clip0_229_18866">
<rect width="28" height="28" fill="white"/>
</clipPath>
</defs>
</svg>
