<svg width="22" height="22" viewBox="0 0 22 22" fill="none" xmlns="http://www.w3.org/2000/svg">
<g clip-path="url(#clip0_310_2164)">
<path d="M11.7383 10.8405C11.5052 10.9418 11.2538 10.994 10.9997 10.994C10.7456 10.994 10.4942 10.9418 10.2612 10.8405L1.30401 6.69197C1.15856 6.61861 1.03633 6.50632 0.950932 6.36759C0.865531 6.22887 0.820312 6.06916 0.820312 5.90626C0.820312 5.74336 0.865531 5.58365 0.950932 5.44493C1.03633 5.3062 1.15856 5.19391 1.30401 5.12055L10.2612 0.940546C10.4942 0.839335 10.7456 0.787109 10.9997 0.787109C11.2538 0.787109 11.5052 0.839335 11.7383 0.940546L20.6954 5.08912C20.8409 5.16248 20.9631 5.27477 21.0485 5.4135C21.1339 5.55222 21.1791 5.71193 21.1791 5.87483C21.1791 6.03773 21.1339 6.19744 21.0485 6.33616C20.9631 6.47489 20.8409 6.58718 20.6954 6.66055L11.7383 10.8405Z" stroke="#F7F3ED" stroke-linecap="round" stroke-linejoin="round"/>
<path d="M21.2137 11.5469L11.628 15.9626C11.4233 16.056 11.2009 16.1043 10.9759 16.1043C10.7509 16.1043 10.5285 16.056 10.3237 15.9626L0.785156 11.5469" stroke="#F7F3ED" stroke-linecap="round" stroke-linejoin="round"/>
<path d="M21.2137 16.6543L11.628 21.07C11.4233 21.1634 11.2009 21.2117 10.9759 21.2117C10.7509 21.2117 10.5285 21.1634 10.3237 21.07L0.785156 16.6543" stroke="#F7F3ED" stroke-linecap="round" stroke-linejoin="round"/>
</g>
<defs>
<clipPath id="clip0_310_2164">
<rect width="22" height="22" fill="white"/>
</clipPath>
</defs>
</svg>
