<svg width="24" height="25" viewBox="0 0 24 25" fill="none" xmlns="http://www.w3.org/2000/svg">
<g clip-path="url(#clip0_236_4833)">
<path d="M8.966 4.22852L9.70314 2.32566C9.82746 2.00348 10.0462 1.72636 10.3307 1.53059C10.6151 1.33483 10.9521 1.22954 11.2974 1.22852H12.7031C13.0485 1.22954 13.3854 1.33483 13.6699 1.53059C13.9544 1.72636 14.1731 2.00348 14.2974 2.32566L15.0346 4.22852L17.5374 5.66852L19.5603 5.35994C19.8971 5.31422 20.2399 5.36967 20.5452 5.51924C20.8504 5.66881 21.1043 5.90575 21.2746 6.19994L21.9603 7.39994C22.136 7.69883 22.2169 8.04397 22.1925 8.38981C22.168 8.73565 22.0392 9.06594 21.8231 9.33709L20.5717 10.9314V13.8114L21.8574 15.4057C22.0735 15.6768 22.2023 16.0071 22.2267 16.3529C22.2512 16.6988 22.1703 17.0439 21.9946 17.3428L21.3089 18.5428C21.1386 18.837 20.8847 19.0739 20.5795 19.2235C20.2742 19.3731 19.9314 19.4285 19.5946 19.3828L17.5717 19.0742L15.0689 20.5142L14.3317 22.4171C14.2074 22.7393 13.9887 23.0164 13.7042 23.2122C13.4197 23.4079 13.0828 23.5132 12.7374 23.5142H11.2974C10.9521 23.5132 10.6151 23.4079 10.3307 23.2122C10.0462 23.0164 9.82746 22.7393 9.70314 22.4171L8.966 20.5142L6.46314 19.0742L4.44028 19.3828C4.10345 19.4285 3.76064 19.3731 3.45539 19.2235C3.15015 19.0739 2.89626 18.837 2.726 18.5428L2.04028 17.3428C1.86457 17.0439 1.78361 16.6988 1.8081 16.3529C1.83258 16.0071 1.96136 15.6768 2.17742 15.4057L3.42885 13.8114V10.9314L2.14314 9.33709C1.92707 9.06594 1.7983 8.73565 1.77381 8.38981C1.74933 8.04397 1.83028 7.69883 2.006 7.39994L2.69171 6.19994C2.86198 5.90575 3.11587 5.66881 3.42111 5.51924C3.72635 5.36967 4.06917 5.31422 4.406 5.35994L6.42885 5.66852L8.966 4.22852ZM8.57171 12.3714C8.57171 13.0495 8.77279 13.7124 9.14953 14.2762C9.52626 14.84 10.0617 15.2795 10.6882 15.539C11.3147 15.7985 12.0041 15.8664 12.6692 15.7341C13.3342 15.6018 13.9452 15.2752 14.4246 14.7957C14.9041 14.3162 15.2307 13.7053 15.363 13.0403C15.4953 12.3752 15.4274 11.6858 15.1679 11.0593C14.9084 10.4328 14.4689 9.89736 13.9051 9.52062C13.3413 9.14388 12.6784 8.9428 12.0003 8.9428C11.091 8.9428 10.2189 9.30402 9.57592 9.94701C8.93293 10.59 8.57171 11.4621 8.57171 12.3714V12.3714Z" stroke="#F7F3ED" stroke-linecap="round" stroke-linejoin="round"/>
</g>
<defs>
<clipPath id="clip0_236_4833">
<rect width="24" height="24" fill="white" transform="translate(0 0.371094)"/>
</clipPath>
</defs>
</svg>
