<svg width="100" height="100" viewBox="0 0 100 100" fill="none" xmlns="http://www.w3.org/2000/svg">
<path d="M89.2654 21.4302C88.9102 20.9137 88.4244 20.5171 87.8654 20.2873L47.8654 4.07303C47.4869 3.89604 47.0783 3.80469 46.6654 3.80469C46.2524 3.80469 45.8439 3.89604 45.4654 4.07303L5.46536 20.573C4.9369 20.723 4.45425 21.0185 4.06536 21.4302C3.59969 22.0338 3.34089 22.79 3.33203 23.573V75.8587C3.34068 76.5721 3.54851 77.2663 3.92873 77.8519C4.30896 78.4375 4.84416 78.8877 5.46536 79.1445L45.4654 95.6445H46.6654H47.8654L87.8654 79.1445C88.4866 78.8877 89.0218 78.4375 89.402 77.8519C89.7822 77.2663 89.9901 76.5721 89.9987 75.8587V23.8587C90.0551 22.9783 89.7924 22.1084 89.2654 21.4302V21.4302Z" stroke="#5A5044" stroke-opacity="0.2" stroke-width="2" stroke-linecap="round" stroke-linejoin="round"/>
<path d="M46.6641 96.1423V39.2852" stroke="#5A5044" stroke-opacity="0.2" stroke-width="2" stroke-linecap="round" stroke-linejoin="round"/>
<path d="M46.6641 39.2852V96.1423" stroke="#5A5044" stroke-opacity="0.2" stroke-width="2" stroke-linecap="round" stroke-linejoin="round"/>
<path d="M4.06641 21.7148L46.6664 39.2863L89.2664 21.7148" stroke="#5A5044" stroke-opacity="0.2" stroke-width="2" stroke-linecap="round" stroke-linejoin="round"/>
</svg>
