<svg width="24" height="25" viewBox="0 0 24 25" fill="none" xmlns="http://www.w3.org/2000/svg">
<g clip-path="url(#clip0_236_4806)">
<path d="M5.57171 10.6571C8.17534 10.6571 10.286 8.54643 10.286 5.9428C10.286 3.33917 8.17534 1.22852 5.57171 1.22852C2.96808 1.22852 0.857422 3.33917 0.857422 5.9428C0.857422 8.54643 2.96808 10.6571 5.57171 10.6571Z" stroke="#F7F3ED" stroke-linecap="round" stroke-linejoin="round"/>
<path d="M18.4291 10.6571C21.0328 10.6571 23.1434 8.54643 23.1434 5.9428C23.1434 3.33917 21.0328 1.22852 18.4291 1.22852C15.8255 1.22852 13.7148 3.33917 13.7148 5.9428C13.7148 8.54643 15.8255 10.6571 18.4291 10.6571Z" stroke="#F7F3ED" stroke-linecap="round" stroke-linejoin="round"/>
<path d="M5.57171 23.5145C8.17534 23.5145 10.286 21.4039 10.286 18.8002C10.286 16.1966 8.17534 14.0859 5.57171 14.0859C2.96808 14.0859 0.857422 16.1966 0.857422 18.8002C0.857422 21.4039 2.96808 23.5145 5.57171 23.5145Z" stroke="#F7F3ED" stroke-linecap="round" stroke-linejoin="round"/>
<path d="M18.4291 23.5145C21.0328 23.5145 23.1434 21.4039 23.1434 18.8002C23.1434 16.1966 21.0328 14.0859 18.4291 14.0859C15.8255 14.0859 13.7148 16.1966 13.7148 18.8002C13.7148 21.4039 15.8255 23.5145 18.4291 23.5145Z" stroke="#F7F3ED" stroke-linecap="round" stroke-linejoin="round"/>
</g>
<defs>
<clipPath id="clip0_236_4806">
<rect width="24" height="24" fill="white" transform="translate(0 0.371094)"/>
</clipPath>
</defs>
</svg>
