<svg width="50" height="50" viewBox="0 0 50 50" fill="none" xmlns="http://www.w3.org/2000/svg">
<circle cx="25" cy="25" r="25" fill="#F7F3ED"/>
<path d="M14.7598 34.686C14.7598 34.686 21.131 34.3849 21.8911 27.5547C15.0608 28.3147 14.7598 34.686 14.7598 34.686Z" fill="#8E714F"/>
<path d="M35.3149 34.686C35.3149 34.686 28.9436 34.3849 28.1836 27.5547C35.0138 28.3147 35.3149 34.686 35.3149 34.686Z" fill="#8E714F"/>
<path d="M14.7598 15.0332C14.7598 15.0332 21.131 15.3342 21.8911 22.1645C15.0608 21.4045 14.7598 15.0332 14.7598 15.0332Z" fill="#8E714F"/>
<path d="M35.3793 15.0332C35.3793 15.0332 29.0081 15.3342 28.248 22.1645C35.0734 21.4045 35.3793 15.0332 35.3793 15.0332Z" fill="#8E714F"/>
<path d="M16.6205 21.9238C18.7045 21.9239 20.2419 22.9878 21.2567 23.7389L21.4103 23.8369C21.7969 24.0509 22.3672 24.1673 22.9316 24.2172C23.0457 24.2273 23.1565 24.2309 23.2604 24.2357C23.4391 24.2285 23.5987 24.2264 23.7294 24.2275C23.8428 24.2284 23.9354 24.231 24.0005 24.2337C24.033 24.235 24.0597 24.2368 24.0778 24.2378C24.0865 24.2383 24.0934 24.2385 24.0984 24.2388C24.1008 24.239 24.1031 24.2398 24.1046 24.2399H24.1077L24.2087 24.2564C24.4356 24.3168 24.6006 24.5235 24.6004 24.7666C24.6001 25.0098 24.4348 25.2169 24.2077 25.2768L24.1067 25.2933H24.0974C24.0923 25.2936 24.0847 25.2938 24.0757 25.2943C24.0577 25.2952 24.0317 25.2972 23.9995 25.2984C23.9344 25.3009 23.8418 25.3028 23.7284 25.3036C23.5964 25.3044 23.435 25.3009 23.2542 25.2933C23.152 25.298 23.0437 25.3041 22.9316 25.3139C22.2867 25.3702 21.6346 25.5133 21.2577 25.7921C20.2429 26.5433 18.7052 27.6083 16.6205 27.6083C14.5364 27.6083 12.9991 26.5443 11.9843 25.7932L11.8307 25.6953C11.444 25.4811 10.8729 25.3648 10.3083 25.3149C10.1941 25.3048 10.0836 25.3002 9.97954 25.2953C9.80129 25.3025 9.64203 25.3057 9.51159 25.3046C9.39787 25.3037 9.30455 25.3011 9.23948 25.2984C9.20711 25.2971 9.18122 25.2953 9.1632 25.2943C9.15454 25.2938 9.14764 25.2936 9.14259 25.2933H9.13434L9.13331 25.2922C8.85603 25.2735 8.64031 25.0434 8.64063 24.7655C8.64095 24.4876 8.85702 24.2579 9.13434 24.2399H9.13537L9.13743 24.2388C9.13895 24.2387 9.1412 24.239 9.14362 24.2388C9.14865 24.2385 9.15555 24.2383 9.16423 24.2378C9.18221 24.2369 9.20821 24.236 9.24051 24.2347C9.30554 24.2322 9.39896 24.2293 9.51262 24.2285C9.64481 24.2277 9.80664 24.2301 9.98778 24.2378C10.0897 24.2331 10.1978 24.229 10.3094 24.2193C10.9543 24.1629 11.6064 24.0189 11.9833 23.74C12.9981 22.9888 14.5357 21.9238 16.6205 21.9238ZM16.6205 22.9793C14.9052 22.9793 13.6097 23.849 12.611 24.5883C12.522 24.6541 12.4262 24.7114 12.3275 24.7655C12.3823 24.7954 12.4364 24.826 12.4883 24.8593L12.6099 24.9428L12.611 24.9439L12.9996 25.2252C13.9401 25.887 15.1195 26.5528 16.6205 26.5528C18.3357 26.5528 19.6313 25.6831 20.63 24.9439C20.7189 24.8781 20.8139 24.8196 20.9124 24.7655C20.8143 24.712 20.7195 24.6543 20.6311 24.5893L20.63 24.5883C19.6313 23.849 18.3357 22.9793 16.6205 22.9793Z" fill="#636A55"/>
<path d="M33.3803 21.9238C35.4643 21.9239 37.0017 22.9878 38.0165 23.7389L38.17 23.8369C38.5566 24.0509 39.1269 24.1673 39.6914 24.2172C39.8055 24.2273 39.9163 24.2309 40.0202 24.2357C40.1988 24.2285 40.3585 24.2264 40.4892 24.2275C40.6026 24.2284 40.6952 24.231 40.7603 24.2337C40.7928 24.235 40.8195 24.2368 40.8376 24.2378C40.8462 24.2383 40.8531 24.2385 40.8582 24.2388C40.8606 24.239 40.8628 24.2398 40.8644 24.2399H40.8675L40.9685 24.2564C41.1954 24.3168 41.3603 24.5235 41.3601 24.7666C41.3599 25.0098 41.1945 25.2169 40.9674 25.2768L40.8664 25.2933H40.8571C40.852 25.2936 40.8445 25.2938 40.8355 25.2943C40.8174 25.2952 40.7915 25.2972 40.7592 25.2984C40.6942 25.3009 40.6016 25.3028 40.4881 25.3036C40.3562 25.3044 40.1948 25.3009 40.014 25.2933C39.9118 25.298 39.8034 25.3041 39.6914 25.3139C39.0465 25.3702 38.3944 25.5133 38.0175 25.7921C37.0027 26.5433 35.465 27.6083 33.3803 27.6083C31.3013 27.6083 29.7591 26.5445 28.7441 25.7932L28.5905 25.6953C28.2038 25.4811 27.6327 25.3648 27.0681 25.3149C26.9538 25.3048 26.8433 25.3002 26.7393 25.2953C26.5611 25.3025 26.4018 25.3057 26.2714 25.3046C26.1576 25.3037 26.0643 25.3011 25.9992 25.2984C25.9669 25.2971 25.941 25.2953 25.923 25.2943C25.9143 25.2938 25.9074 25.2936 25.9024 25.2933H25.8941L25.8931 25.2922C25.6158 25.2735 25.4001 25.0434 25.4004 24.7655C25.4007 24.4876 25.6168 24.2579 25.8941 24.2399H25.8951L25.8972 24.2388C25.8987 24.2387 25.901 24.239 25.9034 24.2388C25.9084 24.2385 25.9153 24.2383 25.924 24.2378C25.942 24.2369 25.968 24.236 26.0003 24.2347C26.0653 24.2322 26.1587 24.2293 26.2724 24.2285C26.4046 24.2277 26.5664 24.2301 26.7475 24.2378C26.8494 24.2331 26.9575 24.229 27.0691 24.2193C27.7141 24.1629 28.3662 24.0189 28.743 23.74C29.7578 22.9888 31.2955 21.9238 33.3803 21.9238ZM33.3803 22.9793C31.665 22.9793 30.3695 23.849 29.3707 24.5883C29.2818 24.6541 29.186 24.7114 29.0873 24.7655C29.1421 24.7954 29.1961 24.826 29.2481 24.8593L29.3697 24.9428L29.3707 24.9439L29.7593 25.2252C30.7005 25.8869 31.8834 26.5528 33.3803 26.5528C35.0955 26.5528 36.3911 25.6831 37.3898 24.9439C37.4786 24.8781 37.5736 24.8196 37.6722 24.7655C37.5741 24.712 37.4793 24.6543 37.3908 24.5893L37.3898 24.5883C36.3911 23.849 35.0955 22.9793 33.3803 22.9793Z" fill="#636A55"/>
<path d="M25.0244 10C25.1677 10 25.3053 10.0587 25.4047 10.1618L25.412 10.169C25.4157 10.173 25.4211 10.1788 25.4274 10.1855C25.4399 10.199 25.4573 10.218 25.479 10.2422C25.5229 10.2914 25.5848 10.3627 25.6604 10.4545C25.8114 10.6384 26.0175 10.9068 26.2458 11.2503C26.7016 11.936 27.2506 12.9304 27.6167 14.1652C28.3327 16.5804 28.3361 19.8708 25.7057 23.4881L25.4429 23.8395C25.343 23.9691 25.188 24.0447 25.0244 24.0447C24.9019 24.0446 24.7846 24.002 24.6915 23.9261L24.607 23.8395C21.7142 20.0844 21.694 16.6584 22.4332 14.1652C22.7992 12.9306 23.3472 11.936 23.803 11.2503C24.0313 10.9069 24.2374 10.6384 24.3884 10.4545C24.464 10.3626 24.5259 10.2914 24.5699 10.2422C24.5918 10.2177 24.6099 10.1991 24.6224 10.1855C24.6287 10.1788 24.6341 10.173 24.6379 10.169C24.6397 10.1672 24.6408 10.1651 24.642 10.1639L24.6441 10.1629V10.1618C24.6443 10.1616 24.6444 10.1618 24.9481 10.4545L24.6451 10.1618C24.7445 10.0587 24.8812 10.0001 25.0244 10ZM25.0244 11.3544C24.923 11.4876 24.806 11.6475 24.6822 11.8337C24.269 12.4553 23.7745 13.3551 23.4453 14.4651C22.8302 16.5398 22.7787 19.3923 25.0244 22.6223C27.2702 19.3922 27.2196 16.5399 26.6045 14.4651C26.2754 13.3551 25.7809 12.4553 25.3676 11.8337C25.2437 11.6472 25.1259 11.4877 25.0244 11.3544Z" fill="#636A55"/>
<path d="M25.0244 25.9551C25.1677 25.9551 25.3053 26.0137 25.4047 26.1169L25.412 26.1241C25.4157 26.1281 25.4211 26.1339 25.4274 26.1406C25.4399 26.1541 25.4573 26.173 25.479 26.1973C25.5229 26.2465 25.5848 26.3177 25.6604 26.4096C25.8114 26.5935 26.0175 26.8619 26.2458 27.2053C26.7016 27.8911 27.2506 28.8855 27.6167 30.1202C28.3327 32.5355 28.3361 35.8259 25.7057 39.4431L25.4429 39.7946C25.343 39.9242 25.188 39.9997 25.0244 39.9997C24.9019 39.9997 24.7846 39.9571 24.6915 39.8812L24.607 39.7946C21.7142 36.0394 21.694 32.6134 22.4332 30.1202C22.7992 28.8857 23.3472 27.8911 23.803 27.2053C24.0313 26.862 24.2374 26.5935 24.3884 26.4096C24.464 26.3177 24.5259 26.2465 24.5699 26.1973C24.5918 26.1728 24.6099 26.1541 24.6224 26.1406C24.6287 26.1338 24.6341 26.1281 24.6379 26.1241C24.6397 26.1222 24.6408 26.1202 24.642 26.119L24.6441 26.1179V26.1169C24.6443 26.1167 24.6444 26.1169 24.9481 26.4096L24.6451 26.1169C24.7445 26.0138 24.8812 25.9552 25.0244 25.9551ZM25.0244 27.3095C24.923 27.4427 24.806 27.6025 24.6822 27.7887C24.269 28.4104 23.7745 29.3101 23.4453 30.4202C22.8302 32.4949 22.7787 35.3474 25.0244 38.5773C27.2702 35.3473 27.2196 32.4949 26.6045 30.4202C26.2754 29.3101 25.7809 28.4104 25.3676 27.7887C25.2437 27.6023 25.1259 27.4428 25.0244 27.3095Z" fill="#636A55"/>
</svg>
