<svg width="176" height="50" viewBox="0 0 176 50" fill="none" xmlns="http://www.w3.org/2000/svg">
<path d="M73.464 35.336C72.1387 35.336 70.9067 35.0933 69.768 34.608C68.648 34.1227 67.6773 33.4507 66.856 32.592C66.0533 31.7147 65.4653 30.6973 65.092 29.54L68.256 28.168C68.76 29.3627 69.488 30.3053 70.44 30.996C71.392 31.668 72.4653 32.004 73.66 32.004C74.332 32.004 74.9107 31.9013 75.396 31.696C75.9 31.472 76.2827 31.1733 76.544 30.8C76.824 30.4267 76.964 29.9787 76.964 29.456C76.964 28.84 76.7773 28.336 76.404 27.944C76.0493 27.5333 75.508 27.216 74.78 26.992L70.776 25.704C69.152 25.2 67.9293 24.444 67.108 23.436C66.2867 22.428 65.876 21.2427 65.876 19.88C65.876 18.6853 66.1653 17.6307 66.744 16.716C67.3413 15.8013 68.1627 15.092 69.208 14.588C70.272 14.0653 71.4853 13.804 72.848 13.804C74.0987 13.804 75.2467 14.028 76.292 14.476C77.3373 14.9053 78.2333 15.512 78.98 16.296C79.7453 17.0613 80.3147 17.9667 80.688 19.012L77.552 20.412C77.1413 19.3667 76.5253 18.564 75.704 18.004C74.8827 17.4253 73.9307 17.136 72.848 17.136C72.2133 17.136 71.6533 17.248 71.168 17.472C70.6827 17.6773 70.3 17.976 70.02 18.368C69.7587 18.7413 69.628 19.1893 69.628 19.712C69.628 20.2907 69.8147 20.804 70.188 21.252C70.5613 21.6813 71.1307 22.0173 71.896 22.26L75.732 23.464C77.3933 24.0053 78.6347 24.752 79.456 25.704C80.296 26.656 80.716 27.832 80.716 29.232C80.716 30.4267 80.408 31.4813 79.792 32.396C79.176 33.3107 78.3267 34.0293 77.244 34.552C76.1613 35.0747 74.9013 35.336 73.464 35.336ZM83.8369 40.6V19.768H87.2809V22.792L86.9449 22.036C87.4676 21.2147 88.1769 20.58 89.0729 20.132C89.9689 19.6653 91.0049 19.432 92.1809 19.432C93.6182 19.432 94.9156 19.7867 96.0729 20.496C97.2302 21.2053 98.1449 22.1573 98.8169 23.352C99.5076 24.5467 99.8529 25.8907 99.8529 27.384C99.8529 28.8587 99.5169 30.2027 98.8449 31.416C98.1729 32.6293 97.2582 33.5907 96.1009 34.3C94.9436 34.9907 93.6276 35.336 92.1529 35.336C91.0516 35.336 90.0342 35.1213 89.1009 34.692C88.1862 34.244 87.4582 33.6093 86.9169 32.788L87.5049 32.06V40.6H83.8369ZM91.7329 31.976C92.5729 31.976 93.3196 31.78 93.9729 31.388C94.6262 30.996 95.1302 30.4547 95.4849 29.764C95.8582 29.0733 96.0449 28.28 96.0449 27.384C96.0449 26.488 95.8582 25.704 95.4849 25.032C95.1302 24.3413 94.6262 23.8 93.9729 23.408C93.3196 22.9973 92.5729 22.792 91.7329 22.792C90.9302 22.792 90.2022 22.988 89.5489 23.38C88.9142 23.772 88.4102 24.3227 88.0369 25.032C87.6822 25.7227 87.5049 26.5067 87.5049 27.384C87.5049 28.28 87.6822 29.0733 88.0369 29.764C88.4102 30.4547 88.9142 30.996 89.5489 31.388C90.2022 31.78 90.9302 31.976 91.7329 31.976ZM107.269 35.336C106.205 35.336 105.281 35.1587 104.497 34.804C103.713 34.4493 103.107 33.9453 102.677 33.292C102.248 32.62 102.033 31.8453 102.033 30.968C102.033 30.128 102.22 29.3813 102.593 28.728C102.967 28.056 103.545 27.496 104.329 27.048C105.113 26.6 106.103 26.2827 107.297 26.096L112.281 25.284V28.084L107.997 28.812C107.269 28.9427 106.728 29.176 106.373 29.512C106.019 29.848 105.841 30.2867 105.841 30.828C105.841 31.3507 106.037 31.7707 106.429 32.088C106.84 32.3867 107.344 32.536 107.941 32.536C108.707 32.536 109.379 32.3773 109.957 32.06C110.555 31.724 111.012 31.2667 111.329 30.688C111.665 30.1093 111.833 29.4747 111.833 28.784V24.864C111.833 24.2107 111.572 23.6693 111.049 23.24C110.545 22.792 109.873 22.568 109.033 22.568C108.249 22.568 107.549 22.7827 106.933 23.212C106.336 23.6227 105.897 24.1733 105.617 24.864L102.621 23.408C102.92 22.6053 103.387 21.9147 104.021 21.336C104.675 20.7387 105.44 20.272 106.317 19.936C107.195 19.6 108.147 19.432 109.173 19.432C110.424 19.432 111.525 19.6653 112.477 20.132C113.429 20.58 114.167 21.2147 114.689 22.036C115.231 22.8387 115.501 23.7813 115.501 24.864V35H112.029V32.396L112.813 32.34C112.421 32.9933 111.955 33.544 111.413 33.992C110.872 34.4213 110.256 34.7573 109.565 35C108.875 35.224 108.109 35.336 107.269 35.336ZM135.104 20.692C135.944 20.692 136.616 20.9627 137.12 21.504C137.642 22.0267 138.006 22.7267 138.212 23.604C138.436 24.4627 138.501 25.4053 138.408 26.432C138.333 27.44 138.118 28.42 137.764 29.372C137.465 30.212 137.073 30.996 136.588 31.724C136.121 32.4333 135.58 33.0587 134.964 33.6C134.348 34.1413 133.676 34.5613 132.948 34.86C132.238 35.1587 131.492 35.308 130.708 35.308C130.222 35.308 129.737 35.196 129.252 34.972C128.785 34.7293 128.412 34.3 128.132 33.684C127.87 33.068 127.786 32.2 127.88 31.08C127.6 31.864 127.189 32.5827 126.648 33.236C126.125 33.8707 125.546 34.3747 124.912 34.748C124.277 35.1213 123.642 35.308 123.008 35.308C121.925 35.308 121.169 34.9533 120.74 34.244C120.31 33.516 120.096 32.6573 120.096 31.668C120.096 30.9213 120.133 30.156 120.208 29.372C120.282 28.5693 120.366 27.7947 120.46 27.048C120.553 26.2827 120.637 25.5827 120.712 24.948C120.786 24.3133 120.824 23.8 120.824 23.408C120.824 23.0533 120.777 22.7453 120.684 22.484C120.609 22.2227 120.404 22.092 120.068 22.092C119.769 22.092 119.433 22.2973 119.06 22.708C118.705 23.1187 118.388 23.8187 118.108 24.808L117.324 24.64C117.38 24.304 117.492 23.9213 117.66 23.492C117.828 23.044 118.052 22.6053 118.332 22.176C118.63 21.7467 118.985 21.392 119.396 21.112C119.825 20.832 120.32 20.692 120.88 20.692C121.384 20.692 121.804 20.804 122.14 21.028C122.476 21.2333 122.728 21.5413 122.896 21.952C123.064 22.344 123.148 22.8293 123.148 23.408C123.148 24.024 123.11 24.7427 123.036 25.564C122.961 26.3853 122.868 27.2253 122.756 28.084C122.662 28.9427 122.578 29.736 122.504 30.464C122.429 31.192 122.392 31.752 122.392 32.144C122.392 32.4053 122.42 32.6667 122.476 32.928C122.55 33.1893 122.672 33.404 122.84 33.572C123.026 33.74 123.278 33.824 123.596 33.824C124.062 33.824 124.529 33.684 124.996 33.404C125.481 33.124 125.929 32.7133 126.34 32.172C126.75 31.6307 127.114 30.968 127.432 30.184C127.749 29.4 128.001 28.504 128.188 27.496C128.374 26.488 128.468 25.368 128.468 24.136C128.468 23.6507 128.449 23.1467 128.412 22.624C128.393 22.1013 128.346 21.56 128.272 21H130.68C130.717 21.1493 130.745 21.364 130.764 21.644C130.782 21.9053 130.792 22.1107 130.792 22.26C130.792 23.1933 130.745 24.0893 130.652 24.948C130.558 25.8067 130.446 26.628 130.316 27.412C130.204 28.196 130.101 28.9427 130.008 29.652C129.914 30.3613 129.868 31.0333 129.868 31.668C129.868 32.2093 129.961 32.704 130.148 33.152C130.334 33.6 130.745 33.8333 131.38 33.852C131.921 33.852 132.453 33.7307 132.976 33.488C133.498 33.2267 133.993 32.8627 134.46 32.396C134.945 31.9293 135.374 31.388 135.748 30.772C136.121 30.1373 136.429 29.456 136.672 28.728C136.784 28.3547 136.886 27.8693 136.98 27.272C137.073 26.656 137.101 26.0307 137.064 25.396C137.045 24.7427 136.933 24.1547 136.728 23.632C136.541 23.1093 136.214 22.7547 135.748 22.568C135.636 22.8107 135.477 22.988 135.272 23.1C135.066 23.212 134.842 23.268 134.6 23.268C134.357 23.268 134.096 23.1747 133.816 22.988C133.554 22.7827 133.424 22.4747 133.424 22.064C133.424 21.8587 133.47 21.6533 133.564 21.448C133.676 21.224 133.853 21.0467 134.096 20.916C134.357 20.7667 134.693 20.692 135.104 20.692ZM147.501 20.692C148.173 20.692 148.808 20.7947 149.405 21C150.003 21.2053 150.488 21.5413 150.861 22.008C151.235 22.4747 151.421 23.1093 151.421 23.912C151.421 24.6773 151.16 25.34 150.637 25.9C150.115 26.46 149.433 26.9267 148.593 27.3C147.753 27.6547 146.857 27.944 145.905 28.168C144.953 28.392 144.039 28.5507 143.161 28.644C143.161 29.8013 143.273 30.772 143.497 31.556C143.74 32.34 144.095 32.928 144.561 33.32C145.028 33.712 145.625 33.908 146.353 33.908C146.895 33.908 147.436 33.7867 147.977 33.544C148.537 33.3013 149.069 32.9373 149.573 32.452C150.077 31.948 150.535 31.304 150.945 30.52L151.869 31.052C151.347 32.0227 150.787 32.8253 150.189 33.46C149.592 34.0947 148.939 34.5613 148.229 34.86C147.52 35.1587 146.736 35.308 145.877 35.308C144.104 35.308 142.797 34.7573 141.957 33.656C141.117 32.536 140.697 31.0707 140.697 29.26C140.697 28.1773 140.837 27.1227 141.117 26.096C141.397 25.0693 141.817 24.1547 142.377 23.352C142.937 22.5307 143.647 21.8867 144.505 21.42C145.364 20.9347 146.363 20.692 147.501 20.692ZM147.109 21.644C146.251 21.644 145.541 21.9333 144.981 22.512C144.44 23.0907 144.02 23.8373 143.721 24.752C143.441 25.6667 143.264 26.628 143.189 27.636C144.179 27.5053 145.121 27.272 146.017 26.936C146.913 26.6 147.651 26.1707 148.229 25.648C148.808 25.1067 149.097 24.4813 149.097 23.772C149.097 23.1747 148.929 22.6707 148.593 22.26C148.276 21.8493 147.781 21.644 147.109 21.644ZM158.941 13.86C158.885 14.3267 158.801 14.8493 158.689 15.428C158.596 16.0067 158.503 16.576 158.409 17.136C158.335 17.696 158.269 18.1907 158.213 18.62C158.101 19.404 157.989 20.3 157.877 21.308C157.765 22.2973 157.653 23.3333 157.541 24.416C157.429 25.48 157.327 26.5253 157.233 27.552C157.159 28.5787 157.093 29.5213 157.037 30.38C156.981 31.22 156.953 31.9107 156.953 32.452C156.953 32.8067 156.991 33.1427 157.065 33.46C157.14 33.7587 157.355 33.908 157.709 33.908C158.027 33.908 158.372 33.712 158.745 33.32C159.137 32.9093 159.473 32.2 159.753 31.192L160.537 31.388C160.481 31.7053 160.36 32.088 160.173 32.536C160.005 32.984 159.772 33.4227 159.473 33.852C159.175 34.2627 158.811 34.608 158.381 34.888C157.971 35.168 157.485 35.308 156.925 35.308C156.16 35.308 155.6 35.1213 155.245 34.748C154.891 34.356 154.704 33.7867 154.685 33.04C154.667 32.5733 154.685 31.8827 154.741 30.968C154.816 30.0533 154.9 29.0173 154.993 27.86C155.105 26.684 155.227 25.4613 155.357 24.192C155.488 22.904 155.628 21.6533 155.777 20.44C155.927 19.2267 156.067 18.1253 156.197 17.136C156.291 16.632 156.347 16.3053 156.365 16.156C156.403 15.988 156.431 15.8107 156.449 15.624C156.113 15.6427 155.777 15.6613 155.441 15.68C155.124 15.6987 154.797 15.7173 154.461 15.736L154.601 14.616C155.423 14.616 156.057 14.5787 156.505 14.504C156.972 14.4293 157.327 14.336 157.569 14.224C157.812 14.112 158.008 13.9907 158.157 13.86H158.941ZM166.871 13.86C166.815 14.3267 166.731 14.8493 166.619 15.428C166.526 16.0067 166.432 16.576 166.339 17.136C166.264 17.696 166.199 18.1907 166.143 18.62C166.031 19.404 165.919 20.3 165.807 21.308C165.695 22.2973 165.583 23.3333 165.471 24.416C165.359 25.48 165.256 26.5253 165.163 27.552C165.088 28.5787 165.023 29.5213 164.967 30.38C164.911 31.22 164.883 31.9107 164.883 32.452C164.883 32.8067 164.92 33.1427 164.995 33.46C165.07 33.7587 165.284 33.908 165.639 33.908C165.956 33.908 166.302 33.712 166.675 33.32C167.067 32.9093 167.403 32.2 167.683 31.192L168.467 31.388C168.411 31.7053 168.29 32.088 168.103 32.536C167.935 32.984 167.702 33.4227 167.403 33.852C167.104 34.2627 166.74 34.608 166.311 34.888C165.9 35.168 165.415 35.308 164.855 35.308C164.09 35.308 163.53 35.1213 163.175 34.748C162.82 34.356 162.634 33.7867 162.615 33.04C162.596 32.5733 162.615 31.8827 162.671 30.968C162.746 30.0533 162.83 29.0173 162.923 27.86C163.035 26.684 163.156 25.4613 163.287 24.192C163.418 22.904 163.558 21.6533 163.707 20.44C163.856 19.2267 163.996 18.1253 164.127 17.136C164.22 16.632 164.276 16.3053 164.295 16.156C164.332 15.988 164.36 15.8107 164.379 15.624C164.043 15.6427 163.707 15.6613 163.371 15.68C163.054 15.6987 162.727 15.7173 162.391 15.736L162.531 14.616C163.352 14.616 163.987 14.5787 164.435 14.504C164.902 14.4293 165.256 14.336 165.499 14.224C165.742 14.112 165.938 13.9907 166.087 13.86H166.871Z" fill="#F7F3ED"/>
<path d="M171.749 31.92C172.197 31.92 172.561 32.0973 172.841 32.452C173.121 32.788 173.242 33.1987 173.205 33.684C173.186 34.188 173.009 34.608 172.673 34.944C172.337 35.28 171.954 35.448 171.525 35.448C171.095 35.448 170.731 35.28 170.433 34.944C170.134 34.608 169.994 34.188 170.013 33.684C170.05 33.1987 170.237 32.788 170.573 32.452C170.927 32.0973 171.319 31.92 171.749 31.92Z" fill="#8E714F"/>
<circle cx="25" cy="25" r="25" fill="#F7F3ED"/>
<path d="M14.7598 34.686C14.7598 34.686 21.131 34.3849 21.8911 27.5547C15.0608 28.3147 14.7598 34.686 14.7598 34.686Z" fill="#8E714F"/>
<path d="M35.3149 34.686C35.3149 34.686 28.9436 34.3849 28.1836 27.5547C35.0138 28.3147 35.3149 34.686 35.3149 34.686Z" fill="#8E714F"/>
<path d="M14.7598 15.0332C14.7598 15.0332 21.131 15.3342 21.8911 22.1645C15.0608 21.4045 14.7598 15.0332 14.7598 15.0332Z" fill="#8E714F"/>
<path d="M35.3793 15.0332C35.3793 15.0332 29.0081 15.3342 28.248 22.1645C35.0734 21.4045 35.3793 15.0332 35.3793 15.0332Z" fill="#8E714F"/>
<path d="M16.6205 21.9238C18.7045 21.9239 20.2419 22.9878 21.2567 23.7389L21.4103 23.8369C21.7969 24.0509 22.3672 24.1673 22.9316 24.2172C23.0457 24.2273 23.1565 24.2309 23.2604 24.2357C23.4391 24.2285 23.5987 24.2264 23.7294 24.2275C23.8428 24.2284 23.9354 24.231 24.0005 24.2337C24.033 24.235 24.0597 24.2368 24.0778 24.2378C24.0865 24.2383 24.0934 24.2385 24.0984 24.2388C24.1008 24.239 24.1031 24.2398 24.1046 24.2399H24.1077L24.2087 24.2564C24.4356 24.3168 24.6006 24.5235 24.6004 24.7666C24.6001 25.0098 24.4348 25.2169 24.2077 25.2768L24.1067 25.2933H24.0974C24.0923 25.2936 24.0847 25.2938 24.0757 25.2943C24.0577 25.2952 24.0317 25.2972 23.9995 25.2984C23.9344 25.3009 23.8418 25.3028 23.7284 25.3036C23.5964 25.3044 23.435 25.3009 23.2542 25.2933C23.152 25.298 23.0437 25.3041 22.9316 25.3139C22.2867 25.3702 21.6346 25.5133 21.2577 25.7921C20.2429 26.5433 18.7052 27.6083 16.6205 27.6083C14.5364 27.6083 12.9991 26.5443 11.9843 25.7932L11.8307 25.6953C11.444 25.4811 10.8729 25.3648 10.3083 25.3149C10.1941 25.3048 10.0836 25.3002 9.97954 25.2953C9.80129 25.3025 9.64203 25.3057 9.51159 25.3046C9.39787 25.3037 9.30455 25.3011 9.23948 25.2984C9.20711 25.2971 9.18122 25.2953 9.1632 25.2943C9.15454 25.2938 9.14764 25.2936 9.14259 25.2933H9.13434L9.13331 25.2922C8.85603 25.2735 8.64031 25.0434 8.64063 24.7655C8.64095 24.4876 8.85702 24.2579 9.13434 24.2399H9.13537L9.13743 24.2388C9.13895 24.2387 9.1412 24.239 9.14362 24.2388C9.14865 24.2385 9.15555 24.2383 9.16423 24.2378C9.18221 24.2369 9.20821 24.236 9.24051 24.2347C9.30554 24.2322 9.39896 24.2293 9.51262 24.2285C9.64481 24.2277 9.80664 24.2301 9.98778 24.2378C10.0897 24.2331 10.1978 24.229 10.3094 24.2193C10.9543 24.1629 11.6064 24.0189 11.9833 23.74C12.9981 22.9888 14.5357 21.9238 16.6205 21.9238ZM16.6205 22.9793C14.9052 22.9793 13.6097 23.849 12.611 24.5883C12.522 24.6541 12.4262 24.7114 12.3275 24.7655C12.3823 24.7954 12.4364 24.826 12.4883 24.8593L12.6099 24.9428L12.611 24.9439L12.9996 25.2252C13.9401 25.887 15.1195 26.5528 16.6205 26.5528C18.3357 26.5528 19.6313 25.6831 20.63 24.9439C20.7189 24.8781 20.8139 24.8196 20.9124 24.7655C20.8143 24.712 20.7195 24.6543 20.6311 24.5893L20.63 24.5883C19.6313 23.849 18.3357 22.9793 16.6205 22.9793Z" fill="#636A55"/>
<path d="M33.3803 21.9238C35.4643 21.9239 37.0017 22.9878 38.0165 23.7389L38.17 23.8369C38.5566 24.0509 39.1269 24.1673 39.6914 24.2172C39.8055 24.2273 39.9163 24.2309 40.0202 24.2357C40.1988 24.2285 40.3585 24.2264 40.4892 24.2275C40.6026 24.2284 40.6952 24.231 40.7603 24.2337C40.7928 24.235 40.8195 24.2368 40.8376 24.2378C40.8462 24.2383 40.8531 24.2385 40.8582 24.2388C40.8606 24.239 40.8628 24.2398 40.8644 24.2399H40.8675L40.9685 24.2564C41.1954 24.3168 41.3603 24.5235 41.3601 24.7666C41.3599 25.0098 41.1945 25.2169 40.9674 25.2768L40.8664 25.2933H40.8571C40.852 25.2936 40.8445 25.2938 40.8355 25.2943C40.8174 25.2952 40.7915 25.2972 40.7592 25.2984C40.6942 25.3009 40.6016 25.3028 40.4881 25.3036C40.3562 25.3044 40.1948 25.3009 40.014 25.2933C39.9118 25.298 39.8034 25.3041 39.6914 25.3139C39.0465 25.3702 38.3944 25.5133 38.0175 25.7921C37.0027 26.5433 35.465 27.6083 33.3803 27.6083C31.3013 27.6083 29.7591 26.5445 28.7441 25.7932L28.5905 25.6953C28.2038 25.4811 27.6327 25.3648 27.0681 25.3149C26.9538 25.3048 26.8433 25.3002 26.7393 25.2953C26.5611 25.3025 26.4018 25.3057 26.2714 25.3046C26.1576 25.3037 26.0643 25.3011 25.9992 25.2984C25.9669 25.2971 25.941 25.2953 25.923 25.2943C25.9143 25.2938 25.9074 25.2936 25.9024 25.2933H25.8941L25.8931 25.2922C25.6158 25.2735 25.4001 25.0434 25.4004 24.7655C25.4007 24.4876 25.6168 24.2579 25.8941 24.2399H25.8951L25.8972 24.2388C25.8987 24.2387 25.901 24.239 25.9034 24.2388C25.9084 24.2385 25.9153 24.2383 25.924 24.2378C25.942 24.2369 25.968 24.236 26.0003 24.2347C26.0653 24.2322 26.1587 24.2293 26.2724 24.2285C26.4046 24.2277 26.5664 24.2301 26.7475 24.2378C26.8494 24.2331 26.9575 24.229 27.0691 24.2193C27.7141 24.1629 28.3662 24.0189 28.743 23.74C29.7578 22.9888 31.2955 21.9238 33.3803 21.9238ZM33.3803 22.9793C31.665 22.9793 30.3695 23.849 29.3707 24.5883C29.2818 24.6541 29.186 24.7114 29.0873 24.7655C29.1421 24.7954 29.1961 24.826 29.2481 24.8593L29.3697 24.9428L29.3707 24.9439L29.7593 25.2252C30.7005 25.8869 31.8834 26.5528 33.3803 26.5528C35.0955 26.5528 36.3911 25.6831 37.3898 24.9439C37.4786 24.8781 37.5736 24.8196 37.6722 24.7655C37.5741 24.712 37.4793 24.6543 37.3908 24.5893L37.3898 24.5883C36.3911 23.849 35.0955 22.9793 33.3803 22.9793Z" fill="#636A55"/>
<path d="M25.0244 10C25.1677 10 25.3053 10.0587 25.4047 10.1618L25.412 10.169C25.4157 10.173 25.4211 10.1788 25.4274 10.1855C25.4399 10.199 25.4573 10.218 25.479 10.2422C25.5229 10.2914 25.5848 10.3627 25.6604 10.4545C25.8114 10.6384 26.0175 10.9068 26.2458 11.2503C26.7016 11.936 27.2506 12.9304 27.6167 14.1652C28.3327 16.5804 28.3361 19.8708 25.7057 23.4881L25.4429 23.8395C25.343 23.9691 25.188 24.0447 25.0244 24.0447C24.9019 24.0446 24.7846 24.002 24.6915 23.9261L24.607 23.8395C21.7142 20.0844 21.694 16.6584 22.4332 14.1652C22.7992 12.9306 23.3472 11.936 23.803 11.2503C24.0313 10.9069 24.2374 10.6384 24.3884 10.4545C24.464 10.3626 24.5259 10.2914 24.5699 10.2422C24.5918 10.2177 24.6099 10.1991 24.6224 10.1855C24.6287 10.1788 24.6341 10.173 24.6379 10.169C24.6397 10.1672 24.6408 10.1651 24.642 10.1639L24.6441 10.1629V10.1618C24.6443 10.1616 24.6444 10.1618 24.9481 10.4545L24.6451 10.1618C24.7445 10.0587 24.8812 10.0001 25.0244 10ZM25.0244 11.3544C24.923 11.4876 24.806 11.6475 24.6822 11.8337C24.269 12.4553 23.7745 13.3551 23.4453 14.4651C22.8302 16.5398 22.7787 19.3923 25.0244 22.6223C27.2702 19.3922 27.2196 16.5399 26.6045 14.4651C26.2754 13.3551 25.7809 12.4553 25.3676 11.8337C25.2437 11.6472 25.1259 11.4877 25.0244 11.3544Z" fill="#636A55"/>
<path d="M25.0244 25.9551C25.1677 25.9551 25.3053 26.0137 25.4047 26.1169L25.412 26.1241C25.4157 26.1281 25.4211 26.1339 25.4274 26.1406C25.4399 26.1541 25.4573 26.173 25.479 26.1973C25.5229 26.2465 25.5848 26.3177 25.6604 26.4096C25.8114 26.5935 26.0175 26.8619 26.2458 27.2053C26.7016 27.8911 27.2506 28.8855 27.6167 30.1202C28.3327 32.5355 28.3361 35.8259 25.7057 39.4431L25.4429 39.7946C25.343 39.9242 25.188 39.9997 25.0244 39.9997C24.9019 39.9997 24.7846 39.9571 24.6915 39.8812L24.607 39.7946C21.7142 36.0394 21.694 32.6134 22.4332 30.1202C22.7992 28.8857 23.3472 27.8911 23.803 27.2053C24.0313 26.862 24.2374 26.5935 24.3884 26.4096C24.464 26.3177 24.5259 26.2465 24.5699 26.1973C24.5918 26.1728 24.6099 26.1541 24.6224 26.1406C24.6287 26.1338 24.6341 26.1281 24.6379 26.1241C24.6397 26.1222 24.6408 26.1202 24.642 26.119L24.6441 26.1179V26.1169C24.6443 26.1167 24.6444 26.1169 24.9481 26.4096L24.6451 26.1169C24.7445 26.0138 24.8812 25.9552 25.0244 25.9551ZM25.0244 27.3095C24.923 27.4427 24.806 27.6025 24.6822 27.7887C24.269 28.4104 23.7745 29.3101 23.4453 30.4202C22.8302 32.4949 22.7787 35.3474 25.0244 38.5773C27.2702 35.3473 27.2196 32.4949 26.6045 30.4202C26.2754 29.3101 25.7809 28.4104 25.3676 27.7887C25.2437 27.6023 25.1259 27.4428 25.0244 27.3095Z" fill="#636A55"/>
</svg>
