<svg width="141" height="33" viewBox="0 0 141 33" fill="none" xmlns="http://www.w3.org/2000/svg">
<path fill-rule="evenodd" clip-rule="evenodd" d="M21.2322 9.81852C19.9112 8.93585 18.358 8.46471 16.7693 8.46471V0.431641C19.9468 0.431641 23.053 1.3739 25.6951 3.13927C28.3372 4.90464 30.3964 7.41383 31.6124 10.3495C32.8284 13.2852 33.1466 16.5156 32.5267 19.6321C31.9068 22.7486 30.3766 25.6114 28.1297 27.8582C25.8829 30.1052 23.0201 31.6353 19.9036 32.2552C16.7871 32.8751 13.5567 32.5569 10.621 31.341C7.68531 30.1249 5.17612 28.0657 3.41076 25.4236C1.64539 22.7816 0.703125 19.6753 0.703125 16.4978H8.73619C8.73619 18.0866 9.20733 19.6397 10.09 20.9607C10.9727 22.2817 12.2273 23.3113 13.6952 23.9194C15.163 24.5274 16.7782 24.6864 18.3364 24.3764C19.8947 24.0665 21.326 23.3015 22.4495 22.178C23.5729 21.0545 24.338 19.6232 24.6479 18.0649C24.9579 16.5067 24.7989 14.8915 24.1909 13.4237C23.5828 11.9558 22.5532 10.7012 21.2322 9.81852Z" fill="#8E714F"/>
<path fill-rule="evenodd" clip-rule="evenodd" d="M8.73619 0.431645C8.73619 1.48656 8.52841 2.53115 8.12471 3.50577C7.72101 4.48038 7.1293 5.36594 6.38336 6.11188C5.63742 6.85783 4.75187 7.44953 3.77725 7.85323C2.80263 8.25693 1.75804 8.46471 0.703125 8.46471L0.703125 16.4978C2.81296 16.4978 4.90213 16.0822 6.85137 15.2748C8.80061 14.4674 10.5717 13.284 12.0636 11.7921C13.5555 10.3003 14.7389 8.52914 15.5463 6.57989C16.3537 4.63065 16.7693 2.54147 16.7693 0.431641L8.73619 0.431645Z" fill="#8E714F"/>
<path d="M45.6875 21.6832H55.2886V18.7913H49.0999V7.89844H45.6875V21.6832Z" fill="#8E714F"/>
<path d="M61.357 19.756C59.9882 19.756 59.2748 18.5607 59.2748 16.7677C59.2748 14.9747 59.9882 13.7601 61.357 13.7601C62.7258 13.7601 63.4585 14.9747 63.4585 16.7677C63.4585 18.5607 62.7258 19.756 61.357 19.756ZM61.3763 21.9924C64.5574 21.9924 66.6396 19.7367 66.6396 16.7677C66.6396 13.7987 64.5574 11.543 61.3763 11.543C58.2145 11.543 56.0938 13.7987 56.0938 16.7677C56.0938 19.7367 58.2145 21.9924 61.3763 21.9924Z" fill="#8E714F"/>
<path d="M72.4733 25.0961C73.9386 25.0961 75.2303 24.7684 76.0978 23.9972C76.8883 23.2838 77.4088 22.2042 77.4088 20.7197V11.8126H74.4013V12.873H74.3627C73.7843 12.044 72.8975 11.5234 71.5865 11.5234C69.138 11.5234 67.4414 13.5671 67.4414 16.459C67.4414 19.4858 69.5043 21.1438 71.7214 21.1438C72.9167 21.1438 73.6686 20.6619 74.247 20.0064H74.3241V20.9896C74.3241 22.1849 73.765 22.879 72.4348 22.879C71.3937 22.879 70.8731 22.4356 70.6996 21.915H67.6535C67.9619 23.9779 69.7549 25.0961 72.4733 25.0961ZM72.454 18.811C71.278 18.811 70.5068 17.8471 70.5068 16.3626C70.5068 14.8588 71.278 13.8948 72.454 13.8948C73.765 13.8948 74.4591 15.013 74.4591 16.3433C74.4591 17.7314 73.8229 18.811 72.454 18.811Z" fill="#8E714F"/>
<path d="M83.4742 19.756C82.1054 19.756 81.392 18.5607 81.392 16.7677C81.392 14.9747 82.1054 13.7601 83.4742 13.7601C84.843 13.7601 85.5757 14.9747 85.5757 16.7677C85.5757 18.5607 84.843 19.756 83.4742 19.756ZM83.4935 21.9924C86.6746 21.9924 88.7563 19.7367 88.7563 16.7677C88.7563 13.7987 86.6746 11.543 83.4935 11.543C80.3317 11.543 78.2109 13.7987 78.2109 16.7677C78.2109 19.7367 80.3317 21.9924 83.4935 21.9924Z" fill="#8E714F"/>
<path d="M89.5605 21.6832H92.7031V11.8121H89.5605V21.6832ZM89.5605 10.4433H92.7031V7.89844H89.5605V10.4433Z" fill="#8E714F"/>
<path d="M93.5078 24.9419H96.6503V20.6619H96.6889C97.3058 21.4909 98.212 21.9921 99.4844 21.9921C102.068 21.9921 103.784 19.9485 103.784 16.7481C103.784 13.7791 102.184 11.5234 99.5615 11.5234C98.212 11.5234 97.248 12.1211 96.5732 13.0079H96.5154V11.8126H93.5078V24.9419ZM98.6747 19.5629C97.3251 19.5629 96.554 18.464 96.554 16.8638C96.554 15.2636 97.248 14.049 98.6168 14.049C99.9664 14.049 100.603 15.1672 100.603 16.8638C100.603 18.5411 99.87 19.5629 98.6747 19.5629Z" fill="#8E714F"/>
<path d="M109.387 21.9921C111.97 21.9921 113.879 20.8739 113.879 18.7146C113.879 16.189 111.835 15.7456 110.1 15.4564C108.847 15.2251 107.728 15.1287 107.728 14.4346C107.728 13.8177 108.326 13.5285 109.097 13.5285C109.965 13.5285 110.563 13.7984 110.678 14.6853H113.57C113.416 12.738 111.912 11.5234 109.117 11.5234C106.784 11.5234 104.856 12.6031 104.856 14.6853C104.856 16.9988 106.687 17.4615 108.403 17.7507C109.714 17.982 110.91 18.0784 110.91 18.9653C110.91 19.6015 110.312 19.9485 109.367 19.9485C108.326 19.9485 107.671 19.4665 107.555 18.4833H104.586C104.682 20.6619 106.495 21.9921 109.387 21.9921Z" fill="#8E714F"/>
<path d="M118.152 21.9727C119.521 21.9727 120.388 21.4329 121.102 20.4689H121.16V21.6835H124.167V11.8125H121.025V17.3264C121.025 18.5024 120.369 19.3122 119.289 19.3122C118.287 19.3122 117.805 18.7145 117.805 17.6349V11.8125H114.682V18.2904C114.682 20.4882 115.877 21.9727 118.152 21.9727Z" fill="#8E714F"/>
<path d="M124.971 21.6837H128.113V16.1505C128.113 14.9744 128.692 14.1454 129.675 14.1454C130.62 14.1454 131.063 14.7624 131.063 15.8227V21.6837H134.206V16.1505C134.206 14.9744 134.765 14.1454 135.767 14.1454C136.712 14.1454 137.155 14.7624 137.155 15.8227V21.6837H140.298V15.2636C140.298 13.0465 139.18 11.5234 136.943 11.5234C135.671 11.5234 134.61 12.0633 133.839 13.2586H133.801C133.299 12.1982 132.316 11.5234 131.024 11.5234C129.598 11.5234 128.653 12.1982 128.036 13.22H127.978V11.8126H124.971V21.6837Z" fill="#8E714F"/>
</svg>
