<svg width="141" height="33" viewBox="0 0 141 33" fill="none" xmlns="http://www.w3.org/2000/svg">
<path fill-rule="evenodd" clip-rule="evenodd" d="M21.2322 10.1916C19.9112 9.3089 18.358 8.83776 16.7693 8.83776V0.804688C19.9468 0.804688 23.053 1.74695 25.6951 3.51232C28.3372 5.27768 30.3964 7.78688 31.6124 10.7226C32.8284 13.6582 33.1466 16.8887 32.5267 20.0052C31.9068 23.1217 30.3766 25.9844 28.1297 28.2313C25.8829 30.4782 23.0201 32.0083 19.9036 32.6283C16.7871 33.2482 13.5567 32.93 10.621 31.714C7.68531 30.498 5.17612 28.4388 3.41076 25.7967C1.64539 23.1546 0.703125 20.0484 0.703125 16.8708H8.73619C8.73619 18.4596 9.20733 20.0127 10.09 21.3338C10.9727 22.6548 12.2273 23.6844 13.6952 24.2924C15.163 24.9004 16.7782 25.0595 18.3364 24.7495C19.8947 24.4396 21.326 23.6745 22.4495 22.5511C23.5729 21.4276 24.338 19.9962 24.6479 18.438C24.9579 16.8797 24.7989 15.2645 24.1909 13.7967C23.5828 12.3288 22.5532 11.0742 21.2322 10.1916Z" fill="#8E714F"/>
<path fill-rule="evenodd" clip-rule="evenodd" d="M8.73619 0.804692C8.73619 1.85961 8.52841 2.9042 8.12471 3.87882C7.72101 4.85343 7.1293 5.73899 6.38336 6.48493C5.63742 7.23087 4.75187 7.82258 3.77725 8.22628C2.80263 8.62998 1.75804 8.83776 0.703125 8.83776L0.703125 16.8708C2.81296 16.8708 4.90213 16.4553 6.85137 15.6479C8.80061 14.8405 10.5717 13.657 12.0636 12.1651C13.5555 10.6733 14.7389 8.90218 15.5463 6.95294C16.3537 5.0037 16.7693 2.91452 16.7693 0.804688L8.73619 0.804692Z" fill="#8E714F"/>
<path d="M45.6875 22.0582H55.2886V19.1663H49.0999V8.27344H45.6875V22.0582Z" fill="#8E714F"/>
<path d="M61.357 20.131C59.9882 20.131 59.2748 18.9357 59.2748 17.1427C59.2748 15.3497 59.9882 14.1351 61.357 14.1351C62.7258 14.1351 63.4585 15.3497 63.4585 17.1427C63.4585 18.9357 62.7258 20.131 61.357 20.131ZM61.3763 22.3674C64.5574 22.3674 66.6396 20.1117 66.6396 17.1427C66.6396 14.1737 64.5574 11.918 61.3763 11.918C58.2145 11.918 56.0938 14.1737 56.0938 17.1427C56.0938 20.1117 58.2145 22.3674 61.3763 22.3674Z" fill="#8E714F"/>
<path d="M72.4733 25.4711C73.9386 25.4711 75.2303 25.1434 76.0978 24.3722C76.8883 23.6588 77.4088 22.5792 77.4088 21.0947V12.1876H74.4013V13.248H74.3627C73.7843 12.419 72.8975 11.8984 71.5865 11.8984C69.138 11.8984 67.4414 13.9421 67.4414 16.834C67.4414 19.8608 69.5043 21.5188 71.7214 21.5188C72.9167 21.5188 73.6686 21.0369 74.247 20.3814H74.3241V21.3646C74.3241 22.5599 73.765 23.254 72.4348 23.254C71.3937 23.254 70.8731 22.8106 70.6996 22.29H67.6535C67.9619 24.3529 69.7549 25.4711 72.4733 25.4711ZM72.454 19.186C71.278 19.186 70.5068 18.2221 70.5068 16.7376C70.5068 15.2338 71.278 14.2698 72.454 14.2698C73.765 14.2698 74.4591 15.388 74.4591 16.7183C74.4591 18.1064 73.8229 19.186 72.454 19.186Z" fill="#8E714F"/>
<path d="M83.4742 20.131C82.1054 20.131 81.392 18.9357 81.392 17.1427C81.392 15.3497 82.1054 14.1351 83.4742 14.1351C84.843 14.1351 85.5757 15.3497 85.5757 17.1427C85.5757 18.9357 84.843 20.131 83.4742 20.131ZM83.4935 22.3674C86.6746 22.3674 88.7563 20.1117 88.7563 17.1427C88.7563 14.1737 86.6746 11.918 83.4935 11.918C80.3317 11.918 78.2109 14.1737 78.2109 17.1427C78.2109 20.1117 80.3317 22.3674 83.4935 22.3674Z" fill="#8E714F"/>
<path d="M89.5605 22.0582H92.7031V12.1871H89.5605V22.0582ZM89.5605 10.8183H92.7031V8.27344H89.5605V10.8183Z" fill="#8E714F"/>
<path d="M93.5078 25.3169H96.6503V21.0369H96.6889C97.3058 21.8659 98.212 22.3671 99.4844 22.3671C102.068 22.3671 103.784 20.3235 103.784 17.1231C103.784 14.1541 102.184 11.8984 99.5615 11.8984C98.212 11.8984 97.248 12.4961 96.5732 13.3829H96.5154V12.1876H93.5078V25.3169ZM98.6747 19.9379C97.3251 19.9379 96.554 18.839 96.554 17.2388C96.554 15.6386 97.248 14.424 98.6168 14.424C99.9664 14.424 100.603 15.5422 100.603 17.2388C100.603 18.9161 99.87 19.9379 98.6747 19.9379Z" fill="#8E714F"/>
<path d="M109.387 22.3671C111.97 22.3671 113.879 21.2489 113.879 19.0896C113.879 16.564 111.835 16.1206 110.1 15.8314C108.847 15.6001 107.728 15.5037 107.728 14.8096C107.728 14.1927 108.326 13.9035 109.097 13.9035C109.965 13.9035 110.563 14.1734 110.678 15.0603H113.57C113.416 13.113 111.912 11.8984 109.117 11.8984C106.784 11.8984 104.856 12.9781 104.856 15.0603C104.856 17.3738 106.687 17.8365 108.403 18.1257C109.714 18.357 110.91 18.4534 110.91 19.3403C110.91 19.9765 110.312 20.3235 109.367 20.3235C108.326 20.3235 107.671 19.8415 107.555 18.8583H104.586C104.682 21.0369 106.495 22.3671 109.387 22.3671Z" fill="#8E714F"/>
<path d="M118.152 22.3477C119.521 22.3477 120.388 21.8079 121.102 20.8439H121.16V22.0585H124.167V12.1875H121.025V17.7014C121.025 18.8774 120.369 19.6872 119.289 19.6872C118.287 19.6872 117.805 19.0895 117.805 18.0099V12.1875H114.682V18.6654C114.682 20.8632 115.877 22.3477 118.152 22.3477Z" fill="#8E714F"/>
<path d="M124.971 22.0587H128.113V16.5255C128.113 15.3494 128.692 14.5204 129.675 14.5204C130.62 14.5204 131.063 15.1374 131.063 16.1977V22.0587H134.206V16.5255C134.206 15.3494 134.765 14.5204 135.767 14.5204C136.712 14.5204 137.155 15.1374 137.155 16.1977V22.0587H140.298V15.6386C140.298 13.4215 139.18 11.8984 136.943 11.8984C135.671 11.8984 134.61 12.4383 133.839 13.6336H133.801C133.299 12.5732 132.316 11.8984 131.024 11.8984C129.598 11.8984 128.653 12.5732 128.036 13.595H127.978V12.1876H124.971V22.0587Z" fill="#8E714F"/>
</svg>
