<svg width="141" height="34" viewBox="0 0 141 34" fill="none" xmlns="http://www.w3.org/2000/svg">
<path d="M45.5898 22.1451H55.1903V19.2534H49.0021V8.36133H45.5898V22.1451Z" fill="#8E714F"/>
<path d="M61.2551 20.2183C59.8863 20.2183 59.1731 19.0231 59.1731 17.2302C59.1731 15.4373 59.8863 14.2228 61.2551 14.2228C62.6238 14.2228 63.3564 15.4373 63.3564 17.2302C63.3564 19.0231 62.6238 20.2183 61.2551 20.2183ZM61.2744 22.4545C64.4552 22.4545 66.5373 20.199 66.5373 17.2302C66.5373 14.2614 64.4552 12.0059 61.2744 12.0059C58.1128 12.0059 55.9922 14.2614 55.9922 17.2302C55.9922 20.199 58.1128 22.4545 61.2744 22.4545Z" fill="#8E714F"/>
<path d="M72.3734 25.5561C73.8385 25.5561 75.1301 25.2284 75.9976 24.4572C76.788 23.744 77.3085 22.6644 77.3085 21.18V12.2735H74.3012V13.3338H74.2626C73.6843 12.5049 72.7975 11.9844 71.4866 11.9844C69.0383 11.9844 67.3418 14.0278 67.3418 16.9195C67.3418 19.9462 69.4045 21.6041 71.6215 21.6041C72.8168 21.6041 73.5686 21.1222 74.1469 20.4667H74.224V21.4499C74.224 22.6451 73.665 23.3391 72.3348 23.3391C71.2938 23.3391 70.7733 22.8957 70.5998 22.3752H67.5539C67.8623 24.438 69.6552 25.5561 72.3734 25.5561ZM72.3541 19.2715C71.1781 19.2715 70.407 18.3076 70.407 16.8232C70.407 15.3195 71.1781 14.3556 72.3541 14.3556C73.665 14.3556 74.359 15.4737 74.359 16.8039C74.359 18.1919 73.7228 19.2715 72.3541 19.2715Z" fill="#8E714F"/>
<path d="M83.3762 20.2183C82.0074 20.2183 81.2942 19.0231 81.2942 17.2302C81.2942 15.4373 82.0074 14.2228 83.3762 14.2228C84.7449 14.2228 85.4775 15.4373 85.4775 17.2302C85.4775 19.0231 84.7449 20.2183 83.3762 20.2183ZM83.3955 22.4545C86.5763 22.4545 88.6579 20.199 88.6579 17.2302C88.6579 14.2614 86.5763 12.0059 83.3955 12.0059C80.2339 12.0059 78.1133 14.2614 78.1133 17.2302C78.1133 20.199 80.2339 22.4545 83.3955 22.4545Z" fill="#8E714F"/>
<path d="M89.4609 22.1451H92.6032V12.2748H89.4609V22.1451ZM89.4609 10.906H92.6032V8.36133H89.4609V10.906Z" fill="#8E714F"/>
<path d="M93.4062 25.4019H96.5486V21.1222H96.5871C97.204 21.9511 98.1101 22.4523 99.3824 22.4523C101.966 22.4523 103.681 20.4089 103.681 17.2087C103.681 14.2399 102.081 11.9844 99.4595 11.9844C98.1101 11.9844 97.1462 12.582 96.4714 13.4688H96.4136V12.2735H93.4062V25.4019ZM98.5728 20.0233C97.2233 20.0233 96.4522 18.9245 96.4522 17.3244C96.4522 15.7243 97.1462 14.5098 98.5149 14.5098C99.8644 14.5098 100.501 15.6279 100.501 17.3244C100.501 19.0016 99.768 20.0233 98.5728 20.0233Z" fill="#8E714F"/>
<path d="M109.285 22.4523C111.868 22.4523 113.776 21.3342 113.776 19.1751C113.776 16.6497 111.733 16.2063 109.998 15.9171C108.745 15.6858 107.627 15.5894 107.627 14.8954C107.627 14.2785 108.224 13.9893 108.995 13.9893C109.863 13.9893 110.461 14.2592 110.576 15.146H113.468C113.314 13.1989 111.81 11.9844 109.015 11.9844C106.682 11.9844 104.754 13.0639 104.754 15.146C104.754 17.4593 106.586 17.922 108.301 18.2112C109.612 18.4425 110.808 18.5389 110.808 19.4257C110.808 20.0619 110.21 20.4089 109.265 20.4089C108.224 20.4089 107.569 19.9269 107.453 18.9437H104.484C104.581 21.1222 106.393 22.4523 109.285 22.4523Z" fill="#8E714F"/>
<path d="M118.048 22.4349C119.417 22.4349 120.284 21.8951 120.998 20.9312H121.056V22.1457H124.063V12.2754H120.921V17.7889C120.921 18.9649 120.265 19.7745 119.186 19.7745C118.183 19.7745 117.701 19.1769 117.701 18.0974V12.2754H114.578V18.7528C114.578 20.9505 115.773 22.4349 118.048 22.4349Z" fill="#8E714F"/>
<path d="M124.867 22.1439H128.01V16.6111C128.01 15.4351 128.588 14.6062 129.571 14.6062C130.516 14.6062 130.959 15.2231 130.959 16.2834V22.1439H134.101V16.6111C134.101 15.4351 134.66 14.6062 135.663 14.6062C136.607 14.6062 137.051 15.2231 137.051 16.2834V22.1439H140.193V15.7243C140.193 13.5073 139.075 11.9844 136.839 11.9844C135.566 11.9844 134.506 12.5242 133.735 13.7194H133.697C133.195 12.6591 132.212 11.9844 130.92 11.9844C129.494 11.9844 128.549 12.6591 127.932 13.6808H127.875V12.2735H124.867V22.1439Z" fill="#8E714F"/>
<path fill-rule="evenodd" clip-rule="evenodd" d="M7.67858 3.78452C6.5294 4.58806 5.49023 5.5381 4.58814 6.60757C8.2745 6.26533 12.9579 6.82416 18.3952 9.54287C24.2016 12.446 28.8772 12.5441 32.1312 11.9165C31.8359 11.0225 31.4641 10.1634 31.0239 9.34663C27.299 9.7395 22.5236 9.21948 16.9584 6.43694C13.4244 4.66995 10.3092 3.94207 7.67858 3.78452ZM28.8479 6.24952C25.9064 2.9629 21.6315 0.894531 16.8736 0.894531C15.4763 0.894531 14.1206 1.07294 12.8282 1.40819C14.5786 1.88581 16.4381 2.58456 18.3952 3.56314C22.4698 5.60039 25.9876 6.25635 28.8479 6.24952ZM32.8268 15.0543C28.8957 15.8306 23.4673 15.6711 16.9584 12.4167C10.8733 9.37411 6.03007 9.41242 2.76363 10.1383C2.59502 10.1758 2.43039 10.2151 2.26973 10.2561C1.84207 11.1862 1.5007 12.1642 1.25576 13.1798C1.51737 13.1099 1.7877 13.0435 2.06661 12.9815C6.02938 12.1009 11.6284 12.1391 18.3952 15.5226C24.4804 18.5651 29.3236 18.5268 32.5901 17.8009C32.702 17.7761 32.8123 17.7504 32.9207 17.7239C32.9326 17.4706 32.9386 17.2158 32.9386 16.9595C32.9386 16.3149 32.9007 15.6791 32.8268 15.0543ZM32.3962 21.1142C28.5033 21.7948 23.2329 21.5336 16.9584 18.3964C10.8733 15.3538 6.03007 15.3921 2.76363 16.118C2.03857 16.2791 1.38632 16.4753 0.810947 16.6825C0.809379 16.7746 0.808594 16.867 0.808594 16.9595C0.808594 25.832 8.00113 33.0245 16.8736 33.0245C24.3093 33.0245 30.5652 27.9728 32.3962 21.1142Z" fill="#8E714F"/>
</svg>
