<svg width="141" height="33" viewBox="0 0 141 33" fill="none" xmlns="http://www.w3.org/2000/svg">
<path d="M45.6875 22.0572H55.288V19.1655H49.0997V8.27344H45.6875V22.0572Z" fill="#8E714F"/>
<path d="M61.3547 20.1304C59.986 20.1304 59.2727 18.9352 59.2727 17.1423C59.2727 15.3495 59.986 14.1349 61.3547 14.1349C62.7234 14.1349 63.456 15.3495 63.456 17.1423C63.456 18.9352 62.7234 20.1304 61.3547 20.1304ZM61.374 22.3667C64.5548 22.3667 66.6369 20.1111 66.6369 17.1423C66.6369 14.1735 64.5548 11.918 61.374 11.918C58.2124 11.918 56.0918 14.1735 56.0918 17.1423C56.0918 20.1111 58.2124 22.3667 61.374 22.3667Z" fill="#8E714F"/>
<path d="M72.471 25.4702C73.9361 25.4702 75.2278 25.1424 76.0953 24.3713C76.8857 23.658 77.4062 22.5785 77.4062 21.0941V12.1876H74.3988V13.2479H74.3603C73.7819 12.4189 72.8951 11.8984 71.5842 11.8984C69.1359 11.8984 67.4395 13.9419 67.4395 16.8336C67.4395 19.8603 69.5022 21.5182 71.7192 21.5182C72.9144 21.5182 73.6663 21.0362 74.2446 20.3808H74.3217V21.3639C74.3217 22.5592 73.7626 23.2532 72.4325 23.2532C71.3914 23.2532 70.8709 22.8098 70.6974 22.2893H67.6515C67.96 24.352 69.7528 25.4702 72.471 25.4702ZM72.4517 19.1855C71.2758 19.1855 70.5047 18.2216 70.5047 16.7372C70.5047 15.2335 71.2758 14.2696 72.4517 14.2696C73.7626 14.2696 74.4567 15.3878 74.4567 16.7179C74.4567 18.106 73.8205 19.1855 72.4517 19.1855Z" fill="#8E714F"/>
<path d="M83.4719 20.1304C82.1031 20.1304 81.3899 18.9352 81.3899 17.1423C81.3899 15.3495 82.1031 14.1349 83.4719 14.1349C84.8406 14.1349 85.5732 15.3495 85.5732 17.1423C85.5732 18.9352 84.8406 20.1304 83.4719 20.1304ZM83.4912 22.3667C86.672 22.3667 88.7537 20.1111 88.7537 17.1423C88.7537 14.1735 86.672 11.918 83.4912 11.918C80.3296 11.918 78.209 14.1735 78.209 17.1423C78.209 20.1111 80.3296 22.3667 83.4912 22.3667Z" fill="#8E714F"/>
<path d="M89.5586 22.0572H92.7009V12.1869H89.5586V22.0572ZM89.5586 10.8181H92.7009V8.27344H89.5586V10.8181Z" fill="#8E714F"/>
<path d="M93.5039 25.3159H96.6462V21.0362H96.6848C97.3017 21.8652 98.2077 22.3664 99.4801 22.3664C102.063 22.3664 103.779 20.3229 103.779 17.1228C103.779 14.154 102.179 11.8984 99.5572 11.8984C98.2077 11.8984 97.2438 12.4961 96.5691 13.3828H96.5113V12.1876H93.5039V25.3159ZM98.6704 19.9374C97.321 19.9374 96.5498 18.8385 96.5498 17.2384C96.5498 15.6384 97.2438 14.4239 98.6126 14.4239C99.962 14.4239 100.598 15.542 100.598 17.2384C100.598 18.9156 99.8657 19.9374 98.6704 19.9374Z" fill="#8E714F"/>
<path d="M109.382 22.3664C111.966 22.3664 113.874 21.2483 113.874 19.0891C113.874 16.5637 111.831 16.1203 110.096 15.8312C108.842 15.5998 107.724 15.5034 107.724 14.8094C107.724 14.1925 108.322 13.9034 109.093 13.9034C109.961 13.9034 110.558 14.1732 110.674 15.06H113.566C113.411 13.113 111.908 11.8984 109.112 11.8984C106.78 11.8984 104.852 12.978 104.852 15.06C104.852 17.3734 106.683 17.8361 108.399 18.1252C109.71 18.3566 110.905 18.453 110.905 19.3398C110.905 19.9759 110.308 20.3229 109.363 20.3229C108.322 20.3229 107.667 19.841 107.551 18.8578H104.582C104.678 21.0362 106.491 22.3664 109.382 22.3664Z" fill="#8E714F"/>
<path d="M118.148 22.347C119.517 22.347 120.384 21.8072 121.097 20.8433H121.155V22.0578H124.163V12.1875H121.02V17.701C121.02 18.877 120.365 19.6866 119.285 19.6866C118.283 19.6866 117.801 19.089 117.801 18.0095V12.1875H114.678V18.6649C114.678 20.8626 115.873 22.347 118.148 22.347Z" fill="#8E714F"/>
<path d="M124.965 22.058H128.107V16.5252C128.107 15.3492 128.686 14.5202 129.669 14.5202C130.613 14.5202 131.057 15.1371 131.057 16.1974V22.058H134.199V16.5252C134.199 15.3492 134.758 14.5202 135.761 14.5202C136.705 14.5202 137.149 15.1371 137.149 16.1974V22.058H140.291V15.6384C140.291 13.4214 139.173 11.8984 136.936 11.8984C135.664 11.8984 134.604 12.4382 133.833 13.6335H133.794C133.293 12.5732 132.31 11.8984 131.018 11.8984C129.592 11.8984 128.647 12.5732 128.03 13.5949H127.972V12.1876H124.965V22.058Z" fill="#8E714F"/>
<path fill-rule="evenodd" clip-rule="evenodd" d="M16.7721 32.9347C25.6445 32.9347 32.8371 25.7421 32.8371 16.8697C32.8371 7.99724 25.6445 0.804688 16.7721 0.804688C7.89957 0.804688 0.707031 7.99724 0.707031 16.8697C0.707031 25.7421 7.89957 32.9347 16.7721 32.9347ZM21.7838 8.28844C22.0277 7.42191 21.1868 6.9095 20.4188 7.45665L9.69791 15.0942C8.86502 15.6875 8.99603 16.8697 9.89471 16.8697H12.7178V16.8478H18.2199L13.7367 18.4297L11.7603 25.451C11.5164 26.3175 12.3572 26.8299 13.1253 26.2827L23.8462 18.6453C24.6791 18.0519 24.548 16.8697 23.6494 16.8697H19.3682L21.7838 8.28844Z" fill="#8E714F"/>
</svg>
