<svg width="141" height="33" viewBox="0 0 141 33" fill="none" xmlns="http://www.w3.org/2000/svg">
<path d="M45.5898 21.399H55.1903V18.5073H49.0021V7.61523H45.5898V21.399Z" fill="#8E714F"/>
<path d="M61.2551 19.4722C59.8863 19.4722 59.1731 18.277 59.1731 16.4841C59.1731 14.6913 59.8863 13.4767 61.2551 13.4767C62.6238 13.4767 63.3564 14.6913 63.3564 16.4841C63.3564 18.277 62.6238 19.4722 61.2551 19.4722ZM61.2744 21.7084C64.4552 21.7084 66.5373 19.4529 66.5373 16.4841C66.5373 13.5153 64.4552 11.2598 61.2744 11.2598C58.1128 11.2598 55.9922 13.5153 55.9922 16.4841C55.9922 19.4529 58.1128 21.7084 61.2744 21.7084Z" fill="#8E714F"/>
<path d="M72.3734 24.81C73.8385 24.81 75.1301 24.4823 75.9976 23.7112C76.788 22.9979 77.3085 21.9183 77.3085 20.4339V11.5275H74.3012V12.5877H74.2626C73.6843 11.7588 72.7975 11.2383 71.4866 11.2383C69.0383 11.2383 67.3418 13.2818 67.3418 16.1735C67.3418 19.2001 69.4045 20.858 71.6215 20.858C72.8168 20.858 73.5686 20.3761 74.1469 19.7206H74.224V20.7038C74.224 21.899 73.665 22.593 72.3348 22.593C71.2938 22.593 70.7733 22.1496 70.5998 21.6291H67.5539C67.8623 23.6919 69.6552 24.81 72.3734 24.81ZM72.3541 18.5254C71.1781 18.5254 70.407 17.5615 70.407 16.0771C70.407 14.5734 71.1781 13.6095 72.3541 13.6095C73.665 13.6095 74.359 14.7276 74.359 16.0578C74.359 17.4458 73.7228 18.5254 72.3541 18.5254Z" fill="#8E714F"/>
<path d="M83.3762 19.4722C82.0074 19.4722 81.2942 18.277 81.2942 16.4841C81.2942 14.6913 82.0074 13.4767 83.3762 13.4767C84.7449 13.4767 85.4775 14.6913 85.4775 16.4841C85.4775 18.277 84.7449 19.4722 83.3762 19.4722ZM83.3955 21.7084C86.5763 21.7084 88.6579 19.4529 88.6579 16.4841C88.6579 13.5153 86.5763 11.2598 83.3955 11.2598C80.2339 11.2598 78.1133 13.5153 78.1133 16.4841C78.1133 19.4529 80.2339 21.7084 83.3955 21.7084Z" fill="#8E714F"/>
<path d="M89.4609 21.399H92.6032V11.5287H89.4609V21.399ZM89.4609 10.1599H92.6032V7.61523H89.4609V10.1599Z" fill="#8E714F"/>
<path d="M93.4062 24.6558H96.5486V20.3761H96.5871C97.204 21.205 98.1101 21.7062 99.3824 21.7062C101.966 21.7062 103.681 19.6628 103.681 16.4626C103.681 13.4938 102.081 11.2383 99.4595 11.2383C98.1101 11.2383 97.1462 11.8359 96.4714 12.7227H96.4136V11.5275H93.4062V24.6558ZM98.5728 19.2772C97.2233 19.2772 96.4522 18.1784 96.4522 16.5783C96.4522 14.9782 97.1462 13.7637 98.5149 13.7637C99.8644 13.7637 100.501 14.8818 100.501 16.5783C100.501 18.2555 99.768 19.2772 98.5728 19.2772Z" fill="#8E714F"/>
<path d="M109.285 21.7062C111.868 21.7062 113.776 20.5881 113.776 18.429C113.776 15.9036 111.733 15.4602 109.998 15.171C108.745 14.9397 107.627 14.8433 107.627 14.1493C107.627 13.5324 108.224 13.2432 108.995 13.2432C109.863 13.2432 110.461 13.5131 110.576 14.3999H113.468C113.314 12.4528 111.81 11.2383 109.015 11.2383C106.682 11.2383 104.754 12.3179 104.754 14.3999C104.754 16.7132 106.586 17.1759 108.301 17.4651C109.612 17.6964 110.808 17.7928 110.808 18.6796C110.808 19.3158 110.21 19.6628 109.265 19.6628C108.224 19.6628 107.569 19.1808 107.453 18.1976H104.484C104.581 20.3761 106.393 21.7062 109.285 21.7062Z" fill="#8E714F"/>
<path d="M118.048 21.6888C119.417 21.6888 120.284 21.149 120.998 20.1851H121.056V21.3996H124.063V11.5293H120.921V17.0428C120.921 18.2188 120.265 19.0284 119.186 19.0284C118.183 19.0284 117.701 18.4308 117.701 17.3513V11.5293H114.578V18.0067C114.578 20.2044 115.773 21.6888 118.048 21.6888Z" fill="#8E714F"/>
<path d="M124.867 21.3978H128.01V15.865C128.01 14.689 128.588 13.8601 129.571 13.8601C130.516 13.8601 130.959 14.477 130.959 15.5373V21.3978H134.101V15.865C134.101 14.689 134.66 13.8601 135.663 13.8601C136.607 13.8601 137.051 14.477 137.051 15.5373V21.3978H140.193V14.9782C140.193 12.7612 139.075 11.2383 136.839 11.2383C135.566 11.2383 134.506 11.7781 133.735 12.9733H133.697C133.195 11.913 132.212 11.2383 130.92 11.2383C129.494 11.2383 128.549 11.913 127.932 12.9347H127.875V11.5275H124.867V21.3978Z" fill="#8E714F"/>
<path fill-rule="evenodd" clip-rule="evenodd" d="M7.67858 3.03842C6.5294 3.84196 5.49023 4.79201 4.58814 5.86147C8.2745 5.51923 12.9579 6.07807 18.3952 8.79677C24.2016 11.6999 28.8772 11.798 32.1312 11.1704C31.8359 10.2764 31.4641 9.41729 31.0239 8.60054C27.299 8.99341 22.5236 8.47339 16.9584 5.69085C13.4244 3.92386 10.3092 3.19597 7.67858 3.03842ZM28.8479 5.50342C25.9064 2.2168 21.6315 0.148438 16.8736 0.148438C15.4763 0.148438 14.1206 0.326845 12.8282 0.6621C14.5786 1.13972 16.4381 1.83846 18.3952 2.81705C22.4698 4.8543 25.9876 5.51026 28.8479 5.50342ZM32.8268 14.3082C28.8957 15.0845 23.4673 14.925 16.9584 11.6706C10.8733 8.62801 6.03007 8.66633 2.76363 9.39223C2.59502 9.42966 2.43039 9.46902 2.26973 9.50998C1.84207 10.4401 1.5007 11.4181 1.25576 12.4337C1.51737 12.3639 1.7877 12.2974 2.06661 12.2354C6.02938 11.3548 11.6284 11.393 18.3952 14.7765C24.4804 17.819 29.3236 17.7807 32.5901 17.0548C32.702 17.03 32.8123 17.0043 32.9207 16.9778C32.9326 16.7245 32.9386 16.4697 32.9386 16.2134C32.9386 15.5688 32.9007 14.933 32.8268 14.3082ZM32.3962 20.3681C28.5033 21.0487 23.2329 20.7875 16.9584 17.6503C10.8733 14.6077 6.03007 14.646 2.76363 15.3719C2.03857 15.533 1.38632 15.7292 0.810947 15.9364C0.809379 16.0285 0.808594 16.1209 0.808594 16.2134C0.808594 25.0859 8.00113 32.2784 16.8736 32.2784C24.3093 32.2784 30.5652 27.2267 32.3962 20.3681Z" fill="#8E714F"/>
</svg>
