<svg width="141" height="33" viewBox="0 0 141 33" fill="none" xmlns="http://www.w3.org/2000/svg">
<path d="M45.6875 21.4283H55.288V18.5366H49.0997V7.64453H45.6875V21.4283Z" fill="#8E714F"/>
<path d="M61.3547 19.5015C59.986 19.5015 59.2727 18.3063 59.2727 16.5134C59.2727 14.7205 59.986 13.506 61.3547 13.506C62.7234 13.506 63.456 14.7205 63.456 16.5134C63.456 18.3063 62.7234 19.5015 61.3547 19.5015ZM61.374 21.7377C64.5548 21.7377 66.6369 19.4822 66.6369 16.5134C66.6369 13.5446 64.5548 11.2891 61.374 11.2891C58.2124 11.2891 56.0918 13.5446 56.0918 16.5134C56.0918 19.4822 58.2124 21.7377 61.374 21.7377Z" fill="#8E714F"/>
<path d="M72.471 24.8413C73.9361 24.8413 75.2278 24.5135 76.0953 23.7424C76.8857 23.0291 77.4062 21.9496 77.4062 20.4651V11.5587H74.3988V12.619H74.3603C73.7819 11.79 72.8951 11.2695 71.5842 11.2695C69.1359 11.2695 67.4395 13.313 67.4395 16.2047C67.4395 19.2314 69.5022 20.8893 71.7192 20.8893C72.9144 20.8893 73.6663 20.4073 74.2446 19.7519H74.3217V20.735C74.3217 21.9303 73.7626 22.6243 72.4325 22.6243C71.3914 22.6243 70.8709 22.1809 70.6974 21.6604H67.6515C67.96 23.7231 69.7528 24.8413 72.471 24.8413ZM72.4517 18.5566C71.2758 18.5566 70.5047 17.5927 70.5047 16.1083C70.5047 14.6046 71.2758 13.6407 72.4517 13.6407C73.7626 13.6407 74.4567 14.7589 74.4567 16.089C74.4567 17.4771 73.8205 18.5566 72.4517 18.5566Z" fill="#8E714F"/>
<path d="M83.4738 19.5015C82.1051 19.5015 81.3918 18.3063 81.3918 16.5134C81.3918 14.7205 82.1051 13.506 83.4738 13.506C84.8426 13.506 85.5751 14.7205 85.5751 16.5134C85.5751 18.3063 84.8426 19.5015 83.4738 19.5015ZM83.4931 21.7377C86.674 21.7377 88.7556 19.4822 88.7556 16.5134C88.7556 13.5446 86.674 11.2891 83.4931 11.2891C80.3315 11.2891 78.2109 13.5446 78.2109 16.5134C78.2109 19.4822 80.3315 21.7377 83.4931 21.7377Z" fill="#8E714F"/>
<path d="M89.5586 21.4283H92.7009V11.558H89.5586V21.4283ZM89.5586 10.1892H92.7009V7.64453H89.5586V10.1892Z" fill="#8E714F"/>
<path d="M93.5039 24.687H96.6462V20.4073H96.6848C97.3017 21.2363 98.2077 21.7375 99.4801 21.7375C102.063 21.7375 103.779 19.694 103.779 16.4939C103.779 13.5251 102.179 11.2695 99.5572 11.2695C98.2077 11.2695 97.2438 11.8671 96.5691 12.7539H96.5113V11.5587H93.5039V24.687ZM98.6704 19.3085C97.321 19.3085 96.5498 18.2096 96.5498 16.6095C96.5498 15.0095 97.2438 13.795 98.6126 13.795C99.962 13.795 100.598 14.9131 100.598 16.6095C100.598 18.2867 99.8657 19.3085 98.6704 19.3085Z" fill="#8E714F"/>
<path d="M109.382 21.7375C111.966 21.7375 113.874 20.6194 113.874 18.4602C113.874 15.9348 111.831 15.4914 110.096 15.2022C108.842 14.9709 107.724 14.8745 107.724 14.1805C107.724 13.5636 108.322 13.2744 109.093 13.2744C109.961 13.2744 110.558 13.5443 110.674 14.4311H113.566C113.411 12.484 111.908 11.2695 109.112 11.2695C106.78 11.2695 104.852 12.3491 104.852 14.4311C104.852 16.7445 106.683 17.2072 108.399 17.4963C109.71 17.7277 110.905 17.8241 110.905 18.7108C110.905 19.347 110.308 19.694 109.363 19.694C108.322 19.694 107.667 19.2121 107.551 18.2289H104.582C104.678 20.4073 106.491 21.7375 109.382 21.7375Z" fill="#8E714F"/>
<path d="M118.146 21.7181C119.515 21.7181 120.382 21.1783 121.095 20.2144H121.153V21.4289H124.161V11.5586H121.018V17.0721C121.018 18.2481 120.363 19.0577 119.283 19.0577C118.281 19.0577 117.799 18.4601 117.799 17.3806V11.5586H114.676V18.036C114.676 20.2337 115.871 21.7181 118.146 21.7181Z" fill="#8E714F"/>
<path d="M124.965 21.429H128.107V15.8963C128.107 14.7203 128.686 13.8913 129.669 13.8913C130.613 13.8913 131.057 14.5082 131.057 15.5685V21.429H134.199V15.8963C134.199 14.7203 134.758 13.8913 135.761 13.8913C136.705 13.8913 137.149 14.5082 137.149 15.5685V21.429H140.291V15.0095C140.291 12.7925 139.173 11.2695 136.936 11.2695C135.664 11.2695 134.604 11.8093 133.833 13.0046H133.794C133.293 11.9443 132.31 11.2695 131.018 11.2695C129.592 11.2695 128.647 11.9443 128.03 12.966H127.972V11.5587H124.965V21.429Z" fill="#8E714F"/>
<path fill-rule="evenodd" clip-rule="evenodd" d="M16.7721 32.3077C25.6445 32.3077 32.8371 25.1152 32.8371 16.2427C32.8371 7.37029 25.6445 0.177734 16.7721 0.177734C7.89957 0.177734 0.707031 7.37029 0.707031 16.2427C0.707031 25.1152 7.89957 32.3077 16.7721 32.3077ZM21.7838 7.66149C22.0277 6.79495 21.1868 6.28254 20.4188 6.82969L9.69791 14.4672C8.86502 15.0606 8.99603 16.2427 9.89471 16.2427H12.7178V16.2209H18.2199L13.7367 17.8027L11.7603 24.824C11.5164 25.6906 12.3572 26.2029 13.1253 25.6558L23.8462 18.0183C24.6791 17.4249 24.548 16.2427 23.6494 16.2427H19.3682L21.7838 7.66149Z" fill="#8E714F"/>
</svg>
