<svg width="141" height="33" viewBox="0 0 141 33" fill="none" xmlns="http://www.w3.org/2000/svg">
<path d="M45.6348 22.0552H55.2352V19.1635H49.047V8.27148H45.6348V22.0552Z" fill="#8E714F"/>
<path d="M61.302 20.1284C59.9332 20.1284 59.2199 18.9332 59.2199 17.1403C59.2199 15.3475 59.9332 14.133 61.302 14.133C62.6707 14.133 63.4032 15.3475 63.4032 17.1403C63.4032 18.9332 62.6707 20.1284 61.302 20.1284ZM61.3212 22.3647C64.5021 22.3647 66.5841 20.1092 66.5841 17.1403C66.5841 14.1715 64.5021 11.916 61.3212 11.916C58.1596 11.916 56.0391 14.1715 56.0391 17.1403C56.0391 20.1092 58.1596 22.3647 61.3212 22.3647Z" fill="#8E714F"/>
<path d="M72.4183 25.4682C73.8834 25.4682 75.175 25.1405 76.0425 24.3693C76.8329 23.6561 77.3534 22.5765 77.3534 21.0921V12.1857H74.3461V13.2459H74.3075C73.7292 12.417 72.8424 11.8965 71.5315 11.8965C69.0832 11.8965 67.3867 13.94 67.3867 16.8316C67.3867 19.8583 69.4495 21.5162 71.6664 21.5162C72.8617 21.5162 73.6135 21.0343 74.1918 20.3788H74.269V21.362C74.269 22.5572 73.7099 23.2512 72.3797 23.2512C71.3387 23.2512 70.8182 22.8078 70.6447 22.2873H67.5988C67.9072 24.3501 69.7001 25.4682 72.4183 25.4682ZM72.399 19.1836C71.223 19.1836 70.4519 18.2197 70.4519 16.7353C70.4519 15.2316 71.223 14.2677 72.399 14.2677C73.7099 14.2677 74.4039 15.3858 74.4039 16.716C74.4039 18.104 73.7677 19.1836 72.399 19.1836Z" fill="#8E714F"/>
<path d="M83.4191 20.1284C82.0504 20.1284 81.3371 18.9332 81.3371 17.1403C81.3371 15.3475 82.0504 14.133 83.4191 14.133C84.7879 14.133 85.5204 15.3475 85.5204 17.1403C85.5204 18.9332 84.7879 20.1284 83.4191 20.1284ZM83.4384 22.3647C86.6193 22.3647 88.7009 20.1092 88.7009 17.1403C88.7009 14.1715 86.6193 11.916 83.4384 11.916C80.2768 11.916 78.1562 14.1715 78.1562 17.1403C78.1562 20.1092 80.2768 22.3647 83.4384 22.3647Z" fill="#8E714F"/>
<path d="M89.5039 22.0552H92.6462V12.1849H89.5039V22.0552ZM89.5039 10.8162H92.6462V8.27148H89.5039V10.8162Z" fill="#8E714F"/>
<path d="M93.4492 25.312H96.5915V21.0323H96.6301C97.247 21.8613 98.153 22.3625 99.4254 22.3625C102.009 22.3625 103.724 20.319 103.724 17.1189C103.724 14.1501 102.124 11.8945 99.5025 11.8945C98.153 11.8945 97.1891 12.4921 96.5144 13.3789H96.4566V12.1837H93.4492V25.312ZM98.6157 19.9335C97.2663 19.9335 96.4951 18.8346 96.4951 17.2345C96.4951 15.6345 97.1891 14.4199 98.5579 14.4199C99.9073 14.4199 100.544 15.5381 100.544 17.2345C100.544 18.9117 99.811 19.9335 98.6157 19.9335Z" fill="#8E714F"/>
<path d="M109.33 22.3644C111.913 22.3644 113.821 21.2463 113.821 19.0872C113.821 16.5618 111.778 16.1184 110.043 15.8292C108.79 15.5979 107.672 15.5015 107.672 14.8075C107.672 14.1906 108.269 13.9014 109.04 13.9014C109.908 13.9014 110.505 14.1713 110.621 15.0581H113.513C113.359 13.111 111.855 11.8965 109.06 11.8965C106.727 11.8965 104.799 12.9761 104.799 15.0581C104.799 17.3714 106.631 17.8341 108.346 18.1233C109.657 18.3546 110.852 18.451 110.852 19.3378C110.852 19.974 110.255 20.321 109.31 20.321C108.269 20.321 107.614 19.839 107.498 18.8558H104.529C104.626 21.0342 106.438 22.3644 109.33 22.3644Z" fill="#8E714F"/>
<path d="M118.095 22.345C119.464 22.345 120.331 21.8053 121.045 20.8414H121.102V22.0559H124.11V12.1855H120.967V17.6991C120.967 18.875 120.312 19.6847 119.232 19.6847C118.23 19.6847 117.748 19.0871 117.748 18.0075V12.1855H114.625V18.6629C114.625 20.8606 115.82 22.345 118.095 22.345Z" fill="#8E714F"/>
<path d="M124.91 22.054H128.052V16.5212C128.052 15.3453 128.631 14.5163 129.614 14.5163C130.559 14.5163 131.002 15.1332 131.002 16.1935V22.054H134.144V16.5212C134.144 15.3453 134.703 14.5163 135.706 14.5163C136.65 14.5163 137.094 15.1332 137.094 16.1935V22.054H140.236V15.6345C140.236 13.4175 139.118 11.8945 136.882 11.8945C135.609 11.8945 134.549 12.4343 133.778 13.6295H133.739C133.238 12.5693 132.255 11.8945 130.963 11.8945C129.537 11.8945 128.592 12.5693 127.975 13.591H127.918V12.1837H124.91V22.054Z" fill="#8E714F"/>
<path d="M20.9173 1.6512L17.7581 0.804688L15.0958 10.7405L12.6922 1.77039L9.53298 2.6169L12.1299 12.3085L5.6616 5.84024L3.34889 8.15295L10.4438 15.2479L1.60823 12.8804L0.761719 16.0396L10.4157 18.6264C10.3051 18.1496 10.2467 17.6529 10.2467 17.1425C10.2467 13.5298 13.1753 10.6012 16.788 10.6012C20.4007 10.6012 23.3293 13.5298 23.3293 17.1425C23.3293 17.6496 23.2716 18.1433 23.1624 18.6172L31.9361 20.9681L32.7825 17.8089L23.0902 15.2118L31.9264 12.8442L31.0798 9.68499L21.3879 12.2819L27.8561 5.81369L25.5434 3.50098L18.547 10.4975L20.9173 1.6512Z" fill="#8E714F"/>
<path d="M23.1527 18.6543C22.8818 19.7994 22.31 20.8281 21.5254 21.6523L27.8815 28.0085L30.1942 25.6958L23.1527 18.6543Z" fill="#8E714F"/>
<path d="M21.462 21.7188C20.6679 22.5298 19.6644 23.135 18.5391 23.4469L20.8519 32.0787L24.0111 31.2321L21.462 21.7188Z" fill="#8E714F"/>
<path d="M18.4215 23.4789C17.8994 23.6132 17.3522 23.6845 16.7882 23.6845C16.184 23.6845 15.5989 23.6026 15.0435 23.4492L12.7285 32.0888L15.8877 32.9353L18.4215 23.4789Z" fill="#8E714F"/>
<path d="M14.931 23.4178C13.8228 23.0904 12.8371 22.4774 12.0593 21.6641L5.6875 28.0358L8.00021 30.3486L14.931 23.4178Z" fill="#8E714F"/>
<path d="M12.0079 21.6074C11.2434 20.7889 10.6865 19.7739 10.4214 18.6465L1.61914 21.0051L2.46565 24.1642L12.0079 21.6074Z" fill="#8E714F"/>
</svg>
