<svg width="36" height="36" viewBox="0 0 36 36" fill="none" xmlns="http://www.w3.org/2000/svg">
<path d="M27.2126 4C28.7874 4 30.1417 4.29137 31.2756 4.8741C32.4094 5.45684 33.2913 6.29856 33.9213 7.39928C34.6142 8.30576 35.1181 9.5036 35.4331 10.9928C35.811 12.482 36 13.9712 36 15.4604C36 18.6978 35.1811 21.7086 33.5433 24.4928C31.9685 27.2122 29.4803 29.3813 26.0787 31L25.2283 29.2518C26.9921 28.4748 28.5669 27.277 29.9528 25.6583C31.3386 24.0396 32.1575 22.3885 32.4094 20.705C32.7244 19.2806 32.7244 17.9209 32.4094 16.6259C31.0236 18.1799 29.1968 18.9568 26.9291 18.9568C24.7244 18.9568 22.9291 18.3094 21.5433 17.0144C20.1575 15.6547 19.4646 13.8094 19.4646 11.4784C19.4646 9.21223 20.189 7.39928 21.6378 6.03957C23.1496 4.67986 25.0079 4 27.2126 4ZM7.74803 4C9.32283 4 10.6772 4.29137 11.811 4.8741C12.9449 5.45684 13.8268 6.29856 14.4567 7.39928C15.1496 8.30576 15.6535 9.5036 15.9685 10.9928C16.3465 12.482 16.5354 13.9712 16.5354 15.4604C16.5354 18.6978 15.7165 21.7086 14.0787 24.4928C12.5039 27.2122 10.0157 29.3813 6.61417 31L5.76378 29.2518C7.52756 28.4748 9.10236 27.277 10.4882 25.6583C11.874 24.0396 12.6929 22.3885 12.9449 20.705C13.2598 19.2806 13.2598 17.9209 12.9449 16.6259C11.5591 18.1799 9.73228 18.9568 7.46457 18.9568C5.25984 18.9568 3.46457 18.3094 2.07874 17.0144C0.692914 15.6547 0 13.8094 0 11.4784C0 9.21223 0.724409 7.39928 2.17323 6.03957C3.68504 4.67986 5.54331 4 7.74803 4Z" fill="#8E714F"/>
</svg>
